<mxfile host="app.diagrams.net" modified="2023-10-18T13:46:36.252Z" agent="Mozilla/5.0 (Windows NT 10.0; Win64; x64) AppleWebKit/537.36 (KHTML, like Gecko) Chrome/118.0.0.0 Safari/537.36 Edg/118.0.2088.46" etag="jTH-XOn2WahZliegkmrb" version="21.7.5" type="device">
  <diagram name="Pagina-1" id="QfJQGr4ZGAJbIHMOZ1r1">
    <mxGraphModel dx="2367" dy="836" grid="0" gridSize="10" guides="1" tooltips="1" connect="1" arrows="1" fold="1" page="0" pageScale="1" pageWidth="827" pageHeight="1169" math="0" shadow="0">
      <root>
        <mxCell id="0" />
        <mxCell id="1" parent="0" />
        <mxCell id="Fnz1tmBVVwKyuUZF2mA5-1" value="Millenarismo&amp;nbsp;&lt;br&gt;&lt;br&gt;Paura della morte e superstizioni" style="rounded=0;whiteSpace=wrap;html=1;fontSize=16;" vertex="1" parent="1">
          <mxGeometry x="1" y="32" width="239" height="60" as="geometry" />
        </mxCell>
        <mxCell id="Fnz1tmBVVwKyuUZF2mA5-2" value="&lt;div&gt;Malattie epidemiche&lt;/div&gt;&lt;div&gt;&lt;br&gt;&lt;/div&gt;&lt;div&gt;Devastazioni delle guerre&lt;/div&gt;&lt;div&gt;&lt;br&gt;&lt;/div&gt;&lt;div&gt;Generica instabilità&lt;/div&gt;&lt;div&gt;&lt;br&gt;&lt;/div&gt;" style="rounded=0;whiteSpace=wrap;html=1;fontSize=16;" vertex="1" parent="1">
          <mxGeometry x="-5" y="143" width="261" height="150" as="geometry" />
        </mxCell>
        <mxCell id="Fnz1tmBVVwKyuUZF2mA5-3" value="Credenze:&lt;br&gt;&lt;br&gt;- Ebrei: Accusati di usura e peccato originale&lt;br&gt;(confinati nei ghetti)&lt;br&gt;&lt;br&gt;Streghe: Accusate di incarnare Satana" style="rounded=1;whiteSpace=wrap;html=1;fontSize=16;" vertex="1" parent="1">
          <mxGeometry x="373" y="59" width="238" height="181" as="geometry" />
        </mxCell>
        <mxCell id="Fnz1tmBVVwKyuUZF2mA5-4" value="" style="endArrow=classic;html=1;rounded=0;fontSize=12;startSize=8;endSize=8;curved=1;exitX=1;exitY=0.5;exitDx=0;exitDy=0;entryX=-0.001;entryY=0.429;entryDx=0;entryDy=0;entryPerimeter=0;" edge="1" parent="1" source="Fnz1tmBVVwKyuUZF2mA5-1" target="Fnz1tmBVVwKyuUZF2mA5-3">
          <mxGeometry width="50" height="50" relative="1" as="geometry">
            <mxPoint x="428" y="225" as="sourcePoint" />
            <mxPoint x="478" y="175" as="targetPoint" />
          </mxGeometry>
        </mxCell>
        <mxCell id="Fnz1tmBVVwKyuUZF2mA5-5" value="" style="endArrow=classic;html=1;rounded=0;fontSize=12;startSize=8;endSize=8;curved=1;exitX=0.994;exitY=0.432;exitDx=0;exitDy=0;entryX=0;entryY=0.5;entryDx=0;entryDy=0;exitPerimeter=0;" edge="1" parent="1" source="Fnz1tmBVVwKyuUZF2mA5-2" target="Fnz1tmBVVwKyuUZF2mA5-3">
          <mxGeometry width="50" height="50" relative="1" as="geometry">
            <mxPoint x="250" y="72" as="sourcePoint" />
            <mxPoint x="383" y="147" as="targetPoint" />
          </mxGeometry>
        </mxCell>
        <mxCell id="Fnz1tmBVVwKyuUZF2mA5-6" value="95 Tesi di Lutero&lt;br&gt;&lt;br&gt;&lt;div&gt;Affigge alla porta della chiesa 95 tesi in cui contesta gli abusi delle indulgenze a carico dei rappresentati della fede cattolica&lt;/div&gt;&lt;div&gt;&lt;br&gt;&lt;/div&gt;" style="rounded=1;whiteSpace=wrap;html=1;fontSize=16;" vertex="1" parent="1">
          <mxGeometry x="1" y="371" width="238" height="181" as="geometry" />
        </mxCell>
        <mxCell id="Fnz1tmBVVwKyuUZF2mA5-7" value="Reazione della chiesa: Bolla papale e scomunica&lt;br&gt;&lt;br&gt;Lutero brucia la bolla papale" style="rounded=0;whiteSpace=wrap;html=1;fontSize=16;" vertex="1" parent="1">
          <mxGeometry x="355" y="427" width="239" height="106" as="geometry" />
        </mxCell>
        <mxCell id="Fnz1tmBVVwKyuUZF2mA5-8" value="" style="endArrow=classic;html=1;rounded=0;fontSize=12;startSize=8;endSize=8;curved=1;exitX=1.005;exitY=0.552;exitDx=0;exitDy=0;entryX=0;entryY=0.5;entryDx=0;entryDy=0;exitPerimeter=0;" edge="1" parent="1" source="Fnz1tmBVVwKyuUZF2mA5-6" target="Fnz1tmBVVwKyuUZF2mA5-7">
          <mxGeometry width="50" height="50" relative="1" as="geometry">
            <mxPoint x="264" y="218" as="sourcePoint" />
            <mxPoint x="383" y="159" as="targetPoint" />
          </mxGeometry>
        </mxCell>
        <mxCell id="Fnz1tmBVVwKyuUZF2mA5-9" value="&lt;div&gt;3 principi con cui andava riformato il cristianesimo:&amp;nbsp;&lt;/div&gt;&lt;div&gt;&lt;br&gt;&lt;/div&gt;&lt;div&gt;LIBERO ESAME&lt;/div&gt;&lt;div&gt;GIUSTIFICAZIONE PER SOLA FEDE&lt;/div&gt;&lt;div&gt;SACERDOZIO UNIVERSALE&amp;nbsp;&lt;/div&gt;&lt;div&gt;&lt;br&gt;&lt;/div&gt;" style="rounded=1;whiteSpace=wrap;html=1;fontSize=16;" vertex="1" parent="1">
          <mxGeometry x="352" y="602" width="238" height="181" as="geometry" />
        </mxCell>
        <mxCell id="Fnz1tmBVVwKyuUZF2mA5-10" value="" style="endArrow=classic;html=1;rounded=0;fontSize=12;startSize=8;endSize=8;curved=1;exitX=0.5;exitY=1;exitDx=0;exitDy=0;entryX=0.5;entryY=0;entryDx=0;entryDy=0;" edge="1" parent="1" source="Fnz1tmBVVwKyuUZF2mA5-7" target="Fnz1tmBVVwKyuUZF2mA5-9">
          <mxGeometry width="50" height="50" relative="1" as="geometry">
            <mxPoint x="250" y="481" as="sourcePoint" />
            <mxPoint x="365" y="490" as="targetPoint" />
          </mxGeometry>
        </mxCell>
        <mxCell id="Fnz1tmBVVwKyuUZF2mA5-11" value="Erasmo da Rotterdam&lt;br&gt;&lt;br&gt;Elogio della follia: Coloro che &quot;pensano e discutono&quot; sono banditi" style="rounded=1;whiteSpace=wrap;html=1;fontSize=16;" vertex="1" parent="1">
          <mxGeometry x="15" y="845" width="238" height="181" as="geometry" />
        </mxCell>
        <mxCell id="Fnz1tmBVVwKyuUZF2mA5-12" value="&lt;div&gt;&lt;br&gt;&lt;/div&gt;&lt;div&gt;Chi sono i pazzi?&lt;/div&gt;&lt;div&gt;&lt;br&gt;&lt;/div&gt;&lt;div&gt;- gli scrittori, perché pensano di guadagnarsi la fama immortale pubblicando libri&lt;/div&gt;&lt;div&gt;- i legislatori, che producono leggi sempre nuove e sempre meno comprensibili&lt;/div&gt;&lt;div&gt;- i filosofi, che pensano di essere i soli a detenere il sapere&amp;nbsp;&lt;/div&gt;&lt;div&gt;&lt;br&gt;&lt;/div&gt;" style="rounded=1;whiteSpace=wrap;html=1;fontSize=16;" vertex="1" parent="1">
          <mxGeometry x="359" y="839" width="289" height="257" as="geometry" />
        </mxCell>
        <mxCell id="Fnz1tmBVVwKyuUZF2mA5-13" value="" style="endArrow=classic;html=1;rounded=0;fontSize=12;startSize=8;endSize=8;curved=1;exitX=1;exitY=0.5;exitDx=0;exitDy=0;" edge="1" parent="1" source="Fnz1tmBVVwKyuUZF2mA5-11" target="Fnz1tmBVVwKyuUZF2mA5-12">
          <mxGeometry width="50" height="50" relative="1" as="geometry">
            <mxPoint x="485" y="543" as="sourcePoint" />
            <mxPoint x="481" y="612" as="targetPoint" />
          </mxGeometry>
        </mxCell>
        <mxCell id="Fnz1tmBVVwKyuUZF2mA5-14" value="De llibero arbitrio" style="rounded=1;whiteSpace=wrap;html=1;fontSize=16;" vertex="1" parent="1">
          <mxGeometry x="248" y="1155" width="238" height="181" as="geometry" />
        </mxCell>
        <mxCell id="Fnz1tmBVVwKyuUZF2mA5-15" value="" style="shape=image;verticalLabelPosition=bottom;labelBackgroundColor=default;verticalAlign=top;aspect=fixed;imageAspect=0;image=data:image/png,iVBORw0KGgoAAAANSUhEUgAAApwAAAEQCAYAAAAd0aSbAAAAAXNSR0IArs4c6QAAAARnQU1BAACxjwv8YQUAAAAJcEhZcwAAEnQAABJ0Ad5mH3gAAEmnSURBVHhe7b1LiF5Vuv//5j8TB15LJ4mIoOApUWxaYmwlETtxYEPsaCdw/BExtjlxcETTDpQKiKDo4BjFiR41Ni14wHS0FRTaSocY1GijHChRAxEcGBHUJlE44rD+72dlf8unVtZ+77uu3w+sWvtde12edd3PXpddK6bbtIwxxhhjjGmI/6+yjTHGGGOMaQQrnMYYY4wxplGscBpjjDHGmEaxwmmMMcYYYxrFCqcxxhhjjGkUK5zGGGOMMaZRrHAaY4wxxphGscJpjDHGGGMaxQqnMcYYY4xpFCucxhhjjDGmUaxwGmOMMcaYRrHCaYwxxhhjGsUKpzHGGGOMaRQrnMYYY4wxplGscBpjjDHGmEaxwmmMMcYYYxrFCqcxxhhjjGkUK5zGGGOMMaZRrHAaY4wxxphGscJpjDHGGGMaxQqnMcYYY4xpFCucxhhjjDGmUaxwGmOMMcaYRrHCaYwxxhhjGsUKpzHGGGOMaRQrnMuM/fv3t1asWFE0L774YvLz9ddfF+9fdtllM35KcF9+X3311cp1Nl988UXr7rvvro2TtM8777yZ+1u2bKnuzOaHH36YlR5x5pDWrl27ZsW3bt26lB7hjTGmXxjbGEsYV0povCmNgYw9Max+dzIaH+N4lxvBeFe6z/jIeJjDOPjkk0/Oiptr4mEsNmakTJtlxZ49e6ap9pLhHkxNTRXvy+zevTv5i+Rh1q5dW935haNHj87yEw3hoZT24cOH073Ivn37ZvnZvHlzdeckk5OTs+7nZmxsbPrYsWOVb2OM6Y04hpbQPY2nkTxsp/FYRvGU7skIxsHSfUw+5jEe41byK1Mae40ZFM9wLmPa9T/LbNu2rbrzC20FMN1rD1StHTt2JLedO3cmO7J3795kt5XRZB86dOiUN2TdGx8fT/ERL/G3B8nkntMeDJP91ltvJTvy0EMPJbut2CY7QrobNmxI19xvD6wprRMnTrTag3dy//7771t/+tOf0rUxxswHjLkafxkLhcZdTD4uM4bpnkwOY6rutZXG5MaY134RT9fw+9//PrkxzuJH/vGjsXfjxo1eDTIjwwqn6YmVK1cWl63Fc889l+w//OEPM0rgX//612SL48ePJ/vcc89N8cHll1/eeuWVV5Kd8+CDDyabuOOg98knn7Q+++yzNChu3bq1cv2FZ599trpqtV5//fXWxRdfnK7PPPPMNHhPTEyk3yjJHkyNMUuZNWvWnPJSz9YqxlB44403kh+xfv361ssvv5yuUUiPHDmSro0ZFiucpieYNbznnnvSNTOUkQ8++CANTCiaKJK8FYNmE8XVV1+dbGY/2ZuJ4tiJG264ISmVxP3RRx9Vrr/Mpm7fvj3ZOSiZwCCLkplz0003VVet1ldffVVdGWPM0oO9pBozV61alWzGYBGVTXHVVVdVVy0rnGZkWOFcxsRN5XUb4K+44op0n4GKQQoF8G9/+1t19yRa8v7P//zPZP/ud79LNm/QcaP6HXfcMTP7yQBI3GxQR2GtQ0rlCy+8kGxmJDWbevvttyc7R2/uN954Y7JzTj/99OrKGGMWF3feeeessbt0OInxVfdvvfXW5MbKDrOXoHG5bjtT6UXdmGGxwmn64h//+MfMEjWgAD766KPpevXq1cnmvmZB33zzzWQDg9g777yTZj51H+XwmmuuqVU6NRvJAMosKzOdzHgSPsphjDGmDIrlI488Uv0yZn6wwrmM0SZxzHfffVe5zobN6xy20Zvwb3/721n7HuNSN7OgeqvWLGO+rA7so/z0009nbU7Xfs0clnuknP7zn/+cmeksHVwSivPtt99Ods5PP/1UXRljzNyTb0vqh/zQ0C233FLd+QXGa+7pwBAv7PHzc2effXaytdSe473tpgmscJquMDP5xBNPpGtmF1977bV0DfG6BIpn3ewlyzuPP/54uo57inJYQgJOpmuA1Cn0EhqADx48WBw4X3rppWSjmJYOKxljzKBImYwv40JjzzAKZz/wwq5Dkg888MDMeMjEgSjtpT9w4EB11Wpdd9111ZUxw2GF0/QEh4H0WSQGLmDw0onw+FkNGc00ao8n+zV5y9bnkrA1ACvuEnFPKOhwUh2bNm1KNsoxM6dKD3n5yLFklrJrjDGj4uabb04240zcX8m1Xqzr9pc3gfa6Mx5KkdT2J+AwaFQ6kVNfJGGm1FuXzMhoKwZmGbGnw4eG20pf8jMVPr7OteAjwHLnw+r6+Hpbsax8zKb9Zj3rPrbCR4M7HyGGurTHx8dn3ElbKD/tgbFyOYnSrjO5f2OM6YVOYyjj2IkTJzp+UL39wpz85NSNfSLGkRuNn4xr/M7HN9LEnXFUMI7GOHKDX/9zDDNKPMO5zNBnMTpx2mmnVVezr+N+SpbStbxd93kiHfjhzZo3aA4cMZPZHoyTOzbLPe+///7MW3RMT/uMQHs2CRM/2XHGGWdUV7Nhgzx7RHlDj/Abd779aYwx/dJtDGULEv9sgrEtLp2zMsP+Sz7bVjoFXjfuihhXHRoz49gJWlZnlUgn1NnS1FZsZ43JIDnfe++9jitJxvTLCrTO6toYY4wxxpiR4xlOY4wxxhjTKFY4jTHGGGNMo1jhNMYYY4wxjWKF0xhjjDHGNIoVTmOMMcYY0yhWOI0xxhhjTKNY4TTGGGOMMY1ihdMYY4wxxjSKFU5jjDHGGNMoVjiNMcYYY0yjWOE0xhhjjDGNYoXTGGPMouCLL75orVixovXkk09WLsaYxcKiVjgZeO6+++7qlzGD88knn6T29Oqrr1YuywP3ocXHeeedl8xy5OKLL27t2LGjtXPnztbXX39duQ7PsP1gy5Yty7ZOTPMslefTolA4KeS6wj5+/Hh1ZRYamo0YdCAnHOGJZ6748ccfq6vlg/vQwqKbQvn9998ns1x57LHHWmNjY61nn322chkNw/aD5VQn69atS2Mztpk74vNp2OfrfLAoFE4V8nJUBkrwMOKN2hiz9OikUGpWj1m+5cqZZ57ZeuONN1qPPvroSGc55wJNnjBjNSxSOF588cXK5Rc63RsFhw4dmmUb0wvew7kIWSxv0ix/TU9Pt5555pnKpT8IR3jiMca0Wn/961+TzZLycmbNmjVpbFi5cmXlsjgY5aTJzz//XF2dSqd7o2Dt2rWzbDP3DPt8nQ+scBpjzCLghx9+SMvJu3fv9kuYmVfeeeedpOxgG9Mry0LhZGmBpQyWGbQvEMN1aUmGgZ2liMsuu2yW39JeQvzu2rUrLXPjD5vfuEc++OCDmX0vGK5xE8hBuE5pch932Lt37yx/kf37989KizjJTy5THaX8Ex/x5rC0j0FO+UdOwe9cvrzMcqM8I0P8DXIjDk6qKo68PEUv5dqNvDzr0iqBf2RmCU1x1LURkLyxbJC3tASnsicMfqL/fvIH+CeubvJRFvKHUdsyzXPgwIFk33HHHckWnfa4U1fUZ84o2pnaCIY2oLjwW2p/8tfLuFJHLnentloi9kNMt7D4j3ketL0jN+HvvPPO9PuKK66YiVNl1U89IgdxAHEqLsJ2uieGrQuVIWUjCIsbchJ/rCfS6TQ+d6pP1YH8YCiPPL48/fh8IP1S3nAjLsWLf9Iqtd9e2x5yxThJm7LO/dWhOlQandobfmIdLHjabykLnj179kwjKnYEt82bN1e/6sHf2rVrZ/wTDza/x8fHp0+cOFH5nE7X8jsxMZH8Yo+NjSVz7NixyudJv7jlfvkdZeVaaXGN4Ro3ofjzeHCTfFNTU8W4Dh8+nO6DwsX7yg92zGuJmH+V1e7du2fkJf4IfriHnNG/UDwRlb3yqt+ky2/JyDXu5FvIDb+kSVoY3DCxfqCXcgXSwB0/EfmPeVNZxHKvA395eep3XpZHjx5Ncume5JXb5ORk5fMkxKeyV33v2LEj+eV3L+BX8XeTb9++fcld9YRRWXBtRgPliekVyr6uDtS3IsO0M7URxYsd+yLx4M7v2L/6HVdKSG6lRRxq78TdDfVxhVf6kgG5IpQD7twnLYzyQNiIyqMTsdxU7ph8vMPOyeNHNpW1yhNDGXW6B6OoC/wpvCAeuVPGuo4mjuWM1XX+iAtUB3UmjsExfeUvN6VnZckgV3yW9CIrRBly00sbVXi1OWQkXdVNTAtwi3Ww0Ol9VJtHVAmDFjb+MPlAqsGKB6lQWrlfOivusTPSSfPwQONUx6Jz44cGEwdgiGnkcYDizxUb3Er51oBKw87TKuW1hPKfDzrEp0avgQuQAzfiL8G9KGupHEHxRCRLHKTkludRylD+IOi1XFV2sY3Jra4sMN0gPCbWdSzLmAeVQV3bY+CJyH8un+q6V4U4T7NOPsoj1j1wH3+9DKamN1QnvaI+EduuKPWrUbUztZG8L+IP95IyUNeXuJe3rRzkQLbcn/p+np8c5SOOJ6Sv/sJ9gTtpdRpLo0KiuLuhcogyiH7rsTRmiU73lM4wdYEfTCwzxYuh7FT/1Ivc43NC7QSjcZoyxY/kJiwyYaseiLcUX0w/xhnTJy5B+sgf26meDTE89CIrv+UHd8mr9onp1EbV5jCxzVEXtEPCKy2BW6yDhU7vo9o8ooY0aGHX+VOnjI1WFcu93OAeH6zqnJ1QY89l7wWl2Wu+1SlKioYeJt3KS3mKDV6o40R5iK/OP+RpKk+5jKrjONDJjTCi5Aakn6dVR6lcS27xhYL70aid1OVb1MmkuIkLNFjF9hWhjUb/oLLP0YAc81IH/nqRrxN1cpjBoCz7KU/1iVJ953Uzynam8SZvI6X21++4kqP+jdykF43C02briOFzSmOH8kAe8/RK42yvfUB1RTw5/dQjEEed/073hq0LwA8mlpnkx+Tje8m/3OraYidK8cX0yUeENHSPPlCHyg0Ty0BunWSN6edpyD3qGjlqc6V2XOpTgFssg4XOsj40dMEFFyQ7fn9Nn3lgD0xu4PPPP082fPbZZ612ZVe/yrQbXrJ//etfJ7sT7Cdh3wn7PzD33HNPdac3tO/k0ksvTXZEhwyQuRPcb3eq9OmRHMXx5ZdfJjtS8l/itNNOS/aHH36YbPHSSy8le9DDEJ3SH7RcJeOtt956SltQOxn0iwFnnHFGdXUStcGNGzcmO+eqq65K9rfffpvsTpx++unV1eDk8gn2MbGniH1DKs+DBw9Wd81CZ5Tt7KKLLqquZlNqf4OOK+Krr75KNv0u74v0T2i/rCa7hMKff/75yY6UZDpy5Eiy+fRSnh5u8M033yR7sTFsXfRCtzEo7hXeunVrdVVG+yy1dxLTjfw5EtNQH2BPJWMZcSte6jenV1nffvvt6qrVWrVq1UycUd5O33pVmyuNvaMY0xcCPqVeQ/tNp2jef//9ysfooOGzCXvDhg3pcyccCMIsxW+cMRAw2JFPNlyrw5PX9ptd5Ws0jKpc22/LxbaAGVRBXoww8DOQchCBj26rPJfTB6/N/MLYUeqHmImJicrX6CDOUlqYG264ofJlmoKJAsbvYceZ0ueobr755jSWEfdccfbZZ1dXy5NlrXDqjSIqDePj48m+/PLLiyb6HRsb69pY9bby8ccfJ7sEp09Rgpgt5S19ejptdUiDWj+oMStfEc1+XnfddcmugzwhS+lEneK48sorkz0IvC0SPwP566+/njo8b9x79uxp3XfffZWv0TBsuaqusUttATMqNPPLB61LfPTRR8m+8MILkz0f3HbbbcmenJxsnThxYqY8u83ym2apm40uMV/tbNhxRWMbM5Slfojp9E1OrWaVZm5LMvFiBcziltLC9Lqq0yv91OMwND3G94LqA7S6VYLPgAHP5TiGd0P5ELG9kzb3KQPYsWNHWomsezb0KuvVV19dXZ1c2ZSs0XT6ZqZWJkvK8U8//VRdLW6WjcKJYsgMTeSpp55KNm/NgrceKH2KgEYap9e3b9+e7Pi5CWDZUf5Wr16dbGbv8g4uedTA7r333lkKbZ2SyoBRWsbctGlTspWviGYP5acO5em1115LtkD2hx56KF0rT4OgPN1+++2tTz/9NHVC7G3btiX3UdJvueaoXWgJLUJ55O1pGJCPQZVBMLYxoN0xo8j9mI+5hhkGymT9+vUzD1vaerdtGqZZ1Cbikh4whuUvxPPVzoYdV1AmkYv85HIDn6KhLdZBe1W+ozJC+hrzI3r4P/DAA6eM25CP+b0ipTLKIPqpR9DLg14SIp3uNT3G9wL1oRdV6kTliQzkV89fzWqee+656bkHvZQ9W3702STGaSmXjF+kHT+Mf84556T2Rdqlcu5V1jjjHf8LFv6QgdW2UtsVeslh8oUwgrZStwVm0dF+4C94tBl30A2z+Gs31hn/xIPN73YDrHydhI3UuV+MNtPHzchsDJZfNpLjDxu3KCubgPHTHvBm4iNd3KD9VpWuCYdf3VfcMS6QLNiKTyjemBbXuCFbN2KelH9kklt+yk7lWIfiEcprbpCbdOJGdtLmHmFEyU3gXkqrl3KV3+gGyl8sT9Vxpw3gIpdJEA/3Yj60MRwT2xO/SS8eqIK6sq/LSwn89Sqf0sOO5aDyNKOBssRQxrmhf5ZQH1fdYFMvco+Mqp0RDvfYRqDU/vodV0ooXozkxmjMy+XOUb5Jk7SVvsIjV0T5k3/JTJniFqkroxxkVJzERz5infZTj8A93JUf8ijq7o2iLvCn8ELlhcnbRMm/yqJkiAvULutMXfrKS26iXCrTOiMZoBdZoZu8ebnkUA/4QzbiVXxqozEtwC2WwUJnUTwldHIuP3mGWz8PfTqcGhkNksotndTDjYqODZLwpY5IQ5QCiCFMPogADaVTfMimRoUhTuLgOs83aRJefuN9ZM/TIt5eBhFBuuQhdlrkKXUW5MBfHQorkB3ZkAk5ZZR3bIE7boQRJTeRpwW9lqseZnlZQ5QPI9lLbSdHaebU5QM58K+0KNtSe4K6su+Ul5x+5FO/ULugHkkDv53agOmP2HdzU/fAon3EdsM1dYdd10aGbWed2jDu3I/0M67UEfMkufuJo+4ZoHhy8B/HWsKWyqnbOBhRf1F8cRzptx7z/MRy6HRv2LpQvLHMeMYorrxNlPyD8qZw+EMulQl2VIax+a22F+OTG4a8E49+M2bnecvLmrQZz+SWj5/dZBWUQ2wzyEy4Xss2bx/IQdr8zmXCLZbBQmcFf9pCL2k4JdZuAK1XXnmlcjHzBUsdLEm0O9DMsqxgyYEli2XQJI0xxowQlrY5EwBt5S7tszULC59SN3MKe8T4vEWubLJn5V//+lf1yxhjjDFLCSucZk6ZmJhIh0z4X7F88oK3Uuxrr7125rS6McYYY5YWy0bhXO7fv1oo3H///Ump5NQh38ZkCQR7fHy8dfjw4UZOqxtjjFnaxH94olP6ZmGxLPZwGmOMMcaY+cNL6sYYY4wxplGscBpjjDHGmEaxwmmMMcYYYxrFCqcxZmD4V21851b/3s0YY4wpsegUTh5ufDzcDM+wZblly5b0Tc3lQhP57bUOFmpZ83Fl/qkC/3O60/+yNksbXjhoy6X/Eb6Y6LU/+jm0MGmqHS63Z11TLMoZzuPHj1dXJ/+xvTv/4MSyHITvv/++uloeNJHfXtvzQi3rJ554Itl81N8sb37++efq6uR/FWvi4T8KOvWzXsfEYcfO5QqKW9PKW2yH/Gc76hp7GJbbs64JlvWSOo2eN5em0eBWWnbsdG+poA7P8uuwdIprOZTlXNNLma5cubL18ssvtx599NH0H6OMMcaYnEWvcF588cXpf28/88wzlUvvzNUbS3zbyul0b6nw448/VlfD0ymupVCWw7TnJui1TNevX5/kzv9lqVm+0IZpE7TphcZC62fLie+++y6ZueKWW25JdY1t5hcfGjLGGGOMMY2yYBVOlkzXrVuXlvMwu3btql2u436+F4elQO0hwvC/u7WHg7hwg7179874iXHwm2XE/fv3p6V3fnMNnfaE5JuLSfeKK65I1/wbR6VF2E73BHlGDvzqPuUiWXqhn7IE/OdlN8gyNYdICE/egLwqTuoHei3LbnHNVVnmKM5Yvlx/8MEHlY/+IY7S3jIgPbVfpVXaXlDKK3Gq3AVhuYfN/7TnmjLvtUwpO+pJ9wZtK6Y7tKm8neV1r/ahMQu71N+pt17abD6ORhPHuRK0A/zlbY6+3IuMCo+72hjtK9JrPkrgv66f9Qp5i+2f+EqH5wbpj/Qz+e/Ur3otz34gLOOB4iR9ylXjdZRbbnFcEPnzEEpusa5junX1WSdfCZVpSb4cyjK2d2TN6yjSS9mTB9xL9aF8x37MdZShU90vOqYXIFNTU/y7zemxsbHp3bt3JzM+Pp4M7ps3b658niR3O3bsWAqr8Hv27JnesWPHjB/ix41wxMk15vDhw+k+cG/t2rXJnpiYSPFMTk6mewqLnUMa3BOEITxu3FNaR48e7XgPTpw4MSOD7qsscCNsN/otS2TCPZaLZCBsJM9rCcLLH/IqTvKm+9zDzsnj7xTXXJRlLg/QrnDDVpyUNW6UfTckT6TkprSJW3Wj/GKUT4h5VTlhq0/QP4TaB/7VRvDbS/vct2/fTFjdU3lybUYHYxPlmvfLWM7Uu9perPe8PvI6jf0gjoGKT+0Cv/JHe6f+Bfdwj22+5EbbyeNUHyI/EYXHXfnGr+g1H3UobKTkVgJ/Kmulj81vZKDsxKD9MfpXWvTJSD/l2Q/Ki/KmOFW+pXrGzlE8kZKb4kBm5QWDGyaWEfQjn8q0JF+k1H8kj9wjvZa98hb7i0Bewot+nr+LkdkluEBQY4qNhsagyuR+JHdTpXUbdEpxCe5hSo1EDQg7R7JHOjX4TveUDo0/QlmoY+nhX0c/ZakORwPnOiL/seOX8lpC+YgyCN0r5b8Uf6e45qosI7S1vKykHPQyQOAv1gGU3JR2Lr+UPupHKK+lh1Meh8oMU8p/pzLlXh6GssB/HHDN8FBnlGve1iJ6QOdjFn1W/UX1WdcPMEJtK7Yj/DFG5O2z1C9LboQjfN5uSmkpPDLl+e4nH3UQvpe+VwJ/mLyPaZyMdTBIf8zLSH7zftVPefaKZMjLgXGNtLhXqmfsHOLgXqTkpjjyZ4/yEcfSfuWT/5J8kbp8yB0T6bXs6X/8zusur3/1rV6fv4uRBbekzrQzy9ztQk/f+BMcRnjssceqX5258MILk/3UU08Vp7F7BRnmc6Nxu5Ml+/7770+2oCwefvjhdP3uu+8mu0S/ZXnkyJF0kOraa69tffXVV2lqX+acc85JftoNPtmLjWHLsg4Oy+QHZdasWZPsDz/8MNmj5JFHHqmuTqL2GZeLXnrppWSff/75s+pQB4Dee++9ZEcon34Pd9Cm8jCURXsgbh06dKhyMaPgyiuvTPaf//znZJdoPxiTnY9ZfEVA/f/AgQPJJr7YNujv5557buuzzz6bGTN1QO+qq65KNlC/119/fevgwYOVS+9oPPq3f/u31BZj+uLTTz+trn7h+eefP6WP9ZOPpqCd0/8jWqL/xz/+kWwYpD8+/vjjs/oW14zjsV8NWp7dUNnee++9yRaMaw8++GD1qxmefvrpWXV9ww03JDuOpU3Jp3ratGlTssW2bdtS2Uf6KXv6n8bEuN3iL3/5S7Jvv/32ZC/l569YcAonBQ10zpx80KmDzskDlAZx1llnpT0VsSH0SkmGuYRBk4ZeyrcGoy+//DLZJfotSxo88Hkb9u5Fgxt88803yV5sDFuWnaBtsceG/T4ycwn5il9c0EMpr0MMfP7558mOnHHGGdVVfzCAkncetMr7IMqI6QwPXh5aO3fuTPvB2L8WH15AG8dPJ/TgvvXWW09pG2o3aktqExoXQA9alM5+0XhEOnnayANHjx5NduT000+vrn6hn3zMJRdccEGy4zc6B+mPJfJxfNDy7IbKtlTug44Tg1Iar5uST/VUSnPYsv/jH/+Y7MnJyWTDc8891xofH595/izl569YsqfU77vvvlThKJ5ULJWG4mm6MzEx0ZqamioavXGak9CmaFscquFBLLMQKNUf5v333698DAcHNlatWpXyzkfflff5eNAvdXgIvvLKK63Dhw+3tm/fnhRPyn7QA2/79u0rtg2MHoDq6xs3bkwKLi8WzL5APrvUD7wgldLFMPb0Qy/5WCiUZMQM2x9HWZ6mP3ote1YJxsbGZlbaOODEOKnVtchSfv4uOIVTb4jffvttsiP9LpEw4EjxpGHwltDpxFmvzNVbHg2UN6hSvpUPLbWV6LcseYDBRRddlJbgSqb09jcMi6UsSxCONsVbKorA9HTaE53MXEF+yBcyCF2X6g8zqgfxbbfdlmze2k+cODGT926zbGZwWDZkWwVjGm1adQD87vayo7rHLrUNjHjttddSnCi4bMHhxYLlatq6to30w9lnn51sZotK6WJYfuyFfvIxl2iWKvaxpvrjKMszcvXVVyf7p59+Snak9B3kuZ717Fe+XkFHgNIzIn+G9lv2PDfpR6xC8Nx46623kvvq1auTDfPx/J1rFpzCSYHSQXmIRuWQRnDzzTdXv/qDOHlLz2EwHWT5TwPE22+/nWzBDEBpwD/ttNOS/dFHHyU70ukeDRQY+COUxUMPPZSuY4PN6bcsL7300mTzf7FLna6Xz0qU0IAUZRD9lmWnuJosyxLag8WDOD6AB9m+0Sv5LL32M8X61DVlmEO59SNfpzLlDZ1BOu5jZZmXQdU0C/2G/WMRtfG8n1InqnM9VLVEF6EvxBlT+iTL9+x75kPdvEy88847AymbwAOY8Yh+XWqDzPrk2wTq6CcfTUE+8nS0D1DywSj7Y2SU5RnhMzygvAjyysx6Tr9j+LD0K1+vaPZeY6pgzOUZGhmk7G+66aZkv/nmm2nVdceOHbOU0qaevwuK9iCy4OC0GaK1FcJ0Og3DdbsTJ/fN2em03I1TZfglHNcT1QlP3CI6+YWNP4wopRNpN7YZP4TDRka553APd+WHPIq6e5xI0z2lw3259XICsd+yJI3oX2mSL9wihMVvN45Wp/EIT3zURzxt109ZdosLd+4rr6Msyzy/OlWIG3IQp9oU7vjvhuSJlNz4rTrAVt6VViyDKBfh8Btl4xSlmOrhBKfiysuUuGMayINf+TejgzKOdamypz5EbONqj6qTWL8Kq3YU/dFGBO74yw3hYxsC+aU9iZKb2htGMmI0HtG/RSl8pNd81EFY4oiU3ErgL46hpC158ufMqPqj4o/0U54aO3spm055w87rRGN19E+e5R4p5YMwpXhB8Ub6ka9TmUZK/Qf56/LRT9kLxYMpPXMIzz3SpG/zG1tyLHYW7FOBh5oqR4Wvjpt3GPxEN8Kq0hWeBkH4CA1CDRUTO34eZw6NUwOG/BIfdqlh5PmJHaLTPdLRIBrTin660U9ZAv5juRAWGaJSA/ghjl6g4ygPxBfrot+y7BRXk2VZyq/kVHy0O+LDL+7dkAyRkpviy9us3HIoE/KqssAQLh/kkJV7uQIRqStTpRHrgnhUP2Z0UKaxLrnGLSdvj/gr9V3CxjGSa9xiX6KtUI/Exz2MHn6E4VpwD7fYFktuIBnVbpRG3g/rwkfw0y0fdeCfdCMltxL4o63nfYOyLqU9iv6I/1K/6rU8FTfxdEPyRlkJrzrJ4+5nDC/lo1NdK75ILp/GXcotj0f57jTGCcIhn+IlXeVtmLIXymcpLtHr83cxsoI/7UwZY4wxM7Cczml0DitFWO7j6x/th+Ip98zChSXnDRs2pINWg37uj2VythC1Faq0p9CYfliyp9SNMcYMBvvS2KNbOtDirxAsTnTA0V8aMfOFZziNMcacAocz9P3arVu3Jje+VcuBB5ROz3ItHniB4PNthwf8woDwDKcZBs9wGmOMOYW///3v6ZuA//rXv5KSgUHZZDn26NGjVjgWEc8880zaAjGMshnR1yuM6QfPcBpjjDHGmEbxDKcxxhhjjGkUK5zGGGOMMaZRrHAaY4wxxphGscJpjDHGGGMaxQrnMmDFihWtu+++u/rVP1u2bEkfgY6U3Phfr6S1JP7nqzFzyJNPPpn6E/2HviX4X9vr1q1L7tznfzT3C5+yITxxLRVKY1rJbaGxGGRcbLhMFw9WOJcJx48fr64Go/Sx59ztxx9/nGUbY7rDC9rOnTvTf/XZs2dP6+yzz67utFq/+c1vWp9//nlr9+7drQcffLD1f//3f0lxHOQh+/PPP1dXcwuKcv5yOgpKY9qw49xcsBhkHIb5mHiIZTpo/4BhwpruWOE0I4OPQsN1112XbGNMd/bu3Zvs//7v/25t27YtfTMR9N9+UDTvu+++ZNavX5/uGWPMYsMKpxkJ/H9l/nXajh07iv8OzxhThv/mA2eeeWayxbfffpvsM844I9mC/sXnk6WYLnS+++67ZMzygH8MQPsc9P+1D8sw/WOx9a3FhhVOMxJee+211tjYWPrPJMaY3pHCmXPs2LHqyhhjFj9WOJcQLMHpgAFm165daeaxDvyzV0X++d/JHDAYhAceeKD1+OOPt1auXFm5nETxlw4s4F7aK7N///5Z+ZBceV6Qn/vY7BfCn/zrcAX3OISBO/vI6vL39ddfp/LSwQ0MshHemH5Re1KbVHuK/UCHeYT80f6x+VeSgM1v4hL8zvsO/SMePor9oATpqG/If6l/4AeD7MoPeQPSjP0GW/cEYXHvBnGRfuz7XA9yUEpojMvl6zQuRpAnr0PqNjLs2NFLW+kE5RPLLJrYRrrVYy9lT3y6H01Mh3zjlu/h7LW91UG8Ub5O9ch9yYQffpN2CckkYlihsqOuYhlwXaqnYfKKP/WX2P6w6/bFqp13S0/5KLWBOWHaLAmmpqb4F6XTY2Nj07t3705mfHw8Gdw3b95c+TzJ5ORkcuf+nj17klm7dm1yI2yEsHlTKbmVkD/ky8E9l2tiYiK5l+TCPnHiROXzlzzjHvPNNe5cKw3iUVlwHTl69OhMGNLnPrbcKCtj+oG2g4ntibaEm9ow7Zd7uKtdYmiP2Oo7ar/79u1L4UDukdz/jh070m+1+9gHiQs3+o7SresfxMc9ZFfcGiPUN/N+E5Fc3ZC82EqDuHDLxw/ciDeSu1GOuCE7cRGnZMnDlsjHD34TV5Sl37GjlDZ+MTE8/nCL410JjYHIlZcZ14cPH658dq7HXsuea+7LxHBCMnFf9NPeSihOZEI2DOEVR16muRvXuFFfkWPHjiX3KH8pPn6r7LBj3vkdGTav+FH4mF/VRxwHoN9nufLBNX5zP01ihXOJoA4VBwcGK3WK2IFwp8HRKPMBTf7piEJxR0puJUpyiVwuDSqd5IqdLQ5CcSBRB8TEAV+DC/FHJGP+cNADi/iN6Yf8oQAM7LSnqAQAbpgcPXiwc3Av9Z3oBqSlB1Xsg1znD1/6HP7q+kd8KIP6U7cHlsJ3g/6X93vkL6WBW57X3A358rIGPYzztHJ4MOdlkaO89Tp2lOTup63klMZrtYW83UjWvB6hn7KPUD7ksVv6/bS3EpI9tmHCK/95meZu5A+3PC9SDmP9leJT+rwMRJR+rKdh86p+j99YJ6U2xX1+536h1DaUj1IbmAu8pL4EYMmAk67tRte6/PLLK9eThxAee+yx6tcvHDlyJJ1+vfbaa1tfffVVmo6XOeecc5KfdiNN9lyi07rInB+g4LMxID8RlvLjQaVLL7002e3ONetUL8v9lNGhQ4cql5PLWSq7/AQwcbY7ZiorysaYXikdmLjhhhuSTf8bNQcOHEj2vffem2yxZs2adMo9h3Ei9hmgz9FnYv+I5GMJ/an9sEufcup1+bcT9L+83yM/fPjhh8nuB+RT+MjWrVuTzdjXCb62QVnULemPauwYpq3wOSDSj1uZ9Az46KOPkp1TeiYMUvYs2VI+HLDJt1LlDNLeRL/PtxJXXXXVTFuNPPTQQ8k9r786HnnkkerqJGpLsZ6GyWvk6aefnlUnxEkctCn1t0Gf5b2W26ixwrkE0MB5/vnnJzuSDyKgzsGp8iuuuGKWwQ2++eabZM8l6kRSGCPqwHUHLCKdBr+8jPT9to0bNyY7h4EKdGLYmF5hHxd7KrVv6p577qnujB4pBaeffnqyI/kpd4HChNLA3i/JePDgweruqZTGkpdffjmdQL/kkktSePI8DDwokUnyYIYBZYV9b+xTU3y7d++u7naGl9zx8fHWNddcM7N/Lu4ZHOXYMWhb4ZutKDFRLinISj+nVI/QT9kzVrO3GCWw19Po/bY30e/zrQT+tm/fnp4f5BPIA79xH5RSf4NB89qNq6++Otn6pu6gz/Jey23UWOFcxkxMTLSmpqaKRm/Yxpj+4OHP4YYNGzYkpYXZGUw/sxtNg4KzatWqpDQ8++yzMzIyW9IPzAz97//+b2vfvn3p4U2eyXtUgHoFpZAHJTJJHsygoFCgCN96663p4av4enlpBV5y33vvvdbk5GRSPImH+PRiPAqGbSuaYWOGCwUHpRUFmFk74uyVfsv+rrvuSvbzzz+f7G6Mqr0NA7ODoHy9+eabyb799tuTPSrmI6+L5VluhXMJcMEFFyS79CZdGvjpDHDRRRel6f+SGdUbUPyvKd2Q39Iykgb5UX9U/rTTTkv2G2+8kewcLUtdeOGFyTamGyxvozDwgDt69CibF5Nh8G8KzXz89NNPyY6U/vPXbbfdlmyUqRMnTszIqIdyP7CiwCzXp59+mh585F1L/L1C/0YpRLE7fPjwjDyYQWEmk4c8NsuKii9fVu0E4yBK9SuvvJLKSvHBKMaOYdvKU089lWYZGRdRcFBaqYv333+/6zK36LfsUWyRmXLMl47rGKa99ft8q4PnGnl87rnn0m/k53eveeiVUfatHLU1PSvn8lk+CqxwLgFoUHQcBoH49k1nvPnmm6tfv6Alaz5lVOqwdZ9eGAQt63z88cfJBtJkqSFn06ZNyWYQzdEgLz+jgsFGZaelFkFZ8obaxKBkli5S8NhPGdtN7AOjhiVfeOmll5ItmG3R/ucIipP2HuqBxDJgr7N/ddx0003VVX9oiRClKe67zPtkP2jJ+4477phRvhh76vY2diNfoh7F2DFsW2HmjPGcfZRSbLjuZ7zqp+zJF/5oO/xXrF4Zpr31+3zrBLIjC0ozaT/88MPVndExqr7Ftor4fKY+KAPKQu15Lp/lo8AK5xJBSxv872WWVTAs/5SgsfJ2R8fAD361HMODq6QMDoqWdejoLNuQDss/pVlMOigdlUFU3xHDcM3gzewJfkaNyo4lJcmITdmwNPW3v/0t3TemF379618nm6VN9S2WTXkoNIX6Dv2E/WKkiU3/wz2H2RYeXvJLe//Vr37V138E4gFI31SfIa9azl29enXlqzeYxSIcyrHiYxyiT+I+CDfeeGOy43Iz170+hPkWIjIQFkNY0DI2DDt2DNtWqEfqXN9fxEjuXr9f2k/Z68UfRUflItOJYdtbP8+3TvzhD39INs8j6Led9sIo+hZ8/vnnM89nzG9/+9vkHrcxzOWzfCS034jMEoFPM7TffmY+ndAeHGY+m1D6DAL+250j+ccQls8+xM8oAH6II1Jyq2Nqaip9tkFykUadXLi3O9BMPjCEncw+OwLEy/3SZ0VwL+VZ+c0hLvwrTcmZl4UxvUDfUptXW6QtcZ23V9paqS/pky29tm/6Dm1WaZI+7VrxxE+1yC/pco/+hj/6Xi5LXV8nP3H8wCBT/kmYXscKwsU+KPkJn+dVaUVKbnEsQQbGROqG37mcOcSl8sEgD2Fz+hk7uJ/L2E9bySE/+MMmr5hYr1HeTvXQa9lHP7kRhON3lL2f9lYHecnrsu45gp/cTajN1t0v3asruybyij/CkV/i4RqjOimBX+VLaZbaYKc2MBes4E9bQGOMMcYsElheZlarraCcsrzN7Can60v3zMKGGUpmYNvKZdqDuZTwkroxxhizyHj33XeTrYMjkfn4rJ0x3bDCaYwxxiwytD8eO+415ZpPOI2NjY38kKUxw2CF0xhjjFlkcGCEZdcdO3akg1Asw2KY+ZyYmEifWdIpabP40Ge3lhLew2mMMcYYYxrFM5zGGGOMMaZRrHAaY4wxxphGscJpjDHGGGMaxQqnMcYYY4xpFCucxhhjlhV8Poh/Axn/N/dCYqHLZ8wgWOE0xhizLPn555+rq4XJQpfPmH6wwmmMMcYYYxrFCqcxxhhjjGkUK5zGGGOMMaZRrHAaY4xZ9vzwww/psM66devSgR0M1x988EHlozMc8OH/mCvsZZddlv7lZGT//v2tLVu2zPJDmt1AjvPOOy/JmKMDRp988knl0krXuSx5OvF+NLgL0iz5iflSWvKLvWvXrqKsZnljhdMYY8yy58EHH0z/i/zSSy9t7dmzp7V79+7W559/3rrmmmtmKXMlvv7669ZvfvObpIgRjvDXXXdda+/evZWPVrq3YcOG1rfffpvuY4A0uymdW7dubX3//fetAwcOVC6/QHpjY2Otyy+/PP1Gqb3iiivS/1RXOueee25K58knn0x+ACVR9zH8T/acl19+eZaftWvXVndOgpKttCg//Fx//fWtRx99tPUf//EflS9jKvhf6sYYY8xyoa0YTfP4m5qaqlympycnJ6dPnDhR/TrJ4cOHk7+2Ule5lCEs/vBfB2kdPXq0+nUS0iNcW5GrXE6Sy3fs2LGiP+LDfWJiIv0mvrbymfzleWkrlMkvcZUgDGHr7uOuuAVupTzjh7RyGczyxjOcxhhjlj3r169vnXnmmdWvk6xZsybZH374YbLruPDCC5P91FNP1S4lMwN58cUXV79OQnqbN29uHTp0qHIps3Llyhl/zKaKv/zlL8m+/fbbk33kyJE0E3rttde2vvrqqzQzK3POOeckP20lMdkRZliJ+5lnnklplfjTn/6U4n7++ecrl5NyqYwizMgCMhgjrHAaY4wxbVDMUL7YZynTCyiSLG2zhH7WWWelPYylZXiUReJnOVvxHzx4sLrbmT/+8Y/JnpycTDY899xzrfHx8RlFFoUTWNJmqTsa3OCbb75JtmBZnOX2tWvXtm655ZbKdTZsByBv5DFXmlGwuU+elSf8GXMK1UynMcYYsywoLamzLI1byWzevLny1RmWuFl+Z+mZcFrqBi2715lIST4tl7cVzPRby/379u1Lv0HhSJewJZMvc2v5O1/uF1pKJ908LGGU15IhPWOEZziNMcYsa5jlYwaQ2cK2Iof2N2P6gdm/++67r9VWxNKMIXHq31PedtttyWaGsq24zcTPUnkvsPy+ffv21meffZbifOutt5L76tWrkw2rVq1K9kUXXZSW8EsmbhvQUnpbUT1l5lJoKf1//ud/TtlywEwm97BZqleeiM+YHCucxhhjljX6F5IsLcc9iaVl8V5AMdu4cWP16yQoZiihca8oS+wokL1y0003JfvNN99My+mcLI97LjlhDw888EBxLylL3yIupW/btq1ynU1cSkdZzTl+/Hiy77jjjhk5SPejjz5K18ZErHAaY4xZ1lxwwQXp00I7d+5MexG1z5K9j7h3A/98K5PPDnFNHMSFMqeZQx36YY+j/PzqV79qfffdd+l+L6AMMwtL3CiwmzZtqu6cBKWP2UXuXXLJJTPyYPMtzviNTe2zREnFTzQi+o/3+fQS3HjjjcnmkBLupMN1VGyNmWHaGGOMWUZor2Pct8i1Ph2EYW8jexDZv4l7J9hPiX+FZV8j+yjjnkeucdOeR/ZEsv8SWXCLlOQTupeHiSAPckse0iJt9mOKmNfcCMmam7inFXmIH3f8s4dV+0tL8pvlywr+tBuGMcYYY4wxjeAldWOMMcYY0yhWOI0xxhhjTKNY4TTGGGOMMY1ihdMYY4wxxjSKFU5jjDHGGNMoVjiNMcYYY0yjWOE0xhhjjDGNYoXTGGOMMcY0ihVOY4wxxhjTKFY4jTHGGGNMo1jhNMYYY4wxjWKF0xhjjDHGNIoVTmOMMcYY0yhWOI0xxhhjTKNY4TTGGGOMMY1ihdMYY4wxxjSKFU5jjDHGGNMoVjiNMcYYY0yjWOE0xhhjjDGNYoXTGGOMMcY0ihVOY4wxxhjTKFY4jTHGGGNMo1jhNMYYY4wxjWKF0xhjjDHGNIoVTmOMMcYY0yhWOI0xxhhjTKNY4TTGGGOMMY1ihdMYY4wxxjSKFU5jjDHGGNMoVjiNMcYYY0yjWOE0xhhjjDGNYoXTGGOMMcY0ihVOY4wxxhjTKFY4jTHGGGNMo1jhNMYYY4wxjWKF0xhjjDHGNIoVTmOMMcYY0yhWOI0xxhhjTKNY4TTGGGOMMY1ihdMYY4wxxjSKFU5jjDHGGNMoVjiNMcYYY0yjWOE0xhhjjDGNYoXTGGOMMcY0ihVOY4wxxhjTKFY4jTHGGGNMo1jhNMYYY4wxjWKF0xhjjDHGNIoVTmOMMafwySeftFasWNF69dVXKxdjzEJjy5YtrfPOO6/6tbCxwmmMMQ2ya9eupLjlhgfF/v37K1+z+eKLL5Kfu+++u3KZP3788cfqan7gYbpYHqhmYcBLEv1nubwsff/999XVwsYKpzHGNAjKI0xMTLT27NmTDNcHDx5sbdiwobVu3boZP8Y0hZQwZq6NmQ+scBpjzBywefPm1rZt25J55JFHWkePHk2K56FDh1p33XVX5eskF198cWt6err1zDPPVC7Ll++++y4ZMxzzPVM9l9xyyy2p/2CbhYMVTmOMmQfOPPPMpHiiiKJ01i2vG2PMUsAKpzHGzCP33ntvsl944YVki7o9nCimLMNzH3PZZZe1XnzxxdYPP/xQ+egM/vBPOMVBOr0u65M++0/z9HPwgyFepcV+VvHBBx/Mykc0Md+lQxHEiR/5J/7Sfr1e8skScx5XKT91kK7SQE7Ckga/o0xyi3kThOFeLls/dVXy9/XXXyfD7zvvvDP5u+KKK2b8KB78UDe9pFMCf7EMo4l116lNKK+xTXBNO4loa0BuYjp1B95U1/hVGNLvte/k+SQPyBwp1Rn5KL1Q4o/7hHnyySdn5Crlux+Grc/GmDbGGNMYmzdvnmaonZqaqlxOhfv5cMxvwkYmJiaS+/j4+PSePXuSWbt2bXLDPnHiROWzDPfln7gIjz02NpbMsWPHKp/TSV784Ufs27dvJi2ljyy5P0B27hEv19zfvXt3uqe4lQ/c8Ycb14cPH07+QOUnkFHy4pfwO3bsOKWsFC6mLVnE5OTkLDkwKh/J2gn8x/Aqy1KZKM+5nKB4Yhvpp66QVXHjj9/IoPhwU3koLozai+KM6eAXt17alMKrPpR/6oU2I5CBe/iNsgJ+FUbu+MMtlgv55r6M8o5fobLmvjh69GhyI33JqTLB7obijPlUeMkX6yzmT+VBuUa4jzthFK/yg4l1XIdkiBAXZpD6bBIrnMYY0yD5Q6mEHjARfscHoR54PJzyh4Ye1vHhXkIPOBStiB7G8YFYemjjht8IskiuiPKNbDmSt5uCC/kDVUpiVEpzuFdKG1kVjmsewJ3Ks9MDX+HzhzjlI6UjLzvcYp0K1Qt+RD91hUKTl39OKQ1RajdSfDqVM+glJMqpssnz2qlNED6vB9UjstRRkrPUlqjLUl5UV3naOfKXt3/SUjtRGeeKJXFL6Yzh5T9vgyrTTvkWef+AYeqzSbykbowxi4C9e/cm+7HHHkv7PyM7d+5MtvzU8dJLLyX7/PPPT8uLMj///HNyf++995Jdx+WXX54ONEWQpf3QS/tQSyBvzvHjx1vth2xr5cqVlcvJuOGjjz5Kdh0XXnhhsp966qnapdC33nor2SwjRpB1zZo16frIkSPpczLXXntt66uvvppVHuecc07y01Ykkl1C4R988MFZ9UH5lPLcL/3U1XXXXZfKf9Bl2NLhmhtuuCHZ5LMTOox01VVXJRsoj+uvvz59iaFEqXzWr19/SrtWXX344YfJzqE8aPttBXbGbx20tZKfrVu3Jps2UAdL1JQv7Txv/7RbteO2Upfs+++/P9mCfD388MPp+t1330125Omnn56Vd5V9Xb67MUx9NokVTmOMWQCMjY1VV2W0/+rSSy9NdkQPwc8++yzZdUgpZB9fbuDzzz9Pdid4+LL3DGVOe/LqFAvIlQg4++yzkyxRYZSyFBWXEuSVBzvK9VlnnZX2qqF4RFRWUmJL6MH76KOPnlIWuME333yT7BIKf8YZZyQ7cvrpp1dXg9NPXaF0jY+Pt6655pq0b4+9i73uSxTsMWQfoer0nnvuqe50RvmPigxpUz8onSVKbQKoR9qWZMDUQRr//u//nvrNxMRE5doZwlA2tBnFLyWxE7wgwY033pjsOuh/vEiV8qc++uWXXya7E3Xl0w+D1meTWOE0xph5RIrWXH7CZWpqqmjef//9ykcZHmKrVq1KB1CeffbZpFRg+v3wtGaVmF1EweDBuHHjxqQ88G3Sbtx3333ps1IoC88991xSwnT4pF9QVkplgdGs0HxSkgsT6wplhhnPycnJpHjeeuutrUsuuaSnQyIoYRxSodxRXFWnUni7oTKi/qhH6pN6BR2I6wXqj3qkbUkGTB1//vOfk4LHp8PiTHkdlAVlQtnwQqH4u72kLTaGrc8mscJpjDHziJZON23alOw6mBWE0pKYFAuWVjuBMgLM/JVMvlyYc9tttyUbxebEiRNsHEuGpcZ+YDmcmSDkRcHgwYjCjRLVi/IAyCrFk7hQIlQOKqt85jOC4gwXXXRRsSwwnWaaNNNc+r7lTz/9VF39wmmnnVZd9Ua/dYWsLEu/8sorqX54Cehl9u7AgQNJGaEOKUvVKUptL7z22mvpRWH79u1pqZz6PPfcc1uHDx/uuswtqDfqjzwTTjJgSmgpHZl7fVGjLFQmbJVQ/Hv27Kl81KO6e/vtt5NdB+WQz9wLtc0rr7wy2U0xbH02iRVOY4yZJ5gRYqYQhQlloRNSSFHWcqRYdFNab7755mQzC5XDA7GTggY8sCWrlDGW2PudJWLGBYWN2Sk9ELnupvCWQA5m1yIqh/zD+SgCmlGWwvjAAw8UFYT8kzo5UlhRWGJ4yjGXB5Q3th9E/8iDDDnD1FVpW4KWvqX4CCnMzEbG8v/444+rq86ghPE5H/Yt8oF+6vKdd97pWdkE7UtFWY3hSnmk7LSU/sQTT1Su3dGy+B133DHzUkNc3fYMA+WCMky7zcsPGekDgNINKOER0nnooYfS9erVq5PdFMPWZ6O0G4cxxpiG2FydIuXkKqdSMVy3H2DJva3AFU/Ico+wEfziTljFpXjyk7ElSKf9oJ6JW3HoVHY83TpVOOmrvCgsaRKf4ozIbwndi4Y4kCM/RZvHQ7qUQ1vJnpGB+7hFVFaSFf+UFb8F7kpb8ckfbt3AL+FVH1EWbNwiul/nnzIX/dSVyk5+1CZiWXI6Gjf8Km1OV6ueYxkgj9Lmdye4j7/cIHN+WjqvSxHzilzEqXziHutMJ7iREX/R6LR4qe1yjZvKPtYz7rHsS1CWkkflJBkVlvQVn+oMv3KLJ/lBMpXSVhzdyMt02PpskvJoYIwxZiRIqYiGwZ+HVf4AiuAPPxEezDwwpFBgeJh0iieHOJApxsFDK49DD66oNCisHl7EwX1kwi1CnLmb4EFIeD0QMTHeqCjl8XBPChqGe4RFtkguKzblmT/ciU8PbQx5IpyUl24o7wpLOarsuBdBpqiAkA/SlxKFUhjpta7Il+KM8ebksqrM8jIlPvLPda405iCLylZ1SR4lM9eiU5sg78QhGZCHciQM7kJlVTKq21LbBWSTXMiBbOSd33nZl8jLiWvijG2PcovtDoP8ebsDwtalrXDdKJXpMPXZJCv40xbCGGOMaRyWJDm80X7Ypv8rH2F5mZPWpXuLCZZZOQCz2PPRCyyncxqdvaMRlpH5ikBbITrlnlmeeA+nMcaYOUPfIdQeyEinzxCZhQeKNft6S3tv+/1ygVn6eIbTGGPMnMEBCymbO3bsmDngwuENDlCNjY2l07Wj+BbhfLGcZjj57qe+P6nPXfGtST5XhdI5NTWVTtUbY4XTGGPMnIJCxglyToJrJmx8fDydzOa082JWNkEK5759++b0+6rzAS8QvCi8/vrrM18r4KWBfPPpotLsp1meWOE0xhhjjDGN4j2cxhhjjDGmUaxwGmOMMcaYRrHCaYwxxhhjGsUKpzHGGGOMaRQrnMYYY5YtfGx+3bp1rRUrVqSPmO/fv7+60xuEJywm/p9txXn33XdXLmU45U26+O32/9s7wf/lVx4WA72Wj1k6WOE0xhizqIhKGorWoBAP/9no0KFD6TefaDp27Fi67pUjR45UV63Wzz//XF21ZuI8fvx4siEqp1wD9/VpqB9//DHZnajL+4cffpjsxfLB9VL5zDd8zkr10++Lh+mOFU5jjDGLiqikSdEahH/+85/VVSt9M5OvBG7YsKFyGT1ROY3X/TCqvC9HmEGWQhlnowUfqJ+cnEzXt912W9GPGRwrnMYYYxYVZ599dvq4OFx99dXJHoQ4o6gPtK9cuTLZTXDppZdWV7Ov+2FUeV+OxPqOs9GR9evXJ6UTpf6uu+6qXM0osMJpjDFmUYFS+N1336UZyfvuu69y7R/+neZcsmbNmiQzhutBGFXeTT0onZTvO++8U7mYUWCF0xhjTFdYXuSAh5Yk+R/a8ZCLlitLB1+2bNlyymGWH374ofXiiy/OHB7BcK29jZ2oO2iDTHKLh4Ewu3btSmkCecGNf8ko5E/LqOznI79KB0M+epGvjriHs265FtmVD9KmjCKDHDIqlXO3PYoqI0wuA+UoGShXgWz8lvxKi/Aq+15ANspacZAWdUGdREiL+9zL2yfhYxkTx5133ln9aqV/Paqwook6N4G2Fm+MMcbUcuzYsemxsbFkdu/ePb1nz57pHTt2TG/evLnyMZ3ceKRg5+Avf9wQHjdswhAv8eM2NTVV+SrDffzl6clN8eRG8h49erR4H8O9ycnJ4j2Zw4cPp3hA+cZEueVWKqPoN+alTm7KRtTlXWWMiUT33MR4c06cODEjz/j4eOV6klg+XAPlVic/Zu3atcmfkHssH5iYmJgVLjex7JW3unRxJx9Q54f2B/3UuRkMz3AaY4zpCAdc2NP2xhtvpGXcbdu2tZ555pnWK6+8Uvnon02bNrXaykCKh/iIl/jhwIEDyR4UZG0rEil+TFvZSe579+5Ns14XX3xxWjJtKyzJHfiN4R60lay0l4/wuLcVjuQOL730UnU1WpC7rUSmNNsK3MxezZ07d6bZw35hppA8A/GSD+JuK3XJrVO8Z555Zmv79u3p+rPPPps1W/jaa69VV63WVVddlezf//73SX5kbivFKS1O/KuMOZXebVaV+48++mi6RkaVPfUgSvsqSZc6pszwr/zhrrbENgTKQEhG2p+YjzpfTljhNMYY05ELL7ww2U899VRfS6OdYJ8cSk1E+xqHPX2N8oEiQfyYrVu3VnfqD4tEkO3TTz+dJWPcc9nUp3xQklG+SRPF98EHH6zuDHaq/YUXXkg2ihTxAnFHRTue1M+56aabqqtW680336yuWjNbEZCX+FiKRikFZOa0N7Df9IknnkjXEBXVEpIX7r///pmypx6kRObKr3j99ddnXhZi/nr51BTMV50vJ6xwGmOM6QgP8t27d6fZsrPOOivtncv30w0CcbC/j31yMqPg/PPPr64GR/sI436+ptFsobjhhhuqq1bf3wcFzW6ipCkPGPYvik4KGQqXZlk1Oxj3MzJLDVEBzE/Ox1P/3ZS2gwcPJpsXBil94qKLLqquyi8Nuf9BmI86X05Y4TTGGNMVlrxZskTxfO6555LSEg+M9AthiYODHChGMgsBPqjO9ziRh2XZ+eKnn36qrprjjDPOqK7K5Mvqb731VvoNUpCj0nr66adXV/2jsh7FC0O/LJQ6X8pY4TTGGNMTzHRK8WQWiv12mt3qprhECENYlnrZJ8d+OZmFwGOPPZZs5NO+wLmQLf9MU9xaMMh3O7V3lXzEMo5G3x+tIy6rMyPNywawxK1ZxV//+tfJhnz/bdwjqiXvOrQUjtKXb9348ssvq6uT3yIdNfNV58sJK5zGGGP6AkVj48aN1a+TSJl4++23ky1YMs9nLrUkyuxm3Cc3imX6UaAZrnPPPXdmSbnXTxANA3sj9QkilHIpQTCIwqm9q8xOxk8ToQSSH5aOuxGX1W+99daZsomK6AUXXDDjB5lVj6Tz//7f/0vXEPdWlrjxxhurq1brv/7rv2bkRVYdJiKOQT/OH1+KPv7442TrhWm+6nw5YYXTGGNMR1BW+J4iy45csxzOCWdm0KRoclCE2SGUS/bB4Q/7gQceSO4RKSjEQVz45fuHLLHrYT+f6IAKJ6vZs8pePpStpiHvKOGkd8kll8woQeyfHGSPInssNctJvMrLqlWrZimP3YiHlwA544sCsr388svpmjj1jUvS0f9Mp0x1mKiOKC8KZl72pPvII4+k60FYvXp1dXWyPIhb20Lmq86XE1Y4jTHGdESzayiIPKhZVuUBzcngyN///vd0chmlE38sfb7//vut6667bpYiiYKCO35RLPDLKWw+VXP99dd3XTKN9+OslRTbPDyKjzjttNOqq19mZXMllxPS7FWVOza/dXAmxl8Xd0mWkt94nzIhDaVLHPyPd50wh7q8l/JCOVNHxClFDoiX+uv1INLvfve7WfHmCihwupv6o04jzEiybSJXFEvlE+XVfZC8LHXHZfm6+qsrI2ZG+exRjFuzqv3UuRmMFdPepGCMMcYYYxrEM5zGGGOMMaZRrHAaY4wxxphGscJpjDHGGGMaxQqnMcYYY4xpFCucxhhjjDGmUaxwGmOMMcaYRrHCaYwxxhhjGsUKpzHGGGOMaRQrnMYYY4wxplGscBpjjDHGmEaxwmmMMcYYYxrFCqcxxhhjjGkUK5zGGGOMMaZRrHAaY4wxxphGscJpjDHGGGMaxQqnMcYYY4xpFCucxhhjjDGmUaxwGmOMMcaYRrHCaYwxxhhjGsUKpzHGGGOMaRQrnMYYY4wxplGscBpjjDHGmEaxwmmMMcYYYxrFCqcxxhhjjGkUK5zGGGOMMaZRrHAaY4wxxphGscJpjDHGGGMaxQqnMcYYY4xpFCucxhhjjDGmUaxwGmOMMcaYRrHCaYwxxhhjGsUKpzHGGGOMaRQrnMYYY4wxplGscBpjjDHGmEaxwmmMMcYYYxrFCqcxxhhjjGkUK5zGGGOMMaZRrHAaY4wxxphGscJpjDHGGGMaxQqnMcYYY4xpFCucxhhjjDGmUaxwGmOMMcaYRrHCaYwxxhhjGsUKpzHGGGOMaRQrnMYYY4wxpkFarf8f/RXCOORaSSoAAAAASUVORK5CYII=;" vertex="1" parent="1">
          <mxGeometry x="32.995322840073655" y="1410.0029986213235" width="668" height="272" as="geometry" />
        </mxCell>
        <mxCell id="Fnz1tmBVVwKyuUZF2mA5-16" value="Riforma dei dotti&lt;br&gt;&lt;br&gt;Dieta di Worms&lt;br&gt;&lt;br&gt;Lutero a ritrattare (1521)&lt;br&gt;&lt;br&gt;Lutero non ritratta e si ritira in un castello" style="rounded=1;whiteSpace=wrap;html=1;fontSize=16;" vertex="1" parent="1">
          <mxGeometry x="-60" y="1797" width="238" height="181" as="geometry" />
        </mxCell>
        <mxCell id="Fnz1tmBVVwKyuUZF2mA5-17" value="&lt;div&gt;Conseguenze:&lt;br&gt;&lt;br&gt;&lt;/div&gt;&lt;div&gt;- frati e monache abbandonavano i monasteri&lt;/div&gt;&lt;div&gt;- le celebrazioni liturgiche venivano semplificate&lt;/div&gt;&lt;div&gt;- preti cacciati dalle parrocchie&lt;/div&gt;&lt;div&gt;- agitatori che spingevano le masse contro le chiese&lt;/div&gt;&lt;div&gt;- distruzione immagini sacre&amp;nbsp;&lt;/div&gt;&lt;div&gt;&lt;br&gt;&lt;/div&gt;" style="rounded=1;whiteSpace=wrap;html=1;fontSize=16;" vertex="1" parent="1">
          <mxGeometry x="384.5" y="1792" width="325.5" height="304" as="geometry" />
        </mxCell>
        <mxCell id="Fnz1tmBVVwKyuUZF2mA5-18" value="" style="shape=image;verticalLabelPosition=bottom;labelBackgroundColor=default;verticalAlign=top;aspect=fixed;imageAspect=0;image=data:image/png,iVBORw0KGgoAAAANSUhEUgAAAakAAAFrCAYAAABrDHbkAAAAAXNSR0IArs4c6QAAAARnQU1BAACxjwv8YQUAAAAJcEhZcwAAEnQAABJ0Ad5mH3gAAELnSURBVHhe7Z1trF3Fee+X7/1EUWvM64eCQ9sLkgGZ4toiDkHGJTat0hucQIwUIpry4jjSFcGudQUiKrEEgg8ukH645iUmFRJUycXg9iqqsEMBEcDIlAaEQUp6aetwP0BSwFLTfPTdv9nrv/2c8ay999nnbe19/j9pzqw9a9asmbVm5pnnmTlrlhzrUBljjDEt5L/UvjHGGNM6LKSMMca0FgspY4wxrcVCyhhjTGuxkDLGGNNaLKSMMca0FgspY4wxrcVCyhhjTGuxkDLGGNNaLKSMMca0FgspY4wxrcVCyhhjTGuxkDLGGNNaLKSMMca0FgspY4wxrcVCyhhjTGuxkDLGGNNaLKSMMca0FgspY4wxrcVCyhhjTGuxkDLGGNNaLKSMMca0FgspY4wxrcVCyhhjTGuxkDLGGNNaLKSMMca0FgspY4wxrcVCyhhjTGuxkDLGGNNaLKSMMca0FgspY4wxrcVCyhhjTGuxkDLGGNNaLKSMMca0FgspY4wxrcVCyhhjTGuxkDLGGNNaLKTM2LF3795qyZIlyf3sZz+rQ+efM888M+XhG9/4Rh1ijJltLKRazmOPPdbrkAe5heLVV1/t5YHjuebo0aP1UVX9+te/ro+mxxVXXJHyiz8qv/jFL5L/0UcfJd+Uef/993sC/YEHHqhDjRkOCykzY9599936aOpxm3nxxRen+GbuQIhLoB88eDD5xgyLhVTLufHGG6tjx4713ObNm+szVfXmm29OObdQrFixoj6aetxm1q1bN8U3c8epp55anXHGGen405/+dPKNGRYLKTNj1q5d2xOUHI8DL7zwQsovvplbzj777OrDDz9Mz3vbtm11qDHDYSE1YTCHpfkWzbkcOHCgPjuVt956K036a74Ad911150Qn9+cIx4LFYjDby0YiHNScSHDJ598ckJ+Lrrooupb3/pWOjcM3JtruJb7k16ck8ohL8qf7sc1+f2Up2EWPTCnQp6VJunz7EqQHnHIa4TnoutZ+BEhb6SvcuJIp+kekUHvBgjnt94zPvejXDmkF99XdCoT1ymMtHm++TuKxDmpvOzGDKQzujFjxObNm7HrJffmm2/WoV3iudzdf//9dawu+/fvL8aTi/H37NnTCz/jjDN6x9wvPx/zdOGFF/bCc7du3bo6VjNPPfVU8dro4v1iPnKX30/hKkMTH3/8cd9y4GIa8R1EyKfCyacg/fhMc/fKK6/UMcsMejfxvrkj/s9//vMUD/o9PxzxIabZlPdYxqayGzMM1qQmBEbAP/jBD9JxpyNIppVOB1jdeeedKWz79u29kTP+xo0b0zFzMp2OKsXvdCZVp0NO4TF+hAnwjoBL8e++++46tBnu/9Of/rSXn07nmcJZsBC1rhy0C2kDnY6wlwZlK0Feb7rppnS8devWdC/idwRdCuN+PKPp8vTTT1eHDx9Ox5SFNMnLbM1l7dq1q7eogOdP+rwPpX/LLbckfxhK7+YrX/lK8nmv8T3zTIn/0EMPpfNw++23J1/PD6d8EIbJLoc0VN94LqQLSsuYGdOpXGaMiCN1RqhC4Yz6I3EUi2YCjGYVlo/Uo4ZVis9xTjwf81Ri2Lgx37kWyO88jZhu1A5A4Z2Otg45HiaNo4n4vDuddh3a1YBKacT4kVie+AwV1hGAdUiXWJ5O51+HnkiMF9OFeE/ea0T5lHYEihvfi9KP8fq9m1L5m8puzDBYk5oQpEUx6td8Ae7iiy9O4aC5nEOHDiUf8tV4Z511Vn009f+RxOrVq+ujwaDdMPcR5zik7Qzi9ddfr49OXBG2dOnS+ug4zz77bH1UVeecc86UZyBG+X8mPVc0ilNOOSUdQzwelTjndM8990zJc3xOw/4vWP5u4jNEc47pq1zS4kBa0O7du5Mmi3v88cdT2Pr165OfU3oXxswmFlKLCHUosbOejc62BAJq1apVqfOd6f8inXzyyfXRzGAp9KhE4T3fnHTSSfXR7CPBBPfdd1/yMQEuW7YsOb272267LfnGzDcWUhOC5g6Ye+hoyEV3zTXXpDhXXXVV8iH/QsQHH3xQH3U1klF57bXXeqP0PXv29OaIOB6GqOE999xz9VGX9957rz46TtS2NPeSOzSE6aLniuYRVwiW5utyYvxf/epX9dFxli9fXh8dn+8qufPOO6+ONT3iM9RcVe40zxS1JpUZOH7llVfG5l8LzORhITUh3HDDDcnH3BeXXNOZsuxXy4chmoXuuOOOXoeL+en6669Px4yw16xZk45HIZoKEXZobNxHHeEgYgd777339hZZUDa0s5wrr7yyPuqazlQmnoOWVQ+zpDvn6quvro+6ixyAvHz1q19NxzlxAMCiC+C+MR3BM9lcLyR55JFHpizs4B58Qogl5aPCM5SmxDOJ5WdwwsIULRc/cuRIT2t69NFHe0KM/yOzgDILSqcimjEiTkzHCW4m8juj3t65koswUV+KIxcn2jV5jov3FKXzLF5QWJMrpRWJCySii+WMaQwqU4yrMJ5nPygHiwZiOnLKR0yjqdwxjbh4gEURTenjBuVv0LuJC2FKTnnpV07yEPPMfXQuhkOsn6JffGMGYU1qzNC8CiPkOMfCqHzfvn3JnBbNNZj/MCVhAouwRBkTUIxLmiw1Zinxhg0b6tCpZr/S/EjpPF8Z6HROJ5iOCOM+MGiuha8TUB4ti8fnd/xKRExDZep0lHXI8TJx35UrV9ah3bRg0DwV5Xj55ZdTGkLPSNprTIP4mMdUbu7P83/jjTd694yLDTDlcY44Og9cT1kffvjhOqTMoHfDe6Ts5FnPHXhGPCs+uwXkW+bgHEydLOSQ1hXLmy+ckGky3qtffGMGsQRJVR8bYxYpCCCtKEQAS9hgNmUBDPOLCLbvf//7KdyY+cKalDFmyhL+uOQdDVwLYAZpncbMBdakjDFp0Ya+QlIC8x1mz1FXGhozKtakjDFp7iqfzwPmyTSnZgFlFgJrUsYYY1qLNSljjDGtxULKGGNMa7GQMsYY01ospIwxxrQWCyljjDGtxULKGGNMa7GQMsYY01ospIwxxrQWCyljjDGtxULKGGNMa7GQMsYY01ospIwxxrQWCyljjDGtxULKGGNMa7GQMsYY01ospIwxxrQWCyljjDGtxULKGGNMa7GQMsYY01ospIwxxrQWCyljjDGtxULKGGNMa7GQMsYY01ospIwxxrQWCymzaPjkk0+qb3/729W//uu/1iHGmLaz5FiH+tiYieWFF16o/uzP/iwJqK997WvVpz71qer3f//3q02bNtUxjDFtxJqUmWh+8pOfVF/84her9evXJwF1xRVXVCtXrqx27tyZwiW4jDHtxELKTCSY9rZt25aE0759+6pTTjmleuCBB6rnn38+hXMMf/3Xf139zu/8TjIDGmPah819ZuLAtIcgQosCzHsIJQRVRIIMQQWY/775zW+m+MaYdmAhZSYGhA5mvAcffDD9RujcddddA+edZBKU2Q8hxXXnnntu+m2MWTgspMxEgDaEVoSgQmNCyCBscu2pHwg30hC33XZbzyxojFkYLKTMWIMWhPbEvBOwMOJ73/veyFpQbgIkHQk8Y8z8YyFlxhKZ9hAm0p7QemZLmOQmwJkKP2PMaHh1nxk7WBhxySWX9OaeEEz/8i//MqvaDvNZpClzH/dkFWA0Bxpj5h5rUmZsyE1xaDcIEQTKXJLfd7a1NmNMMxZSpvUgJJhzQlDItDfKwoiZggmQf/7V0naE4zPPPGMToDFziIWUaTX5/zy1YW4IMyPzYQhM8CpAY+YOCynTShAAcWHEsP/zNJ+gVdkEaMzcYiFlWkf8GOxCmfaGpWQCRNOb63kyYxYLXt1nWgMdff4xWL61hzmtjQIKEEb/9E//1DNBUgZWHnoVoDGzgzUps+Dkpr22a0/9QDhpaTwgvGwCNGZ0LKTMgjLsx2DHCcoSv4JhE6Axo2Nzn1kQ0JgQTpj26NTpwFnOTWc+zgIKYllyEyDlNsYMjzUpM+9g1lOHPc6mvWFhryo0K4GmyDybMWYwFlJm3sjNYPP1xYg2QNm/853v9Jas2wRozHDY3GfmnGjay3fJXSydtIRSbgL09vXG9MealJlT8v954p9xx31hxGyQ712FydNb2BtzIhZSZk6Q9iTz1mIy7Q0LgltL74Fn4+3rjZmKhZSZVRBObfgY7DgRtU3gWfHM/OFaYyykzCzSxo/BjhPevt6YE/HCCTNjZNrjk0YIKIQS/yfEwggLqOFBKH388cc9cx9Ci8UVMgcasxixJmVmxDh9DHacQNjH7eu14MRC3yw2rEmZkVAnOk4fgx0nWEQRt69nns/b15vFiDUpMy0w7U3Kx2DHBZlTZfbjOSO8ZBY0ZpKxkDJD44URCwvPPd+7ytvXm0nH5j4zkHxhhDpHL4yYX3ju7F0lEyDvwiZAM+lYkzJ9wcREJ2jTXvtAq7IJ0Ew6FlKmCKP0xfox2HHCJkAz6djcZ6Yg095i/hjsOBFNgLwrmwDNpGFNyvTIF0ZgOlLnZ8YD3p+2r7cJ0EwCFlImaU+Y9tS5MTqnc8PEZ8aPkgnQe1eZccXmvkUMwomJd8xDCKho2rOAGl9kAsz3rtICGGPGCWtSixT/z9PiId++nvdsE6AZF6xJLRL4HyfQwgj9zxPaE52W/+dpckFIoVlJMGEKRLPSAMWYNmMhtQjAlMdKPXVOmnui0+L7cB5VTz6al8pNgNQJfcQWYaZjY9qCzX0TDp0OnVGci/D/PBkGKmjUgn/S/s53vpPqBFq1MW3BQmrCYaSsrxIAo2hMP15WbtCmEEyxfoDnrEybsJCaYDDxaS4q4k7IROL/VgEDGAYynqM0bcBCaoJhhPzmm29Wn/rUp1KHo04H35qUAczAfF0kX0SBSdhmP9MGLKSMWeTw7wgIq+iOHj1affOb37Q2ZRYcCyljjDGtxUvQjTHGtBYLKWOMMa3FQsoYY0xrsZAyxhjTWiykjDHGtBYLKWOMMa3FQsoYY0xrsZAyxhjTWiykjDHGtBYLKWOMMa3FQsoYY0xrsZAyxhjTWiykjDHGtBYLKWPM+PDzn1fVzTdX1X/7b1W1ZEnXbdxYVY880j3/f/7P8fBBjrjiL/9y6rknn6xPdBg1TfL67W9X1erVU+OQX+7HeTMQCyljzHhAp37xxVW1Z09V/d//Wwd2OHCgqr7+9aqaySaNf/M39UHNM8/UByOCkCOvO3dW1T/+Yx1YQ3537Kiq9eur6o036kDThIWUMWY8+M53qurjj7vHd91VVWyFd+RIVT38cFX93u91w//7f++GyxFP6Bo54gLCTYLkD/6g6z/11HFNZ7ppkt7/+B/H87prVzefnP+Hf6iqa6/thiNot2zpHptGFo+QosKhYqNqS+0+9dSq+vKXp6ro/Na5EvF8HAU1XafwJkeeBHnsZ8ooEdPP82TMJPHWW/VBB8xocM453Y7+n/+5q5mMwg9/2PURdNu3d4/h7/++Ppgm/+t/TRVQf/7n3XwCefzf//u4UEU4RtOiOYHFIaTo/L/4xa6KjaotqEiMmL7whTqgw9GjXV+VLCee/3//r3sMTdcpfBCjmDK4hvwL7j0Tk4cx40K/gdt02bev62/aVFWXX949hthXDEtsk8uWdQVUiW98oz7o4IFlXxaHkEJASZ1H1eYY1RufkQ6VaT6IZgE5VeJhTBk5P/hB1yf/ipPb1o2ZFD7zmfqgAwM3rAwz1UIY1GlQuG5dV+OROQ5hM10B8pOf1AcdWDDRxPnn1wcdooZoTmDyhRQjLgmoDRu6qvaqVd3f+AiJjz7q/l5IRjFlSCB96UvdUSBQVo/MzCRCu6ANCzSd66/vmsejyX46yNTHQE9zVPEetkwsOJMvpKI57Gtfqw9azjCmDASRhO8f/uFxwQtuWGZS2b//ROsCmhAm+1EElUx9DPTEH/9xfdDBlokFZ/KFVLQrf+Ur9UELma4pIwoiyoWT2XL37q5vzCQi68ITTxxfjQcs954OtC+Z+hjoCSwYSteWiQVnccxJjYpWzUU3ymSqyNNiZZ6YrilDIzzZz0GjQRqetSkz6TAw4/+ZNDiTZWFYWA4uaGuxbca0ptOWfvu364MO771XHxR48cX6oEMcoJoTsJBqE8OaMqKpLwq2OBqUrd2YSQatR//2Md0FUE8/XR8MYDomP8zuar+03dIAkxWAjz1W/+gQVxebE7CQ6ke+Eg8XhcJ0ydNiEUfOMKaMaAaM9vO4fFa2dmMmBYQRFgdpNnT2/J+hTHZxXmkQtCGtpmWFb942cdHkNx1t6n/+z/qgw5/+6dQ5ZoQWq411bxZuxflkcwKTL6SiVjJOJrB+powogJYvP26i4FjY5GcmDTp2BmtYDFTf+d9HQKDEL0EMIpr6mv4J+E/+pD7oMB3LBAPNm27qHpNn5pjVRtGa1JaJg4A0fZl8IaWl2cB/go8TJVMGgkcjx0HY5Gcmib/7u+4cbDTrSTgxoKO95Pzmb9YHHeL/Jr3wQtfHMtKkyfB/UyL+i0hTmpHvfrebXwRRHCiTd8rAOeKYwRybdP7xH48dW7bsuBJ/003dMDhy5Nixhx8+duz3fu/YsX/4h27Yhg3H45aI5//u7+rADk3XDUpPkMe77jqeD/K2a9fxa8k3/PmfHw9T3AjX6TxpGmPMGDP5mhSjpL17j4+++OwQoy+ZC1DFh9VMZopU/uj07b5hTRky9TE6K5kpGE1q3ow0Z/of+cYYs4AsjoUTdOY/+lF3klKToRBVb3X4S5d2/WhSiMTzcblp03UKH8QwpgxW9UmgfvWrXb/EVVfVBx1++tP6wBhjxo8lqFP1sTHGGNMqvATdGGNMa7GQMsYY01ospIwxxrQWCyljjDGtxULKGGNMa7GQMsYY01ospIwxxrQWCyljjDGtxULKGGNMa7GQMsYY01ospIwxxrQWCyljjDGtxULKGGNMa7GQMsYY01ospIwxxrQWCyljjDGtxULKGGNMa7GQMsYY01ospIwxxrQWCyljjDGtxULKGGNMa7GQMsYY01ospIwxxrQWCyljjDGtxULKGGNMa7GQMsYY01ospIwxxrQWCyljjDGtxULKGGNMa7GQMsYY01ospIwxxrQWCyljjDGtxULKGGNMa7GQMsYY01ospIwxxrQWCyljzJzxySefVGeeeWZypsxbb71VLVmypPrGN75Rh5iIhZQxZs74xS9+kdz69evrkC50yHTMbednP/tZyudjjz1Wh8w+3APWrFmTfDOVJcc61MfGGDMvXHTRRcl/++23k99WDhw4UG3cuLHav39/tWHDhjrUzCdjpUkthFrMCIp77t27tw5pHzapmHGC+nr48OHq8ssvr0Pai4Toueeem3wz/4yVkGpSi+fSdHDo0KHkn3feeckfBYTHddddV/+afZpMKsbMBbS1K664ov51HJnGvvWtb9UhJ7ZN2sKyZcvS8UMPPZTO4RiAildffTWlTzjxH3jggd4ANcbrB4NLtDWlTz7ef//9+mwX8qv8KY76GAalhG3fvj39Pv/889PvvB3HvOI4zvOotBDOPBuO44CyqX8gnZg/ysOzIJ3IoPQhLytptXngPQXMfePOhRdemFwb+fnPf4459didd95Zhxgz3qxbty7V6Zz7778/hb/yyit1yLFjZ5xxRoov9uzZc2zz5s29NsFv3Mcff5zO79+/P52jPRNOHH7L0Z76QTrK39atW6ekEfsI0iFvOPKN45j48Oabb6ZjXccxLpZN6XI/zimNPJ/kQ88hlgt++tOfpvhcG9FzUP64hmsJI71Iv/QhPtM8Lc61nbEXUlTK0otrC1Rq8vfUU0/VIcaMN7Q16jQdbISOks5PNA3QdL0Ek0AwEE5nG8+pIyf9QSht0opIMAo6an5HocN9YpmaBAjQnjlHOhGlG+8vgZCXCyRAorBoeg4cK61Iv/RVBp5LPKd75PlvIwsupPRwc/RwYwWnklLZBL+Jk7tYQaiEpE848alwekExXgnlIb5IhZFunnYpXslFYho4jvN8KS3CuYfKTTioYeYQX+dwVGbK31SRm9IHjvO0LHgXJ9QR1RehzjbWCeo2YbFdAHUHl9MkYIDw2PZLqB5HoUKY8hv7GYXleYuUBIigjcT0EMjEIxwnTYq2Rhq4qF0J8sq5WGYJ1Nj+hM4p/qD09UzV5vFjn8Nx21lwIaWHlaOXp4dYqoBUML00hBm/cXohqmQ0CMKJw2+50kuNaLQUX6TC8vvmHTtpE869CVfeYiNWfngGnKNsSifmLd6T88Sj8qmchMUGAyq74se8cG1kUPrxOeZplRqwmWxKwof6R91RnQHOEy92wJwnLK+DQHhej4Hr8/uVoG4Sr+So27FN0U7JL+eoy6V6rPRyYaHylxxpxfIq73GwHVE/Isgjv0vPARRfz7lf+nrWJUfZY1/UZhZcSEnS5xWBh8gLF+oo88qk62PjAL08XnY8J2FH+oOQEImVW2FcH/OsBpk3JOKVKpwEQx6/1LCb7gmq1LGSNpWdYwmXSL/09byi0ALdY1DHYSYP1QnVuZLQgrxDhaZ6o/BYj4WERRwsltD9SFuOa2L7jZAv4lDvuY77RHIBIrhGedV96JfytgOK25R3zsX+YVC74lzsF/ulr7Qoh/JJv0P4OLHgQkoPOT44CaQo6VVR8wfMC4svTUh4lV6IXtwgqDzEjSgsH4WUKktJgIhceBGXchOOiw1L98wFNHA/znF/ocZVajQ6F59Lv/TzQQA+99Q1TY3PTDa8e+oS9UFtMAojoB7nbbPU3oHfhMd6DLQDCZEmYSPIT2xTw0K+dY+IypijMuTlLaH2U8p7Luyh6TmA+sV4rl/6Smvc2+iCC6lSJ0tFo9LESqDONcJ5wnhROYSXKmy/SpBDvLySElYSispfrCwqWy7QFF5ypJ03YIWXUIPRNdyf302NVfmMz7YpfT3fkuP95OUyiwe1UdW/vCNUPczbpjrVvI6rXcYOm/rHfVTfBlGq2yXywRjxqf+xDUiA5O0fmspcgjSb8i6hE9uRnkN+X/JDOrhYvn7pK61cQxw3FlxI5aOJktACwvKOVy8hj1uq8GJY00HpBfd76apAkVyACIWTP45xVNiS5tPvnpA3TMXPn4ngXGyM/dLXOe6hfNKg8vKYxYeEDa7UzprqIXEJ53rOqd5Rf2k/nCMMx28Jw5KwyCE9rqd+c73SV/0VikMYjmPCYp8gIcu9iUO+1T5VNs7FNsx9cqFMvKa8cw3n8/ak/CjfembcL+8j+qUfn6meN47j2Ae0nQUXUqAHHUc0cbSQCzLR9JKbGggVTy8tajwl6IyJF0ddpTBoGjVSJsJzlO9Yxiaa7ikoT6xwTWUHjdziuX7pK61hRoxmcaF6gxAp1WPV8bxT5XfUjmLd4lgdND5pkDa/ud8wcI3SUDr0G7G9cx/lAUe7zfsQkKAkTi4I8jSIl6ej9tOUd9LkuhzySp51b/y8DDAofeB5ky/lE8d9m/qTNtIKIaXRkip23imqc81fhh5+XsH08qJQo7LHxjEIriVubGRU2jwMyC/hsfMHVbKcpnKWKOVDlISjyp43Kq4nP7jYqfRLX2lRbmOMWQha8VmkFStWpM/63HTTTVWn06zWrl1bn+nS6YyTn3+a6LTTTkv+7t2702dQ+GQILF++vOp0xtU999yTwnB81gQIH+bzQfo8SrznwYMHk5/n4913303+6tWrky/0aRLlgY9VguJdffXV6TMm5B3Hp1H4dEmklA/x0UcfJT9+JmrlypVVZ/RY/eAHP0jpkS73UPlffvnl6pRTTknH0C99PUc+DUO+lE+O9YFQY4yZU2phtaAMMh00qcWM/qN2FDUTjmdiOiBe1FCgFAbkj3N53tEAYx76mRzIP2nnWmHTPUEaWa4FDWsugH7pA2lznnhy42YuMMaML96qwxhjTGvxpofGGGNai4WUMcaY1mIhZYwxprVYSBljjGktFlLGGGNai4WUMcaY1mIhZYwxprVYSBljjGktFlLGmFmHz2ctWbKk99ktKIWZ9tDW92MhZcwi44orrkidEf4nn3xShx6HTorzdFoz5de//nV9dJxS2FzDdzT1Lc1JZe/evem94c+EhXg//bCQMmaR8eKLL/b8p59+Oh1H2tZJzRXq1N966606xLSRiRBSVLT86+HGmGbWrVuXvnB/++23F7WpSePDDz9MLnL06NH6aDK45ppr+GB48ieJsRJS/dRZbVsx18yF2WAxmCJMuzjrrLOq++67L22Rs2vXrjrUmPYxVkJKI59xHAEhhNjfyZi2cOONN6a9x9h37f33369D+0M89iejPjNgxOf3qNoY1zH3pXkyHMevvvpqHaMM1xG3qU0RznnBbw0EKQPn2L8OLr744t69tWhA5WTfNJ3DWjPsogLyn5cpNyuq7PEexNO+czncmzwoLtfFeUPSJzwfxJOenkfpukHM9jufLp6TmiYls8EwMGJtYtQ0jZkp2igUQTUIOslVq1ZVjzzySHXHHXdUe/bsSaYlrt20aVMda3qQDsKCjU9J7/7776/eeeed6jOf+UzfuSI27ty8eXPa3DMXHHSqhG/durUO6aI2ePbZZ6d7cT2w0Sq/cZhAQeWkXIQT56GHHqouu+yygZ0zAor8//KXv+ylC6+//nrygTRIm7IzUCAOZeeajRs3JiEQ4VmwcSkCiHjE5zquz59THMQTn/Q++OCDKXnhumEE1Vy882nDflLjQucBpU338COEsRFfmxmHPJrFQV4XtfmmNtzEL7UzrmEDzXyTTW1aGjfCVFuNm3iWwrgm3yyUDUGJ1+mM65AyXFuKV8oPeScsUsqPKG2Myn2IHzdXLcEGo8QrbeAqdG/iRrhGG6XG56x3lD978q7NTEvvjbD8Gm3+SpqR0vOYzjufKxadJpWr17kKz3nCGelIRSa+iGYDUVLDpXIzIiIMGN0pTlzoUUpzWHODVHx87qn4+E0jpVx9V9r9Rq5mcvmrv/qr5PfTpmgP1N8LLrggrf6jrsiJt99+uz4ang0bNiStKLJ27drkHzx4MPlNrFmzJmk+nc61Duly1113pXDSHpXS4oMrr7wy+e+++27ym7jkkkuS/73vfS/5JdCGYMeOHckXPIudO3em45deein5tFdWYnYERnXeeeelMLFy5cqkGTbB+fwaaaFa5dnEXL3z6bKohBTCIFev6dhz1RpQZQ8fPpziXX755XVol2i6owJhAohqOPF5uUBlUCPSfXE33HBDChO5OXC65oZbb721uvbaa3vxMR9S1ty+LfWdDmnLli29tMk/tvkme7iZXOjIqKfU2ab3f+TIkeTTsVFPoqPeQWe0nfzpQqfHgIr2KTcMdLbUYdqpOk7qN78Jnyk8C8yhyhNtbBgQZjzP7du3p4EgadBPRMgjKyxzAQ0SKu+9917ytSjsqquuSv504d48XwaiKsvzzz9fn21mLt/5tKg1qrGg06GeoM4CYZ1KUf8qIxPC1q1b65AuqL5Rfdc9ULlL6jr3iY9NJodBJoB+eczThGHNDVLxc5WcY8JzlV73ytV0xScdM9nwnvO6iMmIcOp9k9mIMOoTxyUnsxOoHREuSmEyjZVcU3uJkBZxZTZTG4ltAUptrJQfoN3LvFZy8bn0g3YayxfbHL/ztinyMun3oPuW4ql/anKR/HkovWHf+VyxaDSpH/7wh8mPZjZgJCPzQuTRRx8tjnJyzj333OQ/+OCDRQ1nVKZrbmA5cVTrOe5UrikqPSMqRsuE56YQ4jPRjEYX1XmzOMBkhEbNCF9WgMipp56afJauo3mVXD+zUwm0HjR6LAydDp0es+eGhftyPVYH6HS06Xdu4poOzz33XM+8hqagPHU65TrGcNCv3H333SkNzI/XX399faZKv7lHqc+QSV9mw5NOOin5zz77bPKng+7ZEVZVR/j2ykLZBjEX73wUFo2Q0ovnwQ7DySefXB/1h8aAmY+GvWzZsmQ6nK1OflRzg6ByRWQ2uPrqq5Ofg40fWAlkFh/Mj9B57tu3rw45Dp0RnT/1vFS/WdGWm7QGoS9bYJaOA8Xpth+uZ3CFSQshqzmdQSxdujT56huEVsfddtttU4RdXJ03HUiDeZ2IzJH5Fz8QWsypwaWXXpp8rtezz/PKs+r33HkuGpRq0E18ntMg5uKdj4KXoM8C27ZtS6MlhBUjOmy2pXmuYaGi8v8SLB3Frk0lwUWtyJjZhk4MjbypA3vyySeTr/qNUMBRV1lyPd3PKS1fvjwJReq40sPSQfqED8uXv/zl5COsQJ37IDRg5Z7cmzzQ6a5evTqFM5hjkKgy8nWOYdCgUs+HY9ouS7gFVgvKSJ4Vl3uxzJznj+YTtRQsO8CctPKkZ9XvQwZoTNxb96CMzEkP+y8vs/3OR6Kj+o0NspnmtlnCBtmvmYsiHnbUfuR22ZySbTsS7dnRLt4vj3maWt5JeEyDPBEey18KE3m6pMVv8ldCzyje00wenc6xsS7G+luaF6VuUE9Igzj4/M7bi9pRrEulMKVHOI57kxb5I3xYVNebruE8ec0hTypLR2vozUMzn6TnoHQ1b1d6LhHSJC1dy3GpfZIe8066v+7T1PfkeeKYdJVn9QUxf5yL9yAvnFe5I4QRJ2//w77zuWLRCClNIOaVmJcYFyLoHk0vQI2hH6XJW15sXilEnqbyEPMFpfKrYubPBEp5VePJy0deCee8Mca0hUVj7sMm2xl5pGXcUb3+7Gc/mxY9jIpUX6ngqMSYL7hXtGezEAL7sEwLuCZmam7oh8wGUX3Hx8zQEaLVM888k84bY0wrqIXVWCAzWK5uE5ZrSCVy1bektkpbyVVekZsNchWcc9xDKrggPWk2uFiGPE0Y1twgTSp/JlBKF7iG9JS28jwfy0mNMWY6LOFPp6MyxhhjWodX9xljjGktFlLGGGNai4WUMcaY1mIhZYwxprVYSBljjGktFlLGGGNai4WUMcaY1mIhZYxZEPjyS74jtTE5FlLGmDkHYVQSSPmO1HMFnyNbsmTJCVtdzISmMpnZxULKGGMakHAzC4eFlDFmzmH/omH3MJoLdu/ezXdKp3z0eRj67dW00GVaLMyrkBoX9XguTAPGGGOmz9hpUgg5JlzN3LJ3794kqGdrK3yzuJnpIgm2Kme7GuokjmPCBPVU9ZXtbTjmfhposiUNYXHgyQ7YbFNDPMXnNxw4cCCFsSM2cKw4olQm0tTWOromz6vgHHHJs+IrD6STo7QvuuiiKWmT10lmXoXUbKjH8zHROqppYJI4evRofWTM7DBq26VjZqvyX/7yl9WePXuS45iwnFtvvbW69957q/vvv7/asmVLHXqcuN35pk2bqnvuuSfFI038Rx55JJ1bsWJFCrvwwgvTb92XviGSl4kt4tkSXteTj3feeSfltTTge/zxx9PebmeddVaKf8EFF6Q87dq1q47RBQFFfkmbPCltnsPGjRt7wnUiYauOcYIss0+SmVs6jSA963wHX2NGQXupRUphOezLRhx2jM73aGO3baF91XClveDy+qy92dhFux/98lg6R57yfLI3XOlehOFiObhWu2fHdJR/9n2LxPhNe+CNO/OqSZXUY8Jw77//fm8uCMdxVM0ZKRAOqOAxXgTVdzqqNvHJE7+lNhPO73xOajrqtspFGoofRzv8Jq1c1ScMeB4qs64d1gSQPzuI5hBMeYqPr3sC9yWcERswylO6MU3lT8+un5nCmFE5dOhQ8tnt+pRTTknHgt22c9AuhrGAnH322WknajSSvK3MBPKU53Pt2rXJP3jwYPIjHUE3pRxcq7Z35MiR5APlgh07diRfEH/nzp3p+KWXXkr+pDHvc1Illf/w4cPVqlWr0kOm0mzdujVt8/7FL36xjtF9mZwDqbu4G264IYUBnSSqr1RnqcOo2iVBhapNfNR8VYJINA2Mom5Trssuu6wX/7TTTqvPdJGqzxb2nKejJ33S4nns27cvhVN2TABf//rX6yu7xDzhE7cz0kpCiPsiSHIwh1x77bW9+JhfuV6ClsarewLp8RtHowYaNfnDNIJ5g3Nsj08eSdeY2aKj8SR/9erVyR/E0qVL66PBPPHEE6n+n3/++WlAWRpsjgIDQQZ+GqjipkOpDPQl69atO0EAgoTye++9l/yJo9ao5oWSeqywXI3V9uaoyhHCuCZH6n6TOoyLEBdX2na90+mmc9HUpbBh1W2Vi3KU4BwuqvoyQeDy++geJRNATAPIR56Gng9bxcd8Ki5b1UdKz0BQtjwd4FmW8mNMv7bfj371MKL6TfwSTenQ5qi3al+0g9jG+uWxdI42R1jJET9SCoNSXvmdt1Ghsud9xqTQmtV9d999d33URRrSu+++m/xBPPfcc8m/5JJL0khGDpX59NNPTyOR3BTFyAQNYBhGVbeZxG2iU0GnqPpoMZ3Gko7z51EyAaCJAZpjLLM0wB//+MfJj9x3331TzCEc8xxefPHFOqQ/PEPMrUzwcp94X/H222/XR8bMDGkVr7/+evJnG9ocfQB1ttPJp3agvmS6YGHAmkAb7gyukV49N1OwYpC3kjld5kr6vkmktUvQTz755PpoOGTvxZSFCS06dcC5qZHOfVhGVbdL8fshIZVTMgGoXHl5ccCqomGYznOQkOTe+T159tDRsJJvzEy59NJLk88gMe+gZ8s8Jz7/+c/XR8c59dRTkz/MvJUGhwwoNQ8FcQA3Klqp+PTTTydf8EzuuuuudKxnNWm0VkiNSkd1rzrqb9ENM6E6jpTKinv55ZfrGLMPArt0TxwjUmNmAzQdBBSDROZumevBsdiIueBRQXCwaIj5X9Ljf6uuvvrqpLHEzv5zn/tc8m+55ZYUrzT3LJYvX56uZ5GH0mUREwM4wmcC8/SkgQBkjkt5Zj6NZ7N///70rCaRiRFSEkD4K1euLLqZ0EZ1W1pXqay4uRDKGlmifZXuiZvUxmJmRqmjHqbz3rZtW1qcA3TSOOofHXPOoIUTJ510UvKpx7QfzHOkh2DB7MfALtbfK6+8smcGJN6///u/12e6xPxjNeF6BIrSZbqCgdv69et7bSdSChPKK5CnN954I+Xl+eefn5Jn0i+tdJwYmJiaL0oTjaUw6Dz4FJ5PhHYqRXI5TNYTvzQRyURoPpnfFBdKE5dMSpbyExdOMAkrmsolmu7fdN108gQsaohxm54nlO6pRRClhSUqb0xfsNAlPgdjjJkJY6dJMXJgbgk1GpUXB4wkOp1tmtTX//7gULtRiXNb7nRpo7rNIo48TzieDfkaxo7eBBoR6DnzHLWk/cknn0w+ZgyZNXCYYFjuH5fuG2PMjKiF1bzAiD3XgkphoJF/PpJHQ9DIv3QeTYGlmjrPMWFxWSlwrml5uLSWfIk1GgLaC/lV+qRR0iiayiWa7t90nfKU34tykSdpNzjSyDXHpucJ/e6pspJ+fIY8G/Kv8/hNz8IYY0ZlCX86nYwxxhjTOiZudZ8xxpjJwULKGGNMa7GQMsYY01ospIwxxrQWCyljjDGtxULKGGNMa7GQMsYY01ospIwxxrQWCyljTKtZsmRJ+jzXMPB1c+KzO/VcMJ28mNnBQsoY03o++uij+mg4jh49Wh/158wzz0xuOsS88H1MC665xULKGGNMa7GQWsTw5XJGgTP5Wrox48yHH36Y3KiwZxufP929e3cdYmabsRJSVq3nBm+tYYxpK9akjDHzStM80KBFDwxS2TeNOBqsao+zEq+++mraW4643I/93/KdtUmvKS/sj6Z7sW9aaVduUF4i5JUwXU8+8nKRHulyf+Lgl+5DXvK0sIIsFsZKSFm1Nmb8YdNSXBOlRQ9smc5GnrBnz560welDDz1U/dEf/VFReNx+++1pA85Nmzal+AgAtlu/44476hjHyfOCUGBDz3feeae6//77k9u3b1/12c9+to5xInExBYLzsssuS0KJa7n/5ZdfnjZkFeSZ8rDN/JYtW1IcfH7HDVoPHDiQ8vLSSy+lOLjTTz89bXSK0F0UsJ+UWZx0KnzasNAbFZr5hDpX6nq0MSf1MqL4+UaebLJJeNzIU2mwCWfctJQNO7UxaAxnw0/CIgqL7YLrdT/OR/Iw8knYK6+8UoecSEd4pTj5JqRsrKr7ck/KwcatccNRUF6IP+m0TpPSZD4jDan2qLeC36U5KVT7qJ5zTFiEEU5Ur5UWI6cczpGXqPY3qeNAGPFlXsBxHSOhHOKW1PycPD3ymi9yyMvUL4/DoHIMepbGzCdoThs2bKh/dVE/8KMf/Sj5kfvuuy9ZXsQpp5ySNCkotXdB/Ufj6QiGauXKlXVo9/p77723/tWfc889N/kPPvhgYztEI4Jrrrkm+eLss8/u3ffdd99NWh4a3JEjR1K+5U477bQUpyOkkj/R1MKqNWh0z+iBkQ+/GTUIzuUjGV2j+DiNmgSjJ211znbrxIlbweejNMK0DT33I75+c12EUU4el5GS8pDHj+nEfERIJ0+POLHsKhOO88TTCIt7DIL4xI0jRl2PH++bxzNmVKhLuBxpQdS7CGGx3gvaXX6uKQ1As8nPqZ0JXV+6H5TOlcKkKeFo33nb6XcPofbZz+Wa2CTSWiFFB5+ruMC5+HJVUUvxo+DhGuLlwoiOnvBcSBCWxyd9CZ54L+W5JLwUXyYG1HN+U4mbUGOKwhlIL5oQKBP5juYLoOJyfV7WHOU7NiCuyZ+j8tMvz8YMC3UJlzNJQgpol3GQF/uHfvcQsV8hXyWXt9VJpLULJx599NGkYg/i0KFDyUeVz+PLPIBJTCp8bjLAJNARBkmtzs0AnUo0JT7pM2EJqN+iUxGTv2PHjuQL4u/cuTMdM/EJqPOdSpvU/ab/T/rhD3+Y/NysSXpr165NxzJLXHDBBWkJeTQFiLfffrs+Gh7Kmz9H3fPgwYPJN2YmUP9nA8xhEM16/VD9Peecc5JfYvny5cn/4IMPkh+ZrgmdfG3btq3qCKvU97AoQm2eZxAXUpRQPn/3d383mQBLLm+rk0hrhdTJJ59cH/VHNtnVq1cnv4RW3lx99dXJz1mzZk3ySxUzZ+nSpfXRcQ4fPpwqYanCqAG99957yYcnnngi/QMhq3uYd8vnrVSRqYRNSEi++OKLafVPdNdee206R+MYBQQd81LkTc6Y2WL9+vXJjwMq6vytt95a/zoROvS8nTz++OPJp+3lsLovDgIRMAwMYcWKFckvQRu+8MILU7vKr2el4CiQZt73sJIP8mXpDKj1XJRPylISkHP1fcK24f+TWgDQVt54443qqaeeSgJu48aNaXHCdEdqQAPtqP1Fd+edd9axhodFFwg6NEY6BjljZoubb745+Z/73OfSMmocS7b7QT2nnTBg0gCKJeiE59YRwMLAIJD6THwWH9DWsHpgzegHVhwgT8qflr8PgxYecR3H5AFLD3nVoBXrDdoUA0rlEX/VqlXV66+/nuKQTwQrVh7ur/TwWVBVWkA2kdRmv9YgO2ynk61DpsK5aMvV/AvXNYFtmDidSlKHTEWLBeLcTn4fUcqfbM4l+7Dy12+CE5tzjKP8ND0D0NzWILt2P/Ky6DkxjxbnvmCm9zImQl3XfC0+dVH1L28rCqNO6hraHO0mb3PUZc6TFmmqbeoeOdRp4uTk92JuiXtxnM8VEyeGcS19DeG6vpRX8qi2juN+xMuXlZMe+RwUb1IZeyGlzpoXl1eCuHBAFS5PN3bMkfw+opQ/CZm8EZAf3bdfhaISEkeNk3zzO28MpEdc0VQmIN6gSpyXBZ/f+QIJhVtIGWPmm7E396ESo8KjyqPSow5L3cY8IKTCY8qK6jVqdGekUz3zzDPp/Ch0hElKAxOZzBEyEZCvjtDpmRiwN6OqKw/Ew17N9ZdeemmKg/kC0wDmjJge5eN/L8STTz6Z/FgmHGXnv+2n+00+Jo3JB6YJpYdJgfQJN8aYeacWVq1Bo3s0nBKcyzUM4DppFjhG/fkSbDSCqF53Ot5GtbnffTiX5480SIs0lT7X51oO8aLqrnh5emhNMT38UnoyGQyKV6JUFqWnvGG2IC3yTLgxxswnS/jT6YyMMcaY1uHVfcYYY1qLhZQxxpjWYiFljDGmtVhIGWOMaS0WUsYYY1qLhZQxxpjWYiFljDGmtVhIGWMWDHZ81g7Q8avjfDWFsPwjqtqBmi+wmMWBhZQxZsHQnlAQP+PFVhmgbXaAT4rxRXCYtL3NJJTxpwOfTdN1o+yiMA5YSBljxo7NmzfXR3MHWhwCAO1trpFQli+kOTZty/Hwww+n73xy3a5du+rQyWJkIdWkjpvxp8kEY8xCon2WzjjjjOrKK69Mx3OJtDhpb3MJgib6QveOGmWEDRX37duXrmPnX9rupDGykCqp42YyKJlg2DHU8wFmIWGHWvjbv/3bids2/YUXXuBj38mfLjwLXb927do6dHKwuc8MBYORSZ0PMLMP80dYWTSwwTF/MupIn63jqX9syxM7YgZPbCvD9je6D1YetpmJYBHQ+Xzb9dysp7hxR+rStcwBaWscndc2POQrovxxPdfouchSkVumiMdvQV74Ha/pd/+Jmp/iK+ijwKU4b4Q3eWgLD5y2/GCLEW0Hkm+KaExEm3Y2ubhxZ6mugcL69S/UScUruVhPSVvh3DMSt84BtqvR79xpY1K20mEbm1IcHG0lbgEUw2M8lVm/VV7uE+NFp6114tZEuSNvk4I1KTMUbNr44YcfJpPCtm3b6lBjynQ60LTZZ6czT3WmI5jqM1X1+OOP10czh/mpjtCpOgIh3QefMLj33nuTP13OO++8lFZcnMFv3DXXXJN+s0hBUx4dgZLOUVY0PUDrY9PSHMKZPyIueWWj0RLchzQFeVEeyJ+48847q47Q6t1feSZvkzKfPCdCKldBOUZdz5GqHk0C0UXVWuaDUjxcfCGYFLQ0E4cKTJ6GVYFJK5oq8HMVXue4T47uzX0F5Y954nrukVekaBagHPE5ltR4qfy6LncyHwBxSSPG5TzPdhBxTiq+F8jfo55XzOtsm39Me2Fn6bfffjv5mjuKJrrZmsfWwOnGG2/s7XyNv379+nQs8/RcwCIFQOBIcFFWBnAIaHjkkUeSH0GAstCBuOR1JnNrPOO77767J7RI66qrrkrHMN2duVtLRwKPBJfipJ4Kfutc7qL6jbqcq765k2odVfUmJxU4mg9yN4wK3O9e5FcqfCxnVOs5Vjg76wK+wnIX04QYHuPJTed547Sb7qDnPcgE02QuIe9N6SredMw/ZjLgnVM3S3Uj1uFSXYNS3BJcQx1vMn2JpvoLsQ1FmsKjObBk+i5dp99N5Wk63+862h59S5PZMT7PcWZWNSm0BU02dioCbyipoKiksH379p428txzz/VGOp2HmeJiHhCosBqh7N69O/mMUDovJsVVmp1GkH4zmiDtm266KYV3Km7P1IA6DqjAJY0u8pWvfCX58V7kj/tEFf7mm29OPrz22mv10dTjz3/+8/VRV13H5EF6uGgWiNcIwlUGHCM24PlK+8LPnzfPjbwC5dazwzyRP2/Kp3RvueWW5E8XnofSldmDdMl7ZL7MP2bhYfXnxo0bU91U3ZgL0MIvvvjiVAcPHz5ch849UUNZunRpfTS/0NetWrUqaXQyO04snQ5jJLgUFyU8x4QxqonEUYy0I42gmkYOigdKN46AYpolLYpRRkTh0ixKxDQZCUaUB0aG0Olse3GjhpbHayLeK5arlCbEsnEtxDQiykMsq+JJuxMx3dJzLN1rmPwOg67N64AZb6j7vFf6AdUpKL3vUl2DUtwc6rfiRW1c9R8nYv3NtR/qbh4fSukIhZfqPeXmXOwHFb+pPE3nm8LpH3WOZ0h/BE3Pc5yZVU1Ko3pGNZp3wDHaEUePHk2+RiBcozmRqOXEycFTTz01+Wgf0sR0L1DcZ599NvlwzjnnTMmD6GcP1z8LAiPBeL3up5Eh9l9pC4xkyBdzMIq3ZcuW5IPmjeKcVHwmJc4666z6qJmTTjqpPurOAwLa1fPPP5+O16xZk/w458TIK5ZLmidM14Yd073hhhvqozKak4tzUmYyURs5/fTTe1p9Po85G8S2THsH6qTqf2TlypX1UdfqoPbK3GmTJqJ+B0iX+Op/OkIj+Vyrsik9aXVYjmaKnh9l0v3x1Y8CZac/4twkWiXmfXWfhBP/Ma4XQIdNp4VggM7oZEql0uQ/L1/CRxOXMpsNS6x4o6A8w5e+9KX6qGvmO3ToUP1rqqlv06ZNSRhEwTobIJzVWEif53L++eenToJ86nkOSxR6s8l8mX9MO5Apng582bJlqV5ee+21KWw2iSZ39Qv0JU11TPlSP0Le6Edim47E9k26xNeUBAsWdB1l495KD+jD4vWjosEuZSJ98n3kyJEpbVsDas5NoulvVoUULwaYf+hoaUWneSY6dHWmxAeOqUisfomocyeeKgbHjIjicuhPf/rT9VHVm0/KneZoSqxYsaI+qlJlLF3PaiIhTQV+9KMfVU8//XQ6Jm9azYRmo4qD5hXnuWZK1Jr07IH7vPzyy70VT3GZK883L5Nc1F6HIabbbwSnpcA8F+bMdD8zmezYsSMNHtVW8flNe4U4UKRjFXGQpD6h36CS1YPMgyouUPc136n7C/JF/Vc4bYZ2/sQTT6TfeXzSz8uhPoK28sYbb0xJD0iTcvIFiLhyb1B5ms6TZ1lsgHjEoW3Th8R2zzFhys9cDTrnnU5nMRJciou20mgP5Vh2UuaHsKF2Hl76DVxHvM4LqEOaUZpxnqpEtDuTrualyAdzTJ2X2NdOSzzyyPV5XGzepEm5IoTpnnKdil2fnZqnToVOYdyHY4XHNBWW26Djs1W+FNapuL1n3YSeN+WL823MGZDfpveoe8VyxPwqXZzeD3khjuLpPM9U+Yw29bysxhgjZlVI0QHREelcyQk6xtJ5Olw6/jjh2pQm4XT2sYOOnX/JRcFTgg68dJ1c7KAB4ZXHiXkHypTHiS6mqbC84yaOzqkMpXvjEERcHyeTyZMEcMnF+5Xu1SSkSFfhuVO8Qe/EQsoY08TIQkodb64JaRQdBQtx6ajiirt+nRuODrU06i65vJND0BCm86RFPgcJKEE84sdOnfSiBhKJQohy51DuqHERnzIpLGqITc81Ck8JQZ5PvHfJxTKTD95Dnl/eVxT0pXtxrcJifoE4efni4AGfQYmeJz6/JQzzshpjjBhZSM0EOi11WHkHFTUsOtg4go+dI2lEQbQYUfkRClHIRA0raj3GGDNuzPvqPmB1SlyBw5JKYAllZ1SejoGJv7gsPC675Hot9ewIvOQvNuJqwf/4j/9IPs8ybrWxUP9saIwxs8ESJFV9PK/w/TgJmRJ33nlnWuaJ4IorgErs378/rcRZbPA/GVryWmLdunW974QZY8w48l+/3aE+nle+8IUvVL/xG78xZZ8i2Lx5c/q/Gn2m57d+67d6/2/wb//2b9V//ud/pmO0J/6BdM+ePdVnPvOZFLbY4LMo/F8UGibPRiCc/uIv/qLauXOnBZQxZqxZME3KGGOMGcSCzEkZY4wxw2AhZYwxprVYSBljjGktFlLGGGNai4WUMWZRwWaJfDUcpw1ETXuxkDLGLCriP7vHPdSuuOKKJLjwh4V/l+Ea9knTXlNmdrGQMsaYDtpSJ9+TSRt1al+7yMGDB5PP/3r221DVjI6FlDHGdOCf4KMv9LGBkhDSHnZ8XKDf3ldmdCykjDGmAxsV8m0D/GFh01WuYTNUbTJqZhcLKWNMq2BuJy5s2Lt3b/rWp+Z+mAcq8dZbbyWTnMxzuOuuu646cOBAHaM/mpOSWY/78lvwQWelqwUXcU4qwoeeH3vssV6+caQbF2pQTr6/GeOQB64zAT6LZIwxbSFuz8N+ZzqOji19InEPtJKL8bWPGS7ut6YwtsCBfvvYaZ+1pu2CmvKttOP+bCWXl28xY03KGNNaWMTAjggff/xx2sZH2/Js3769t5oOf+PGjemY+aSOAEgmuI4Aqi688MIUHuMPyzXXXJPSEXz8mt+48847rw49ETQ3Lb5Q3nF8DDtCWQhTfvFVvnvvvTf5xuY+Y0yL2bp1a9qyh6/5IxjuuOOO+szxpeRs1SPo3DU3tHLlyimmwddee60+mlu++93v1kdVtWPHjpR33I033lh9//vfT+HkkXkswpRf/PXr16fjuDPEYsdCyhjTWtasWVMfdbnyyivroyppHnDo0KHkw4oVK+qjLmeddVZ9NHXT1LlEm5GiefXbKkdzaHFOKm5karpYSBljxoZf/epX9dFx4tLwcdk/ja9eXHzxxdVDDz3Ud/NXYyFljGkxUUsC/fMsSGu66qqrkg90/pEPPvigPqoG7vA9W+j/rNCKWOVX4vHHH6+PquqVV17pzXWhfZmpWEgZY1oLmoaWZLN8Oy4okJBavXp18oE5Ky2QwJx2/fXXp2MWJOSmw2HRYobnn38+CR3SbxI+wI7hYteuXb24LKjQ8vao/Ul4kl/uYaZiIWWMaS0IiJtuuinN15x//vm9BQWsipNpjwUSrKIDVtXR6RMfc5riP/HEEyObArds2ZJ80lq2bFlK/8iRIymsxJe+9KXeqsJ77rknXUN+WIEo4XTzzTcnH0r5NcexkDLGtJb77rsvCSRpM3T+Tz31VFoVF2EFIKv84ieNuIbVgSxd37BhQx061ex30kkn1UfdtCH/vBEr9EhHEE9xtBRd+QOE4Y9//OMkOBWuvJBPID+UQ/cEzmP6g5jeYmfJMQyhxhjTEjB7oVUAAioXSGZxYU3KGGNMa7GQMsYY01ospIwxrYL5Hs3JLF26NPlm8eI5KWOMMa3FmpQxxpjWYiFljDGmtVhIGWOMaS0WUsYYY1qLhZQxxpjWYiFljDGmtVhIGWOMaS0WUsYYY1qLhZQxxpjWYiFljDGmtVhIGWOMaS0WUsYYY1qLhZQxxpjWYiFljDGmtVhIGWOMaS0WUsYYY1pKVf1/j7VEpnCvbfIAAAAASUVORK5CYII=;" vertex="1" parent="1">
          <mxGeometry x="83.0042813546318" y="2151.00435546875" width="425" height="363" as="geometry" />
        </mxCell>
        <mxCell id="Fnz1tmBVVwKyuUZF2mA5-19" value="" style="endArrow=classic;html=1;rounded=0;fontSize=12;startSize=8;endSize=8;curved=1;" edge="1" parent="1" source="Fnz1tmBVVwKyuUZF2mA5-16">
          <mxGeometry width="50" height="50" relative="1" as="geometry">
            <mxPoint x="213" y="1968" as="sourcePoint" />
            <mxPoint x="251" y="2150" as="targetPoint" />
          </mxGeometry>
        </mxCell>
        <mxCell id="Fnz1tmBVVwKyuUZF2mA5-20" value="" style="endArrow=classic;html=1;rounded=0;fontSize=12;startSize=8;endSize=8;curved=1;exitX=0.008;exitY=0.536;exitDx=0;exitDy=0;exitPerimeter=0;" edge="1" parent="1" source="Fnz1tmBVVwKyuUZF2mA5-17">
          <mxGeometry width="50" height="50" relative="1" as="geometry">
            <mxPoint x="135" y="1988" as="sourcePoint" />
            <mxPoint x="261" y="2160" as="targetPoint" />
          </mxGeometry>
        </mxCell>
        <mxCell id="Fnz1tmBVVwKyuUZF2mA5-21" value="" style="shape=image;verticalLabelPosition=bottom;labelBackgroundColor=default;verticalAlign=top;aspect=fixed;imageAspect=0;image=data:image/png,iVBORw0KGgoAAAANSUhEUgAAA1AAAAFRCAYAAAB62Ey9AAAAAXNSR0IArs4c6QAAAARnQU1BAACxjwv8YQUAAAAJcEhZcwAAFxEAABcRAcom8z8AAP+lSURBVHhe7N0HmGVVsTZgRcEAKoIJxYBIUDAgCogKKkkxgIhEERVUVBQURAEVEREQzDkjZkVERTCBWcSEOQfMEdNvuPfqvfvf7+quntWLfbpPz/QMZ2bqe5799Mw5e6+9YlV9VbXWuUqXSCQSiUQikUgkEomxkAQqkUgkEolEIpFIJMZEEqhEIpFIJBKJRCKRGBNJoBKJRCKRSCQSiURiTCSBSiQSiUQikUgkEokxkQQqkUgkEolEIpFIJMZEEqhEIpFIJBKJRCKRGBNJoBKJRCKRSCQSiURiTCSBSiQSiUQikUgkEokxkQQqkUgkEolEIpFIJMZEEqhEIpFIJBKJRCKRGBNJoBKJRCKRSCQSiURiTCSBSiQSiUQikUgkEokxkQQqkUgkEolEIpFIJMZEEqhEIpFIJBKJRCKRGBNJoBKJRCKRSCQSiURiTCSBSiQSiUQikUgkEokxkQQqkUgkEolEIpFIJMZEEqgJwX/+85/usssu6z74wQ9273nPe7rvfOc709/Mjb///e/dV77ylfKM69Of/nT3hz/8Yfrb+fGvf/2r+9a3vtW9//3vnymjvj7zmc8MlvfTn/60fP++972v+/73v9/9z//8T/n8L3/5S3fRRRddoZy4PvKRj3Q///nPy701tOMb3/hG96EPfWjmXn2hbaPa413aW5cf1wc+8IHu61//evff//3f03dPQT1/9KMfdeedd97Mvcr4f//v/03fcUV4Rt3q8o3P//3f/03fsQQ+M47nnnvuzL36d1x4/re//W334Q9/eNb74rrwwgtL/f/5z39OP7EE//u//9v94he/6M4///xyr/aPgnu1IebbqOtTn/pUGZtvfvOb5f/G55e//GV5voZ71M09n/jEJ7o//vGPV+gf9xh/91x66aXls7/97W/dRz/60fLZJZdcMnIc/uu//qv77ne/W+49++yzy/3mnrHTDuUErKWLL7643GMu/v73vx85Vj/+8Y9Lm8wX5f/73/+e/jaRWLVAjobcs/7+8Y9/TH8zN6wvz8RlzSwE5MU555wzqwyXdUwefO9737vCurOeyQP3WfOxvt33gx/8YLC8uNSXDGih3iGjXMogq+iyIflA7n/xi1+cVXZc733ve4vs+d3vfjd99xKQ3xdccMHMvfqczJ4LZA95FmV//vOf7/785z9Pfzsbv/nNb2ZkvIucJx/Hhb785Cc/OfN8XMaD3vnqV786p86NtukbMn1cuPfb3/72jM7RXvYFnTU0XvCnP/2p9EXU0Zz461//Ov3tEhg/fege/VfbGHTVr371qxmd+oUvfGHk++jVmCN0H33kfWHTfO5znys2EyhX3/vcRY8Y+xbaoL/ZBOo49G7z2jz82Mc+NlOe8dA/1k9iMpEEakJgob7uda/rbnzjG3dXucpVumc961nT38wNwuW+971vecZ1pzvdqXvXu941/e38ILyOPPLI7nrXu95MGfV1xzvesTvllFMKgagX/mte85ry/bWuda3yPYMZEJ7b3/72Vygnrlvd6lbdm9/85nIvhODT9gc+8IHd2muvPXPvNa5xje4+97lPKZ8gqY1rzxGm9773vWeVH9c1r3nN7kEPelDpC0I/QDGcdNJJ3Q1veMOZe+985zsXAjlKCWnTgx/84FnlP/vZz74COYPLL7+8e97znlf6Je494ogjRgrsFsokaG9zm9vMel9cN7/5zbtDDjmke9Ob3lRITRBXINjf9ra3lT52r/eOgrY+4xnP6NZZZ50rvKO+jCWD5MQTTyz/v+lNb9q98Y1vnKU4jYU+MvfimXe/+92z6gZf+9rXulvf+tblnqOOOqp8puxo63777VcUbA2K5Sc/+Un3lre8pdt///1n1kdcm2++effQhz609AfDAvTDHnvsUb7fZpttilIapbRe+tKXdhtssEF3/etfv4zpXEQ6kViZwYhbf/31y7p43OMeVwy2+UAeHXPMMbPWHPk2rsFONrz97W+fJQ/ry3p++MMf3n384x+fVSan07777lvu2WSTTWbkAmPU++mGtqy4yLXawcSBwrh9zGMe02244Yaz7iV7nvjEJxajnm5Q3wBZvueee866v77IObqkJWzk981udrOZ+/T50UcfPcvJU4MsfcpTnlJ0lvuvdrWrdQ94wAO6L3/5y9N3zIb+rPUXuUk/jwv30nnxfH2Rg7vsskvRuQhiS5CQq1vc4hbl3oc97GHFeTof6AEkmY5/yEMeMmvsbne725W20x8tiQbjsu22287cv+OOOxbS28I7jIV7rn71q3dvfetbp7+Zcqgh4XSF743pEPEF7bnLXe5S7mM//PrXvy5z7653vWv5jI2CjAFdcfjhh5fPXTe4wQ26l7/85VfoM868e9zjHkXX0jGt7qS3kL7HP/7xRRdFea4tt9yye9rTnlbqbx4nJgtJoCYEvE0vetGLZggEUjMOXvayl80I3rjmMpxb8Obtvffes55vL+SK8Vor3Be+8IUz3x933HEzxiuhe+1rX3vW8/W12WabzRJuBDKhut5663VrrrnmFe4nDK9znet0G2+8cTGSQ8ERirxwYbQPXZ5FJpCKUM7acOCBB3ZrrLHGzH3+rQ8Y6kN45jOfeYW6EWpDHlyEFumr773f/e43tteWcKVobnSjG80qI66rXvWqxRjRX7vuumsxigKeRWxDuT7iEY+Y/uaK0B+EeRhUoy4KlXJ7xSteUf5vrml7jDfoB6QYuXLPWmutVZRB7Sk0bjxqoTxPOOGE8jlSdd3rXrd8NmQ0fPazn+322Wef0t52nruMsf5A9IOYM/ruec97lu8paJ7OlsyBz5773OeWNcdoseaGvJuJxKoA0Z5YN4xfjqv5IFJ1//vff+Y5F1k5V3S7BqP41a9+9azn28u6ZrSLEAS+9KUvzbyX/iEnQGTBOm3LqC9yLaIEDGAGOqOfnCA/2/vpK9+T83XkgpE9l35RFrmkL2UdgKgEB1OrL8gnuqEmaOD/ohohr+Lafvvti9OwBRlP39b3krv6eFyIwIxymLrUnUzeaqutikytnUqcliGHEZEYl7kgkhM6viW+5LfPjVkQkwAdT9fUY0ZXsz1aIMx1v7z+9a+fIbX6GCHfYostynecavq2zaIIorXRRhuV+x796EcXHYFw3va2ty2f7bTTTjN2kPlBN8U7Xfe6171KewPezTkQ88jcrYk0u4AzEbGvncdxaTvidctb3rLcNyoqmbhykARqQmBhvPjFL54xaAn9+SDqw6tGAfBwIBmeFS1phdEo8Li4n9AkiJ/+9KeXEL3rla985YzXhlCR8hBRF2TP54xlHr8wqAmPEJKiQ6961atmynMhWFE30S8CKO6/293uVgx19yFHnq2ja4SX54Fg4p0KbxEBx4vjWR5AUZpQYoR3eOgILO+kBAhv9XcPz09NRgIU4+67714ENyEWdTn++OOv4GkC9ScIXQgOAqdujPgQ6HOBskKCwlOq/dF3omm8r+E9VKeDDz64eEBBfV772teWKJXvH/WoR5XPh0B5/PCHPyzpClG+S7rJbrvtVp7Xhkc+8pHFCKFYeMMQDeMQ7wRpC09+8pO7ddddtzzn2m677WYZI+b3qaeeOkP+gkRTwDHnKWSGUwBxQ3ZjjHgiTz755BItVFfj/5KXvKSQe8pe3wCjjSLzjM/nIlDKQxK11ZpLApVYVWENh+OolhtzgZy3PkVU6An/5tw588wzp++YG0Gg4r2iTdJlrV9GLtls7ZHViEjoF+lhEUXm2Q/CRh4zQsOoFtmp5ZeLXCPfZB6QpSEPRb+t99AT5Cn5Fg4c0TB1ClnBQEZ8fMcRQ77QS+TO6aefPhOVUD9yE+ilN7zhDTMRt5Bd+ky0u41wM/y1gZMQqVFXfUGfDxEoMpFe4SQzHv7qi8c+9rEzfTcfRES8T7122GGHouf1h7b5N/kf4yXKhgAEjEs8i0hHKvYo0PXqFjpeuxAg7xMV1I/G+dhjjy1Rqho/+9nPilNNv4g8hYPuSU960hWIBCeerB3f01FIbK1vyXW6xPfKecELXjBDsgPKNMb0E70t6wHoqCBAnKFBoNg8on8+Z0vQf2wxkbA6mqr/kDZ9QMcEgaKvOcBD/5lriCT7Rf+cddZZRbdZH75n39Fl46beJpY/kkBNCCxexmAspkhxmgs8VwxV5IYgEnkiUP3f4iPM54MI1F577VWEtugQIVpDpIDAJHQQmkiNQPbUk4LguasjUOGhQmJGETnCgxEdRrd2EDS1V0j9eU0JXe8hSBCXAAEcSowiqEHoUTAEG+EnhxlEmQg9dUSIkBHto/Ao+jr1gwBWR97JO9zhDkXZBikbIlAEo3QQyoeSo0gpI0KVwdIK/SFQsCJQQaCUV8P3FD8Ppe8Je/eDuvt3GAz6f6FANCMtkhKRLqEfEG0Gjs/NUWlxAaSUggul65IaQ9kGeLsPOOCA0s/IDS8oGCcGiGeMFwMBKDxRLMaNZ6RTUCptGoy6MQSRqngfxRhtQKAopFEEKhSmuWXNJYFKrKpAoBiX1oXo9HwRKIaaNet+hiwHmnQ6/2fEtmRgCAhUpHu72ugBHRayjDMs5C9HSqTP0WlBoBjVjNAoj0E5CmRMOJs23XTT8u5WfpBr2hLlkZneAVL6yA+fk1m1PCN3ImWMTqjT0hnvQaA4BekO+obx3aa80UeM67hXf4s4+LfoewsGN3nFmSVNOhyM6kd2j6Pz9UuQxoMOOmiWo8vzvg+y4SIXOdFAH8SzUqfnikAZeyltN7nJTcr96mwO1eTCv2WhKDe2AYB6INrmmzHQbuSbrvZ/uqDGfARKeTJYkBDfc4q2aXz0CCcdPWbuxVip3xCB4jhEcHyOfBs7utGY1GuLkzIIlL4MAmQ9br311uV5Dlz2QmsjiJzFGmTLcIrWmUCJKxdJoCYES0OgTjvttOKdifQAKRCxIC26VlkMoSVQ4UkDBqYUJ0KLEKQkwss1DoGy2GvhXIPiYJC71yWKNQQKlRCOvS/aFQIY2QsCJQWiBoXLu0kYImD6B7xXbj1hRigiKMgOA9r99R4c+fZBGigLQjn2DA0RKAqP4qPweRv1bXio9K09S/OhJVDSCFogCDyF4dWTh22s9RUhvLQEikKgpIwpYsvTGwJd+byEyuXxlBYZkNbhnT43f/UlcoroBXFBYClD88zcDmLdEqjwaDIGeH19bk4j0uNCHyaBSiRmYyEEisFJhnJsWRvPf/7zi+wkSz2/8847zxt9gJZA8fzX4KAJGW7Nhmwfl0AxyIdgbZPXcV9NjFrImoi9JxxB4Rxi0AeB8nk4fYARzLkY5b/jHe+Y/maKQEXkSUaH6Lx/k40M/yA56qj+ZD097j661L8Z8i2BIt/pVGVxzIm0kV90EgenaOGQnGtREyjZGNG3NdQzyLIoVDhWjcu4BMqenchm8Az5Oo5NAvqXQ1g/IiT0Mqdw7O+V2lc7W+cjUEAfcwS4B5Gq625MOGSD+NLvEaGSVj4fgdJHUtSNm2gjWy5QEyjRxnASeIdntZFdIyNnCPRopBVyBIggJiYDSaAmBAslUAQRg9O9vCmEPbISAotSakPiQ6gJlEgLBUexuqRp8J4hIRRpnTc8F4EKIWTDZZxuFhfDmVLl1Ym8YsJHWsUoiEzFQQNIDs8RgUfIh/Il4Ag67yDkEaOoHw9jnIIUBMrnSA3PljYTbhQXYRVgIKgjgYw8qId7lDtEoBgZvETKpaQoM/Xwmb5Vdu19G8I4BAoo/VBkUim0m8CnOJaGQJlP0g+913jr53bflr7SF76nrKMtPKFICCVOofAkS4vTR3GaE8IVaTcMqnhWH9cECnEyx4wtZeFzdQlio43meT2nzHPKJzx7xiUJVCIxGwshUNYneYBYiOIw2qTEcaqQlQxZGQlBBkYhCFSsfbLYGvduBisd4TvrD9lwP8xHoKI8acG1LHBZwy5r2z0u/x6V4uYZhFCZ9EykFztEIgiUPuCcci9HGKdefIdo1PteyODIVKAnPad9HIXqwTEHTlc77LDDyncMc/rBgR0I0RCB0m8yLULn0hV0Uhj39MA4WQ7jECipknVkzlgDHTsugRI9iRRIf50s15KaUfB+eoSu0UfGjs3AVlAeXVGfFDgOgUJc6FP30FUO4wg9ZG7L4pEt4or0PTAX5yNQ6qq9Dmeh782nsIlsDQgC9dSnPrXUlY6T0eJZzmFrZFREl46MvVbKNuaJyUASqAnBQggUpSXkjTy4n5AOiEYQOhSB9IZRSiOAQBGEhDvBI/Ig2kRxMiwpApsvpbeFgQpzEajIkUakGMfKi0taFs8UIR7RnFFCPECR1MY0wdUSKPUkiKLulJL2IJTSREIxIwVBoHih3vnOdxZF7n7lEMKEG2GLyCjTfYwPgnQUgaKwI+2Bxyy+ozREUrTV2IxKaQyMS6DqukTkbFkIFCEvxcJzSGOtQAIinOYVIS6vHWnxTkYMwsQYkiYhLcQcdJhGpEGIlipbv0c6JbQEihIyZ70/vI3KC0jxM19iPtmboa/k0YfnmFJMApVIzMZCCBTjlFyxjq2/kP3KYEwqh/EYXvpRCAJl3XsvOUimktGIkc/JbnKuTk2aj0AFQSEDQxbEJZ1XfRmr7nGRS6PAuUYHKtM+qZpARQqgepJxyld3epJBTLYzxEPe0x01geJUo3/IJ2XUqYAckhFZkA4ookQGMeBbAkUm2p9F1onIx/4odUSclIGkzKVHA+MQKPqcjjP+7pPxAAshUDIT6oMb6OtwwM4Fc4ZO1jeuiO6R61K5Ed1w6AaBH4dAgcyQ2POK7ETUByk239hBHNKRSg7jECjzRJojIk2PmuPmHDvC+NcEylzhsIzUPG0UpRoF6zTIlvGo0+cTVy6SQE0IFkKgLECkBVGRWlCnhjHYGcDIiwMmLPK5UBMo720vxrgITWtYzkWgQsAOXcgFEsGjSaD4jDJvc8Nr1ASKshiKQA1dhCzhVRvPQaAoOIKLsmW0h4BEAkSpRDn8232UjPGplUdNoCgFgpNio+zrNBVCVdoFoS+tLVIJR2FcAqUuQaD0ifztpSVQjJKI2LkIeYq5hUgPhWHcEBOKWPsQR3XRJ8ZROqZyKCrzQZue8IQnFOEvxbHevD5EoLRD9DMO7ZBWGFBeeDXrS3/pNzDeSaASidkYl0CRrWRupHCdccYZ099MeeoZsT5nFM53EEUQqFH6xUXGtdHu+QhUELKhi+FKhtSpfkGKhoBASbVWJmdZpCfXBGroQp6QmppEtgRKCjx9h0iRf8iRiJR+8Zcs1TcyMMhJdaa7WwJFvzLeOa9a4hrEgTNJmn3opVEYh0CR6061CwK1NBEouq4mUNIAx4lAefehhx5a+sW41KltsiDoN3XQ7uiHcQmUeRVRT+UEEUXY6AHPIrMRJYRxCJRMHY5hJC/SLEWhzC39wBapCZR1FM8i7fVYt6gJVEagJgtJoCYECyFQFnBsvEUshLjlBLssyjCgnaAn7D0XECieRsrDu+35EVFgtFrwjFsGcb3BE+YiUJSE7xiv8rqVF5cTjAgQBCoIgEjF0G87BGoCxcj2rpZAiVYQfAziENr+Mp4jTA8tgQrF9ZznPKd4FeUvU0Lqx9uoHOUCj1pEzWoCxTuoD7THxdtIUBoPedyUoWcIZ960ubxw4xIodYn+o2SMI2WyNASKwRC/W2IvGQU7BEKfIUDBu+R8u1ffmweMCX0RR567pPch+PoE4ZcDHnMFRkWgeHXjN6PqCBRjRKqLuUTBS52gVPRXKPkkUInEFTEugeId56m3Ltwrii+9jjwjz0MWW591GtQQgkDFe5XlN4Y4VJAVn3Gq0Rs15iNQYdiT5bV+cWkX8qO+7nFpzyi5K/JDPimT0yZOGFQG+eF5Mo6eRYgQB84hnzHaycVAS6CcqkbOMHpDztk7Re45WAhJsAdXncke/TtEoMj7kIfS2MhR7TMuceKossjKUXtpAktDoJzuCgshUCJtoYs5zkRZ5tJ9AbqXbvYcp6RUQm2V3khHRD9qt3qCSM84BArRoqvd56LrfSYl0//pMdsOIrIF4xAoYxK/08SJLVNDFIqusu7o1ZpAuSICRXd5ZtQ6MjesV/e6FrIfOLF8kQRqQjAugbKwKZsQMHNdBF39G0hDqPdAUYyxWZTnhAcliAYBUxuhcxGo8DbymlB4Q6BAKCcCGmkJ47cFIch7GISC0KGw9EN9iER9Ch8vlT1HvEwEt9zxQEugGABQKyiKm2KiyORKx0ZliqcmUAQv1Jtl57r0lUjPqD6BcQmUOgVRdQ+Ci0At9BAJbWLAuN84mC+1d7MG5UfQx/gySmzs9W/kKH7HRd2QO33s5Ct1si8MSTOWsYkWWgIVe6AonTCwpFQMpT7qf2kY6mOcGGqQBCqRuCLGJVAIBZ1A/rl31EW/cLiNOigIgkDFMxGdR06Qi3hHe0rpfAQqyhu1d1ZZkTbsIs/J1iFwMkb6MuIiGgHtIRLIA3AI+d0qn0vnkwbO6QMtgWLUgz09DjCgA0TwkAI6SvvpUjJXZsUQgSIvI31PmXNdDPeIqozCOASKXKYX6FDymbMMFkKgzKPoP7I8MgTmAn2PdISeneuiv6WDe8Y8G4dAgXogM+5DZs01hN7/ETZOvBrjEqjI9mEP0PPGka1h7MwX74xDJNRXhpBn6Ur1qKNeNaTscZgbC3NGVk1iMpAEakLQEigCfwgMPAKXUmFAW1CM07hEnXzGqHQdeuihMwcoDKEmUISviAEgKIzjSOMgAGpFOQ6BolzrU+1qMIhFZ+JewmRIgDCoCXnv0V4Gb4CiCwJFwIRhThHFBljP8Z6FgmsJVOz1UX9eIoQuIlEEHhJCEQDPGENbuQgUYqqfKKQ4EIOyMQb1mOjDIAkUCYN+FFoCZc9YDe/TJ8bV94R+9Eko2nEJlHfxqroXAeLhq42YIRDePGueYYRFeiKFH6mklCzyra9EMkXI3KNf6txyaAlUREyNE1LsOcQWEas3DQMjzPuNMXI2RKAoxPoHOmskgUqsTqgJFPkxypEjUkC/uM9ab+WZSwTG9+4b+v28QEug/A5TGLbS/xjY1ri/NRkal0DNlZrHEA8i40d5h4iFaBvZEpEW+1QjglMfY+70wTp1ChEkM5WvntK+YYhA+Yys5djTnwxm+sX3ZF+USycOESjki6FORul3+qQeC+MT2RKe9Z7IjhhCTaA4JNkANehh42Rc3EP/hmw3LuMSKG1WPvnsfmMQ/VSD3qJ3zBUkJJyX3kNHt23lLFMmuU0P0wNQE6hIwxyCftW/9DtSK8NGih29798RSQqMS6DqzAqEk05SR7YN+0Sb6JiwU0RL1cHcoy9b3QjahnS5x71sJoePJCYDSaAmBC2BctoRA72+CBjeET9kakEJ/UtjQ2zqi4EexicBNFfItyVQvGkBgpvAUB/f1T9IOg6Bsjem3p9Vg8cNWYt9LqJfTnYjYKO9hLN+CAGsnoQZIBI1gRJpqo1fUY8wFuwRCgUcp/AFgYrf79AuaXyEs2dcFFb921AtgaIYKWD1phB9p4x2PBAe5MSYGROe0VFoCRSCEP1BYBP+Ik7RxwR/KGARGc+OQ6AYMdIpEQz3xklSxiXeF1ftyUMmzTt9a64yBlwUf6RTMAS0lwKU5hJ9yosbXrpAS6DCy2s8nIoU88Nf/zefGAfqhWyJTvneO+oUvkhrofhEzfRr26YkUInVCQhUEAWpXmRivSY4mawtBrh7XFJ2W3lGBoTjhVFI5oSMbNESKOnQEeEmrxisZCd5zNgOR9e4BIqTbxTIktgvSYfIiKBTor0cbaLoEekW9eCAIteBIR0E6u53v3vpvwA5RB/5DqkhSwMtgfKucLQhAD53hQ4PBx3iVhOo2C8rvT0Iq8N7vLsdE7YDmUy/cFqNii6CeiB/yqMb9XX0CYenyCB973v3RWo2LOR3oPQjmyF0DD1h7IyLdxl/upETU9ok3aDNxkz/sR/ou7at+hdh0X/2VoWTtiZQ5pzyo10uc9E4GFdtJPO1j4PO++gY49hGrpaGQMVYcvoql47Tb3RMkFt6O/SUNHRpiuw7a0l9vQeRZae4Rz3Zcm39ElcekkBNCBAohngYk6JIvBL1xVPG41ankYWwryHFLfK/CVTpd6OAQDFcLWCKpP49C2XzBjHWeT8Qj0ilUlflEzyUYAgPRngQHgqRgBwFz/CuMGDdLx2CpybaS/ASur5j4DOEQ5ATIn6zyh4Y31M4tfFLSAf5U0bkcBNKPGraS7DVv6hPUSFinnEhdZRNgHCn3HwnPxwoPySG0JbGN2rPmbpHv0g7q4VtDYY+4R8ECjGI/kCKbVaNOoh68bQhcfGsdtbkaxQIccozyqJIEBwKPd7n4jWsTwiS1kJRxTx18bQxZCgsQEwoOQojvJgMAMqz9YwiUDH+DKYgyMDTVhNo3luEmQNB3SjPmB88sDHPvV9bfG6tUMjxjMv4Gw/9ZoO8ulF06pcEKrGqgvFF7lkXZC1ZF2vCxenBWCa33Wd91euxBtJkXbpv6BCIAKOVE8o7XRxMdYowfRFOMOuUPABy1L4kn3PU1ASKYRrlhQNsCGSN7zlx3Mtgpi+iveSpfvAdWaX9DPQAghUEjF7SfwxwIGPCYHd5NhxIZF/0M+diyMU21Tui5vG9d5N39C19Jq2cnqsJrX4fgn4LmYeQzpXlwBEYJMi93hV9YixCHovInHjiibN0FQIV9gf9EeM1CqJZSEM4/MhrB3N4l73PdDy7gx1AN9Nf+g45Mm+GoJ+kfCrPmLIDjEf9u1wO+KhlPlvAXCDfg9gFiYxL24Mc1dDmmAfSGmsCFb/zaK9X3U/eIfMh5pdLf9Ixoa/95fQLB6N5Xus3cy4iwcqxd3C+DJHEikUSqAkB49diQlRiwbUXQ11KV/y/Nv5rELoiMHEfz9uojaUIgFNp3GeR1hEokH9bH+Ua0Y4gUC5kgrIBCjE+dzjFfKc0ObWNYCBMw2tXX0iMVDF7lSJUD9poD1R49AjiejOv/owomQuZIDwpYILfZyI1kbIIFFx4PV28fdEukL4WHlxKnCFAEMf9lF9LEAKUVhAbxMdzQ+B9QkaCGAxdSJQx5bkLYQzeTQGFgqNkRkFf8Zq1ZQ9dcYQtUFQif3WkDhGtj5QFaT1RDxePJu8eg6oGQ4kSdA/l1Cpk3kUkx1yKNJX6QgAZepR0kF3eO0Swvbe+OAbMJ3MkIpXGNAlUYlUFR0istaGLESj1NRwWSEEt/2pY3+GVV+Yog50hWR8qw9lGhgSstzBCGc487mSaCEqsYYZuRDrosfrE0FE6MEAmIh2chJF6XF9klPfICmhTGrU9fsybzKX7ahlHhkd0gKErGwSQ0CifkzPay/lH18UY6O96vw0CFm2Troa8Iqax30oEov4JiBrSDenheC8yQQ4OQbmRQjh06SeOMylmbcYAUhd6WvrbXA7SgLETeRRtiX279YUoSHkj60XPfOa+UUd7a1dNXrWV7kb24rOhi+0U7UHIY/66zPk6va4GZ2yMs1TOmCfeGbYTOyUIdMD8QZhCv5jHxj8IM3BII8jsjqEx4dzjSLCG2vITVz6SQE0IGJaEk82MIj1DlxOAeGWEtgmDuYQXQ9R9npOm0CqHAMGrTIJL1KqNoFBwjoVVjnvUEShQn0kFcWpNEAeETN18x5gfpYBrECiIFyErJO5Zl75AnKQStqDIKFnC070UYO3ZBH2gfr5HAnjDeHCQS20hhGsFpkwKOd6NFETEC6T/yZH3PeJF2Kp39LN+GAX9oI7uE4EKItoCMVRvZMy97WWMKO6hPqGoRckoYfciWKOgr6TEteW3l36KXPwAQU5Zxz3SISIyGXAPr2LcQxkPzYVIdXCPedqWEzBOvLWIcJRpbHm0GW+8khGN1Q+Mpnou1RdijMyZd+ax8Tj00EPL4RftHEokVhXYC0t+DK0Jl3Q9MlFqmnUmHbt1eASsZZEWz7mfHBwF38U72hPOQDTYd2QNXUPniHSTBz5nhMa+D44fshfpInfrDIFR8D5GvAh1yG+XvSlkIPlWy/kAJxyd615yRrZGXXcyjtPT99LZQk6SwaETREcCnkUSRKV8RybWDhvEUdv0A+JFZxszRNZ+Ynp6lBFN9pFl7lP2XIcB6Uvj7L760qf2DtOVSMMQmaB33ON+Rv2oTIoWSA+dJ2Va+zzvr36V+aGvyXBZNr7zw/WjnL7AsRv15nA0X0QI47P20i/mWfS3eYTocjL63rpALOnfFuqhPu6zRiIKRH+YUz5H3uqxDLCHYs05gc/caN9BX9n/pD/NSfe6/FtqJnsgdFtispAEKpFIJBKJRCKRSCTGRBKoRCKRSCQSiUQikRgTSaASiUQikUgkEolEYkwkgUokEolEIpFIJBKJMZEEKpFIJBKJRCKRSCTGRBKoRCKRSCQSiUQikRgTSaASiUQikUgkEolEYkwkgUokEolEIpFIJBKJMZEEKpFIJBKJRCKRSCTGRBKoRCKRSCQSiUQikRgTSaASiUQikUgkEolEYkwkgUokEolEIpFIJBKJMZEEKpFIJBKJRCKRSCTGRBKoRCKRSCQSiUQikRgTSaASiUQikUgkEolEYkwkgUokEolEIpFIJBKJMZEEKpFIJBKJRCKRSCTGRBKoRCKRSCQSiUQikRgTSaASiUQikUgkEolEYkwkgUokEolEIpFIJBKJMZEEKpFIJBKJRCKRSCTGRBKoRCKRSCQSiUQikRgTSaASiUQikUgkEolEYkwkgUokEolEIpFIJBKJMZEEKpFIJBKJRCKRSCTGRBKoRCKRSCQSiUQikRgTSaASiUQikUgkEolEYkwkgUokEolEIpFIJBKJMZEEKpFIJBKJRCKRSCTGRBKoRCKRSCQSiUQikRgTSaASiUQikUgkEolEYkwkgUokEolEIpFIJBKJMZEEKpFIJBKJRCKRSCTGRBKoRCKRSCQSiUQikRgTSaASiUQikUgkEolEYkwkgUokEolEIpFIJBKJMZEEKpFIJBKJRCKRSCTGRBKoRCKRSCQSiUQikRgTSaASiUQikUgkEolEYkwkgUokEolEIpFIJBKJMZEEKpFIJBKJRCKRSCTGRBKoRCKRSCQSiUQikRgTSaASiUQikUgkEolEYkwkgUokEolEIpFIJBKJMZEEKpFIJBKJRCKRSCTGRBKoRCKRSCQSiUQikRgTSaASiUQikUgkEolEYkwkgUokEolEIpFIJBKJMZEEKpFIJBKJRCKRSCTGRBKoFYj//d//7b7+9a93b3jDG7oXvOAF5e/3v//96W8TVyb+7//+r/vZz37WveMd7+jOP//87l//+tf0N+Pht7/9bXfeeed1L3zhC7uXvOQl3Uc/+tHu//2//zf9bdf97W9/6y644ILynbH3jr/85S/T304WfvCDH3Rve9vbug9+8IPdP//5z+lPE4lEIpFYGP7+9793H//4x7u3v/3t3S9/+cvpT5ceynjnO99ZdLWyA3/+85+Ljn3961/f/eIXv5j+dOXDT3/60+6ss84q9sSf/vSn6U8Tk4iJJFC/+c1vui984QvdN7/5zQUbsssKC/Jb3/pWef+nP/3p7hOf+ES5PvnJT3Zf/epXy+L9z3/+M333bPzud7/rvvSlL3Xf+973rmB4eoYQ2Xvvvbv11luvXJtvvnn35je/eWR5iWEgor///e+7r3zlK90Pf/jDRZkjxuADH/hAd4tb3KLbeeedyxwMXH755d2ll15ayG8tsAHx+sMf/tA9//nP77bccstunXXW6W584xuXcf7xj39c7vnjH//YvfSlL+3ucIc7dNe5znXK2D/sYQ/rvva1r5XnJw3m5A1veMNum222KcQwsXzx73//u5D3L37xi0V5mt+JlRPWy5e//OU55VItvz772c8W3RI6Jq5LLrmk+9WvfjX9xGyQGeSTezz3mc98pvv2t789trHl/QzMeN776C3v+5//+Z/puxYH2uk9y1uX//Wvfy36+eKLLy7yeNIQY66OnKark2PqO9/5Tnff+96323DDDct8W1a85S1v6dZff/1uq622mqWnP/e5z3V3vvOdu+tf//qL8p4rC2984xuLnfDgBz+4ODMD1jfZ8o1vfKPM92UFvXPZZZcVW5etknpn4ZhIAvXKV76yLILtt99+xghdUWDEbLvttuX9N7rRjbqb3vSm5dpggw2629/+9t1hhx3WfeQjHykRhRave93ryjMPechDikKrwUB6wAMe0F3rWtfqHvjABxaD+8QTTyyRiH/84x/TdyXGAeXDQ3PrW9+6O+iggxZljgSButWtbtXd5z73KeMVeN/73tfd7na3K8KZAqxh7N761reWutzmNrfpnva0p3Unn3xyd9xxxxVjGHjekKab3/zm3ZOe9KTu9NNP717zmteUsiaRPFNQ6667brfFFlvMUlCJpcN//dd/FeVXRyRrINjmDZlzxBFHpDxYCcEY4WR56lOfWpwwj370owuJGoJ5cOaZZ3abbbZZd4Mb3KC7yU1uUvRLfdF9HBmtUcNw+tjHPtYdffTRRR/RTZ6/293u1p122mnFIJrLKUNv0V+Pfexju9ve9rYzuo1sO+GEE2YZbIsBco6xe7/73a/7yU9+Mv3pwqA96i3CYC0N4cMf/nCR3frz3HPPnf50CvOtvxUB2QayD8yNRzziEWWcVheYr5yLdKQ1sqywxq5ylasUJ6Q5EaC3ODA5/jg7V0awB5797GeXdhxzzDHFKQ/kgIgbG4KDl1NiWUG3P+pRj+rWXnvt7qijjlrhwYpVARNJoEwgC4Qw/O53vzv96YoBQezdLoa0xfrkJz+5TLRNNtmkTLY73vGO3Ytf/OIrCGTpW5675z3vOUtQUK7K3Wijjbqtt966+9SnPlUEKo+UvxmBWhgYmEj2mmuuWTxbi5EGaQyEzDfddNNu1113nUWgpLNd97rXLYYKb00NEclDDjmkjDvj15iKWPHwUtyEEuN4rbXW6p7whCeUuhpz95g/kxiB0l4RKBGzJFDLBorv7LPP7nbaaaeiEIdAST7mMY8pc4hR0EY5E5MN69wY77bbbkVOGMf99ttvpO5izJ9yyindNa95zUKiDj300O7www8v8uHxj398cdJxroks1fKBLEG8ZC7QJfvss08hUgyqa1zjGsV5R1/96Ec/mn5iNsgqc9A7GfL3v//9i25Dph70oAd1D33oQ0va7mJBNEv5+mP33XdfatJAVuqTPfbYo+jRIUjb8h6EkMEeMDb6jE5+3vOeN/3pioe+f+QjH1nqiEBp0+qC1772tcWWu/vd777M+oTz9IADDijznZ1YO5s4ENgE+++//4zzcmWDeUEW0L8ve9nLZnQBB8Jzn/vcMn+sW1G9ZQVnCVmgTHIhI1ALx0QSqJNOOmlGGEqHW5GQQ+vdrle/+tUlHUBahgXJwCbEfXePe9yjkKRawZnUb3rTm4qQr9MpKD5ChIKT2lV7TRILB0KKiIj8SItcjHD2XASK55T35z3vec8V0kPMT4rBnHjVq141/ekSuB/BIhB9v9gpMssDQaA4CpJALRvM1VB8SNQQyAepR/ZESunyTGLlgLQ3EWdr5a53vWshCiKJIuOjHDuMJM8wKp/4xCeWCPqvf/3rUhZDm/MFqW4jkQyeZz7zmd2ee+5ZjCupPJEWxklz1atetegY6cItyEjPiDaRbyJDUgjpNu+TGoR4jIqaLQ3Ivoc//OGFVGrv0uo9elV0SWo0ojoE90h9IsNFdAOcVQcffHBZfwjqlQUG8IUXXliIniyX1clYFd0wNxHHZY0CWiPWmHmMGIesJEM5E8y1ZzzjGROZxjkO2BNsROmO7I1wrnMEWKMyb6QqLkaWgvXIrmGbkiWJhWMiCVQYHDe72c1WOIGqI1BSt1ogWCJRPHiE+X//939PfzM3pOyJXh144IErhRG9OmIUgZoLyJW5YL5IIWhBmYsqhMBfGZAEanEhdYdndN99953+JLEqgOyXLnave92rkON3v/vd3bve9a5i7IvmjEOgnvOc50x/Oj/IpIsuumjQ+4wE7bLLLkUO0TFtFNOeEKlNolfKWBGwl1iGgP4455xzllrvMRw33njjYjgvNLKgH4yP7AFjk1ixQGwQAnt6yEFEYFnAaS299U53ulMhEuHARqwQZTYjPbys77myYD+iLCURZvsSE5ONRSdQDEYesc9//vNF0C9NOsrSECjvJbClPVAQDoBg3C5UaNcEikJsIbf23ve+d4mOiTbVm0ExepOe4iQ4gEeRYW5f1BprrFGEOeJloWhb60ngEZTfylulHf7985//fKTHync8iSJeEZmhLHm5wuPnWZ5FXgb94eLNjA3L+q1uB+Gjbr6TbujZuYiiZ/U1L7p6e79+WhqPozYoiydeWd5vHrV7znhUHcKgbgsVlgwYc1Q9XfpM+0Sz7AtoCZQxko6jTTFe5rWN0S9/+ctLep75Il1Fnc0BxMNf++JiT50UP3NBv7aGgD5Uj5i/6mW8eFCHoP3G3fiD/vF/z+o74zufl8qaYZx4Rj9L/eHxMj95e+ciUOqlfurpeWMvRWdp0lF5JdW3HfOFyg51jbUAyjVHon3eMddcMQaiAcZAPcgQexlHjYHPKfRImTJnPGN8fSaq4L32w1z96lcvUWt1Uba/jF5gBPCYmpPmfr3WY57HO4x3HG7j3hbaHm2OcSGDJjFV9MqE/mB0kZN01dLIEfMTMZDOHXsS7Gm1T4HROC6BWoyxURf7K8kh5K2OwihfSiAZ9PSnP31B3mtrgi6QukxmLUSf2mtl74v9o+ZhC+tV/1sPjGHlxxioszlvDku9I4/oXc4dn1mjEc3QHvKCvA2ZYWytQx57Di4OLHaFZ62f2FsC+sqz1v7QHCDX1NP6jrWpfu6PdRaXeplP+ss4B0LWauMoXeoe8iTKUidrdygirQyygO6O8Qy9qd1kQP3+ISjDvPeM95FV8+n6USD3tS1kuHaQj/oMsTcH6NchO4bu0g7vVw9zQdvadeEd1htywWGhbwLGZ4cddij7rNRhCGSsPo1xCt1prugv/T/OWtSv9Iz7tcf80Ofm1dChS9rX6kp1H9KVIpTWKRJFfwTIdfOHHVLbagHrMsbfO9QvbCbjQreETQrqra7u0/4huN98CJvEX+M0Sh9aO2yisCPCHtU3xpYube24FvpWO0NHqrd+nlQsGoEyIAbw1FNPLV6u613vet2OO+5YBNhCU6wWQqAMGuVFQfBQiSAQlgiOPHQewjqdbj7MF4H60Ic+VDbv3vKWt+ze//73zxI2FIbQKwUW9bYR2GcOj1CmvHfefUJAyDmMIELQAvMZpaMNvGYEj/0R6jU0caO/pRs6BEGbKRvGmkloXCw4ufUMeZ/JcxdOJ2wiNznGyQR2RKhytNHhBw6/0O5WuYTQ1Eb53Qxu9ZZG4l32hC0k753yY4DIYea1NIbmgPercy0ACCteqIUcIqG+FC2FTEDpJ+XbS2CeUM760l6GmkARCtJmpOhQDECQ2Ttgg3TMF3Ne+xEw3k5/9R+ChTzzwnmnsdc3AYa0PpQe6rvoQ3n77vP+VthSMsgeUkZhSw80jrEhXZ9xAAwJLHOCMLNmzGXPGGt9aZ694hWvKO8fIlDxrHrZe2Fue15UVrqONTBkhAyBgNWP3me+6fuY9/YfSsmRojQu3G/96wuKwf95wJVnHOSOG5dWHuhbytT9+sBhIDH3yDCeU8qsVa6UAm+ouhP0UoT0ozbYiyI9Qh/aEBxr33cu/cYBA2SIubfZZpsVI7g2cClEa9kc9Q7fewcZcvzxx0/fNdUGMkekm5NG/b3HuNg/opwhQ2x1hDlsTR155JFlHKxbJ17JLhgyTkZBf1Lu1ljMDXJqIQRKupHxNn7tGl8IrBP6zzwzD7Ux4H2iUmQLOa6N1oC1zYjShlHtJi+1hVFnTi8kNcq61rd3uctdZslo/cZIespTnjKjM8h7OsSair5gB5CX5KYUMBkcsX48F3vMGKTmPHnIEAbryThY92QvGay/yQLrjO4G42bdi3BJj6yJFfjePEHC6NrQ9/7SI8pzqRN5QW5KI3N/7MVSBv3qHQ4Xao1s/cE55xAPUcIoU3usXeW0pIZ+IvvpKjKNPuCoYS+QDQ4F8XMZNcmowZag50XFyQj119d77bVXISkLsdnMX3rDHDOOygrdpW7Gnwwzl2qYo3SfeUJOh+z0l81jLtS6xL/1kWi+OVnbA8Zb37OdOMpqeA+97Vk2g3eop75FCshU5IvtMZ+MNJZS6/Qz5ym5yrZSJpmrTwPuZf9InaXPzA/jSr/Y52TM6ja435ia66JptQPaO80ffdy2T7+QOzJdlO0d7C82ofpZV9ttt90sm0bZdIUy1a+VPfSdPtXP7tE+spI+fNGLXlTsvlrGgPE17rYsIE3sUe2wDtlJvlPm0NzS7/SbNc/O8j7z0UmLnEza3L5vErBoBIowphQI6TAoTQSCjrAa16iChRAo5MkJRDqcQWcyyysnWAh9JMGBA+OiJlAESUD9eS8Y0hYwbxjyY9IHtNNzhCADDhj6DG2Gne/Ux0SnPOzhobwIRwY0gWmi8djE5l6KwWcWhtPbWq88oaBcE9uiNkmV73m/RaTeBJxFpN6MSIuLwSA32elIDDwC3/jZTKiulDEBY+HxniuX8q0XvDGnELSJYLJwvBcBMnYWAEI4jgeBB4XBTwB6DplQNgFvfCmr2lNCqbjPOIybv0u52oBqruhrBj9BrY+12Xv0hVMSwzsFFjYFoE0ELhD8UgVEFq92tauVMVAX40rRus+mVpuzPWfTq37XRwwRRAMIokMPPbQIJ2PMgDd/CUp9QSlQLgRhLUDMK4raSXmMeO3RZ9rjPQg7QjWUOsN4NO6MC+8wzurlfnPX4RHmCuHVGhSMFfWJ9Wa8rTlzluL2rFMHxwED0xzXdu/2b/1njakbwWvOj2vUUhiMJcqQEHZxFOgT7WKIBXmtDRLzivGkHuaxZ8w9/akePjemLZm0vvQfOUPRIOWIjn8jp2STcshA84MiojgpSe2kQMGaEqk0nshYrTg5PDxfv4ODxrwjJwPuM9cYBsbHmHiXvnCiovVrztTyanWFtav/9YtxcTGwycb6AIKlAaNhHALlEAlzixwW8RWZRuDIqKWJ3HvW2FuD9tLVUCYDjoyjcxjzZJ/1bb6bL4ypcObVIFvJR31ETg152EeBQc8GoEvqvS8MYxEEdeVkQlD8ZcgbF+8wT+lT6wnx8X7yxl4v89rcD9mEAJF32lOTKjrPZ8YWoXjc4x5XLjouHGGIJwPa8whHa6cgjGwJ3zMcQ5bSw4xa5SGs1jQ5g5ypK33KXgDjydmhDPWunVpkunZqv/movsq0fsl2pFH/i97UMot9QS7oM2ucXHCfuphT5hZ7gJOmlf+iCu4zTznQGLn6gPygb+hz8mgc6AfvUFfjqQzjqc/ITXpJG8jS1hlGR5L19CMdZr7QfSGzyG/tDphD5J7+ZVfUYAeZa/RaS/LNBf1rHilbWxFF68V4IfnmB6N/PiPd2NFJxlIbyQy6i53CbqjrKyrmM7qSHWV+0HHaqp+1PewJUDb5zwZhO4QjTZ3YP3SyuRGZC0A36n/zxpwjd7zH+jI39L93qWNtP5FN+oC+tAeq1gvIU8wPfcQWseb0rTFG0MzPlpzTh96FMOtvc0t91Nn71d8a5vCtCZt/k3/sL3OGLWEOWb9sIu9kq45yBlyZWDQCJbRn8Zjc9UV4MT4WEgVaCIHiybLwzjjjjLIAsGwTgPHCGFWOSTnu+xEoA+05E52xghAog4FsUjCwkImWtfvM5PdcCE8ChlD3jMlqwamzOkadeD5MdO+0wIT/KRFGPMPZ5LVgvZuCrxe5xazca1/72mVBU8ZCqAxzZWD2FqYJqXyC1eSnxBiEBLHFgiRZ6CY6A180TF8SPtrtWQuzNiItZEqH8PJeXgLvJKAZqRaTOjMU5xNMPJQWqnrwyppPDA3jj2zoz1rxCO8ySLV5nCNL9QMFiMgwJBBW79RGY844IBi0kwKqCRQDhEDwXAg8yownhedHZMFzhJ72UxTq6q+x1X9IMKNae9xDGfACeoaCiSiiPjQ39CHFirgpm7CtPUjmt7E0VwksBhmBrd4MZf0Sz9UkyHt5ztSZ0uARMo6MJ0KMsONJ8yyhXD/Lm+Z7CgcRNTe1MeYRI8GYkwN1XUdBJMtad+kndfA+Yy/VyJwnTN03Dt7SE1pk1kWB8GyaG7GOrGXtMh61N9R7Ra3U/73vfW/pe3NPPRArzzBWyJca5iBi4nsGhH5VrvVOQSFGlBZlr04UkP/rL3MgiKG/9sfpd8aMdwe8MwxYMsIBAfU7wHwxHhQNWUh+eIe+9G8yhUFChmnb6g7rxPzQp/Vl/ZMRy0IyxyFQHEoOSrJ2yTsed0Yr+cLQ8iySU8u7AJ1jXDlByCXE2foxD8na1tEEDBbyi24yT8kUEWpGbTiGXOSv+VKD8c8wMj99VzvQ5oLnzHf9ymANXWmucyrQV9YjPWQtGBORXjIwDG3ylU5lRJEriBLjWPvoztAp9A+5Tq+FfvIeMokRRtYxwMgkRph7oh0IIp3MuEaIWpA99Dn5TEbFO5ES61R51p8xQVzpJOuY7Inxo48RVm0gb2N+0Un0ifXtO04sfU0eK1fbGfyIAdJXExD3capwuugf+kv9yGjyIfpe22qPv75DQjmTzIGQd8rWVkTAc+TQfNAOESYkhC4yruSt8aTz2RE+V5761UROHc1zc5J80h7jox7mNCeg56zHADnOEUb/mCcButg4k7EIeO1kNmc5D6wzdpz+Nv7WD1mq77yHvhxHNqqjd5hT1i+CZN7Q6+ZS2HTWpvaRu8ae3ab+3m09WuvajrwE2GycGUiLcYloWNhv5gg9Fe1DsGTO0NOeYV/QWaHv9L9n2ODWYO2YYSNwdpJVtdPI/GBvegaBRc60zefaRC+rN3mlHQFjy3HKzjG32CTPetazSj3UxzuMnX4j+2qHirFHnoyFec7mtJ68k9zRBs+yeSYNi0qgCGSTsb6WN4EiHAzQEAhQCoNyMfjjgDGtzt5PoTKcRDqiPQy6UQMZBAoJCQIFhLXJbIG3HmaLgddF2QzPoXQ0E4kCJAQoiVoQIVCepYQjqtGCoY4kMUh5HWI/RYBQsSDUT0QhPB8BwkqfUNC1MavutTekBeOdABnn9DkGIeJCOCJj8yEIFIEzTgTKHNH3yAojo/bmAYWFIBo/iqWeU0MEKiA6xRgwBq3nF8xf42ouOfmq7gdzxPwyrtbIkOFGKDGM1ZuCDJiD+tY1dOqW5wgeglUdA8ZPfSheyimEdMB4OrKf0uadJsgCxoVxQPBG9KQGBcAYIAito9bB0MI6MLeHwDghNEOZjANGp3rzYjFkW5gz6k6uINAxB6yPUalJPmdkmv/mcQ3lUfSML2kGo6LsnDuULe/pEFoCVctKBIoB5x0MxSBdAeMn+sD7SO4wDFoYK95ocwVJXt1xZRMocpPRwBnBuOLoQ14YY+anujDYZU60c4ps5lghxzkCrNGov89qx0CArCAnySmGCsOGQcNg9J0UHrJNGYzr2gBdWtAxsiLIIHIx+tTcRvbJM++tQV4woGvZzKNP/1qD9HkL/UO3mducUXWaO2OXrGPQRbpsC+OAAHiH9VxDnb0/bIi59IyxRlbMIZkcdT0YhOQE3VbraPLS2JMN1j0i1oIj0rjQE2wsQOKkByONvuM0ab3z+sR35HFtb9AL5DPC0EYclYFkeA6pmQ/G2Jx1P/umfg8Ya0Y4u6I+LIXMYkRz2HpPq4PMSfNUuYhogOOZHDMedT+aM8aZjKRjY/6QlZGhY72342d8zXff0/lDDosWdClySs/IPhiSp+w9Nga9zZ6qyYJ3KsN6Qy7prIB5QuchRLUjwzhZM+QKHRwkXntCjiEebf8jssYHqbHWat2B+FozxifsA7aJjBX3s62GtrAgyOSOtnFohCPCuznT2RVsKDZ8Pa7uM8fp0WOPPXamrxFKa4A8aNeoZ9TTu+jAiBpPEhaNQBksRqCON6Auk4yXm5d+lHExhIUQqBoGhUGGhJh0lASFpA4iKuOA4afe3s8jbTGb5JSTCS9UbpINRVRGESgkz0IiSHjd9FWA4LV4CRMTaFQ/EVAiTQRLvVAsVHVFVkYZo4Q5D9CodxDMlIjvh7xwDDSLl4Cq21WD0NKu6HueMItXmwmx+cZfm6SRUGTCvKIJ6tWSucBCCRRFydgguHhfWhBsBAYiiSzVEZS5CBRBFwSq9ooF1I1i1S4RilqYEg7mC2I6VCfQB8aW8vV8EDDeH+NBsfLytCAUed60pzYMrEVGDYE1inAzeJBtZcdcNd+Nj3ZSYn6DgwBVJ4aei+FgTKwTZCOE6zgg3BkQET3VbmuNQB7q1yGoNzKqv4YcEeYYEk2Ii3IOKUzGo3qog8v6j7QRSr9GEDJRAw6AITAKRQcZSRwEQ5iPQFGoFOtQJM7aJnfNBfWgxIwFw8PYGKPwRGrDEMlf3cBQ1CfhHXcxRhlhdQrO0mAcAhVoiYr5abzJTfOFvCI/al0TXmcGMC8v3UZ+MIrJTXONkROEBcxhBEBKDznYguymcxca8R0F72bsWr/qWDtbyD/pbnQZQ1Ta9ignnHLMV5EWEYbW4AdjybjkNJGeWMscMlKbw6EzhEj/s46DoATIWu9nwHEOj3KyqJfokfu0rSZPwOg112pnljFlR1iX6jfKsYEQmJ+MWn0K5g2iT4a3ZAIYrpHNUf9AqnpxwGqv+tIFoj3eTV77TH0QA7ppPjjwwP3m4FAWCOeb8WfH1eXpL/NMm0T4rTn10B8OZNHX9F2ke4G5wIFIv9Cntbw1X5F1faGsmPvWjjlG97ZzA/RTZAdwno4D80h76Hx6aciuYS9IW9U+64qeiH5G8hEQdbLVIhz76qyPyA5tqQmxPmBTmj+1/cEJSE7ITBiyAZShr6wB9a4JjWgvmSfiGLqSvuM8NT84WerIZcC91ht9g9zHXI/sFP1C/7Y2GYc0+ap9SHzUxb99Zu1Ya+x085lcMDfMRe+ir8fZCrKisaiHSOhEERGNNnmwYx00DrOvsRAC5b281TrdpDCIDJXw0JkMvFcLIVChVGPRG2zkROiW0EJ4hjy9owiUSVYTqEgzAN5Qyo3HcZQRDQQcY5Kwqo1DRqu6YvF1uTW8PwhU7TUIUGDGjPds6ORBAoDRTFiqbw1l8QwYZ/1j8TAetJNBSBAKLc9HoAgQyoUB6TnvQo4oEIqtjWAtlEBpt0WqHW2aCphHBDQiuZgEimKpCVSsBe8jMChWXughgx8Y88L31pOxjudrAjU0b2Kfkz4ivAP6QV0JzyGhC7yb+qomUAy38OYJw2sPo8VYxWV+aY+5TMG30ZIhaA/Pm3pR7oSsueMvw0m55sA40J+MBgp4VDqGdaAN1mOtILTPmrXOeG/tvVAPitC68AyiUiMIFO9YG9UNkB2LQaA4TtrNw2B87GEjd8imejxcZKj660tj4z2rO6w9RhfjSeTe2jLWyEUrGxeKhRCoIZCDdBk5b+ykfNV18j1Zao4wKOgl8ilO+6QjzKHaACOjzFFEKwz4FpyNDDFzzbxeFpDVosb2G7aRDvUnX7TPnCRHRFDo59Zgsy6sObJIBKN2HAasWWlu6k6O1GCQewfZPcp7rVxkjjHbEjlExRyx9kVK1L2FfiZLzCGyhQ3UglPDOxirkdmgreQ5/TjqOWDTeL9IUqx/ZZBR2qaMtt98r836VoqY+Q76h75UnvqSD2QDue3f/vqeE3W+KKQyjRtns76pHYMBOoo+ZQdG/+tDc8NcZA+pY1sP0XTjIb0zDG314RRiF3hfbVOy2egcxKPWo5ywymXbDK1FdpG5YwzG1TH0lLFU5qi1pCztoIvUN2Sw9rn8m65jS4Vdw9HGTvIMWVTPNesl2hHzh76STqfuUieHyL11rJ851ur2W1eeMQfoplhX5J+6splHZX2wx+kx9WErxvgg9+xeOgixbteKseRQUZ+wO9xj7ZiP7BFlxjyMfkL+2B3I3dD6u7KxaAQqQLAz3gg2gzYqgjAXFkKgLEyeE14cgtbgm+AuZbh44g3gOKgJVDuJKF0eFQYkwR6CKbA0BIpycz/DPrwtQ6AghVwpntqQCgLFCJ8vAmVCKqcdE89ZnIRZfYpMwELk3fF9TaAQV6SA4mZMazuBqu+1Vb08w3M/H4ECwsRCYTTI2bXg1Fmf8+LVhsRCCZR2MyAniUCpExI0lwJlIFPihJ11EcoyCBQDnpHdIrxv+qg2iOIX+wmsoTQ8ILAJ/ppAUWAisp41V4wpr542xKVs0VqRPDIghOsoUAYMGEKVwLR2zR9zJ9avCFqdJz4XgkAhX0NkAyh95SKl0ZcUiDRIRphxMp7qUNfDJQJXQ7/qf+RmlLG8WARqVJSLLOE1VD5HEYPLOLiMib7TL8bF2ra+ElPK29ymP8hq/VKnji0tlpVAAaeJ560JYzeODiVXGIwIYRCvQOgYRqb5NGSIkFOinNZivSdiacCYZvSQMVLCWgOfPpKOJ3uCvLXuvZfTpXaU6Qfp7dakfhhKCSaD6Ai6op7b2kgek/nIRhieNaw7+z0QEd70ISJibZMBSFALOo2xbJwY4q1uAO8ga6QRkpmxtulcbSPDRYxbByEoX4qZ/qEPQxYjQsZTvdvIlXYbbzqTnK7HkpOTPCXbGfCisPqGMa0OCCcZM44TgdzhXGLAkznt2jFnleld9n+HzeM+NgtbxnxUB7aRcUAgyK3Yy1WPt7lAdpPvIhMxh8lXTnsym+OsJn4cuvQJ/VvvKw1Y9+YfGV47GUdB3c1rJEGkMcajhfeaM8rVz6KA/tKf5DwHCbJe24/mCX1Nz7ivBqKkPJkQQXY47Dj5rPWayAT0j/lmDbKRrLkAh4YokmcFCeJZa0n/crYMRRQhyCoZVztu2crGgA4V8a6hLjKfrNPa2ahO5IN3crSYi+aC/lN3OktZoyK/k4BFJ1CLgXEJlAGwv4DhTlAKW0cKi4txxoBkfAwZmUOoCdRQNMYg+85kbwd2aQhUpFpRfEjCkCAFIVXP87LU7w0CJQK1tASKF20uAkW4IB6+r9tFOBNA3i/apy76naeI8pJfa1EZh3EIVMCC0xaCVMqV8inIWkEtlEBRNBa3xT+KqEpVRMRXBIHSRsKUx5iSboVOQCSFkKGoPB/zA/mZj0Dpm5ZAUZKUFyUwSmkQpOZxTaAIWXOQQiLIw6tMCcQVSm0cuDc8hOY10kMRxvyRyhFOkXEJFOVLGKvfEFFgIOlLBgllHYaCOa+fjKH1ybCTM64eSBNi4jvzu8a4BEp56iUqPoRlIVCiEBQ0p440FAaEvnUtzbgklg2LQaDIPvNwIQQKyHGRCmSaARLjzpkgLdBas0ZaA9kcIQvIRvNslCwaF+Zk7IdGHpQ/BMYgr7e+ci8SUkeO6Rp6Rb1rGVaDsUkmaV9tJDKY7bVgwFvLQ6RAv6gnUkE/1Aa7dcsoJLdF0tr9IPo2Ts6l50ZtUzAmZA5bhryLe5AzkWPl12S3hvUekSROrXiWXYI8qXetj0G9RZDYE/qu7k+6nw7jyGFXSbFTP+MVRvS4IF+l2JGb+qZ9PtL0zEUkMAgWWWdc1M/cYAu51MP4jZJV6quflVfvRTWubB/zh21WP8+x5HNkp42QkZNxmIb+GJKtLfRX2FHW0ah16R56nb7QD55DmIZIXIC9IWWXvqv3Rekvdi0ihLzFOzkozXlpfUNpuWQIUqL96lPPbTYMnWUM6swsJCf01KiMGHqTvmZb1DYSfe1zurd91ruNubJlKGkT6Bf/N4fYvvrIXGBztM6MScVEEyhRjbk8pianyAtjjxelPqUGCCmLzsRcLAJFqJq0hKp7a8GxNASKZ0Vo33ciabUSCJhMFgsvBK9V/c4ri0ARVBSTelPaQ6REGF7dxknhGwWbohmpyqkN6YUSKPcQKBRqu1kRLFpePuRCiubyJlBg/lCEDPpRqVUUs5QG9TK/AktLoDwnimmeUugtQrEzSqyb2sum/tqJzOqTUSAgKbZRyhAoVN5H5SHJQwpMaiuiNy6B0ofWiLk8FHGmLHi6GbgMkjDswiliHreRQPXkrfM9uVRjXAIl792+K8baUJ8sC4GylnnBzQXOlbkMAXJkaddhYjxY09YrmT4qqjwf7HFiHNN/jKNwmjCazOFRxq7vyGkyRUQ15hrjkfw3hxnzrSGnfGsxjKdRnvVxwcNsXZjzokqgLrXsq8FRZv7Sq7Xe5B0XeSc7hxyp5rL2WPOi9GGkg75inJH3jLMhxN4wfdampktJQkAYrvRB7D8KIFzkIyfP0L7hgHLJFfeRFzEm9AuHh3Zz1LQwJhyPDHwpcLUdJOKjzfRZmzpM7op40ynGstb15Kg+1mfLiiBQ5mmtl4BhzNhHdsy5mANA1omocA7YRzsu6F3PsLvq95mr7C3tZcTXCALVknhjYE7QA74n/8fZX0OXc5xb38Z/lGPAe40bZ+A4UB9RRfNQFLiO7CAV5h9ZgGjH2je/fY4EtY5Qjgl7hswtjlf6p4ZyrCkOk3q/I7tIf9A3Q4fRRB3pZI6dkEv+cq6SO97b2uHmoLmobOs0wA5m18puatfXyoKJJFC8ZzrbghHqNwCUf30RnoQQ0sH7agD93wIVoTEgPiNAGR81054L8xEowgExoByEnWtlEwRKmLIlUBbxEIECUTQLLnJxKV5KjyFlIlsAjCuGK4UaQhiCQKnTOASKEB1FoPQVw7LFEIEiPBAGggtBkNdKQRobxNYiVabFNg6BIsAIBR4z7VZHn/HoMnp58ERPAkGgKJFR4eYa5kSQWM8wsBkS3mGuWPjapy95pOqUj/kIlD7wXO0ZC3hWqoOyEc7aiDDO4akVgUFu1NM9/lK+5gsyQwBF1AeCQOmbobk9ikBZIxSGNcPzqxxjFu/TR6FYGAjmewBJJlx9h8gbL2NlrppjSAQiwINmLo5SMGA+cHow2qR4qG+Uw1jSV+phTo6bny5ypm4uXjsbiq01CkXdvMd3DJKaaASR01/GSx30iWeQRsaP70ftgZqLQOkDisn4u5dy1GccJ94Dy0KglE9GMiL0pf0BMS7WkL9kCMePd9TzOrFsIIcZ7eZt6CXyk6xiGJArPrOezfeQ28bed+Y5+RPPM5bMKfKJ4c4pVq8/a0I0lGEmc8F3oe/IIYaxeYpItw4tz3LCyNQQObEuzA/vtG7U2XftiZ7qbW4znsifMJrmApnCsLZ/gQMIlEOWSyOz1qO/GOJSsqxzeqSen9qpPepNXlvHjLOQof5NLiNZ9FpNLNXBuhQJsIatA/3linGwbpAbdgZ9RR+QW3QsfUmX0xccSvoJPKtsz6kXGUZ/1nPAmAS0n/xgrNZGqXogEspH9OgV8kAbRcboVn1IBop2RNu8Hzmhc9gULdlVD7KPzhB5qcGe0VZjjQB4NuptTpqPdFJrHwzB/fQaPSIK6P/qbmwRI3VXR31kzAPmATmKXLGTyNtYA9pv/Mk5fVrPNbqfvjPe9WmMCAAdqI+dTllDKlisBzJRO0VHzH86wBrzvfqPckrUkHHjXUjoXAZ/7JtDMK1L7dOn+sd810fWX0SF/DVPlMsOqEkx28aaZ0vRHTF3tYOTxhxFtPWX9ilbxgOiiWTT4S3BR7DVT+ZTPX84btig5qRsEHNevdVV2iH9aEzZ3LWtad1Eqq11WM9/cC/9Zfxq57U1KQ3RHKKDyRlzwDuVaT6ySVqHzyRhogmUCU7IECa8GC5kw18T04TxHeYr9GlgGbEEMk8BZmsSEaTjEihpXN7tGorGgAnre8apegQsAoLBnqDao2VSEGaeISxbAkWwMnwsBu1gRPFKIUfuR3woI5/VXjZATpTLSz4XgVImBTlEoCwU5MD3QwSK4CCgCMM6vYOy32yzzYqSIkwtOhflozzkyUImUAnOuYCkWUyiETz9xhWpITy0n7KoCQTjmHIhpAiN+UDwGFsCBVnleTSO+o9QJrwQVAKCoKgVuX0SvJHuqb1DwLAIT9uQx4kAZBCFV7gmUIxffeu9+lDeujbzpCH/vFH6XCqE+RTCEyhczyC2Q3PbeykJfVR7qOKdjHnjQ4haU8ZICo1xU6Y2URa1gKVkKEMK2Lu1yxxloFiTFLexQubbOd5CWxhuDCdlUQbKoFwZgrx8PpciM64nD3Gz3rXLOtJ/0ts4IJTvXeonzbcmd7yR5gVDjAKjgPSJNcXw8Zzx9XkNc9D3xm0UgQLKljzidDG3zG/9HVEyXmMePe/XhzWBssbIMXNkVHSJoWHOkEdkCOPOuJCFUhC13Xhz+IxKzUgsHNaDA24YBfbQmFdID4PAWJh75rT5y/EUstt8szatE3OKXDffODYYStY8WdjKNSTY9wwRxqe0GMY1mUGeeQ4JV4/WIGSU0UHWFOOWo4QuQA5irUlpYgjXYPCZk8pmGCJrc8F7GerWHw95zFkGMsPfeiE3or9463nROQAYcHWqkQiUtupP+tE6lkERRMSas/aUScbV8lHf6UPZAeSn9WAsGNnxDkTFeFmX9Ay7AyEiN/Sz+jMoHREdOpMxHN509fadiJD1pz2cPbVNgLjSKWyQel2TP9qL0Fiz+sRaZdxybJGx9I15UetrupydYzzMm3rPDxg/a12920wLfUK26k/3IBhRd+2mt9W3zr4YBXM59mepq+f1rz6T4WA+0v30Zq2fQv/4Xj2QG/NXPcwJ89KcRGgRDjCn2APa5DtkAYw3GaqflNNmRbDfzA19ZQ4rXxvJU+NLv6mDcRsHZLQ6SG0fZWuB9e0eesi8Zo+GLHbIGaeotMdIKzWGdCgbwXpg14L2ccqz/cyfmlghKXSl/rdGjKWx4/ylw8OxYF7VznxzX+TT/GVTxbuA81r/qod56T7zmRxjE+hHTshW1yGn7D+yRzS5hjawGdXJWmUvBXxnzZE96kpPaRN5SS6Sj/TlqC0Xk4CJJFA60MQwyAYNszVJXDraX8aoycCTY/IhLXGvBUXIWIQGjUCshdpcsLhNfIZYHfGoQVgzaEy0Oj0AgbIgGfX1YjZJCRhlEo6EcA3tsDgISymHymW0aaeJa/Mk710tgANBoCiY1hsVIHRNfGUyWmPhBhAoRIix3eZ6A0PRIkawagKFDFAClJDFY2wYqNpPWDHYCDaLYj4CRbgzINRDOcZRfY0fMmFx18rVGFD8PL1zGa81KCIRRkrEojVfCH9RIIYIA1w7KdzakAgCxSiqBQAQTowFY0DAtuBFYZS7ZyhvmiLSvwSgthPQ7iXAzGmGNo9bbfADAqX+5suQgEGgjIO10EbNCF8eSAZGrCnjR/iaHxQqI4vQbucUYc8IMZ/UV12NE4JNaDPqRCPH8VTzIPMGGsNY31IVGCjq4B0Inn4bB05IYgwZK0Se08B8NG/VkzOCTCAzalifjFPzwLyz/tTDuJm71i5jqSVQ5iCCx7tWp9i0YDzqV3OZDFC+vjLuYG2YO9qvze4PMD4oe3OhTdepwUtHXpnbxkVZ2uLf+pecIAPbtZ9Yeli71gIjKeYv3UEWiABYyz6zNpCVMFasTWTGuJA31o81aI6Zu4zo9khtYFCSt4wsc8majfltnBln6jNEcsgP8weJMWdDVyrDPGcoRZSlhnoge9rEoBqlYwLayCBVfr33hOw2/xhtjKnoL4YmuS/S2nquOcxi7SEZZLVoAT3I+CLLySlrKYzqADklRZljhCPWmrO2ODM8C9aC/iRjYl0iUgx6jkSkCwlgmMYz9Lox0x+cTKGnoj1kQZ0a7fh192lH6/zUDu9hKGpb2DbGx3NkUut9F3Ghn8h15KHVC/rYd6LWrbOPnPE9e0Kf0oHkIr1vDhsH9k9LykaB3jXGxtpcZ6vQKSIe5JlyldnOK+Wzlchj/Rc6j3411/S/cQodQk8gqt7D7gvngPkSp+uy92rnJHDiIWbmGLuMTjXWiAx5zFnr/3ThOJDiL8pvDtcyuoU1wC5EJq1N7dNO46J9HBHGMcZOPcOBbu3H59qprtqtru38UQbCYxw5ha0rc5yTgf1Fh5lbtb4jG6x369441Xra+9hhHMvWjfUQ85stYV0P2VpkDvmjn9vvzTlOV3LKeLcZEPSm9cV5S3bqL++zrtnK2tGu7UnCRBIogl6nW4TIkUVg4dRXHcY1mQkLE8e9njMRCG0GiMXakpZRMJkJNcb0qHQXC5VnWB1ro8b9FibDKLwnYJISvMqkKNqFEPCMdjAYtYOHCaGZy3BSLiMUsRllHHkfo5ZHz4RthS6B5j0E9pASRSYYZ/qlVc4UC5KgL4yLOgv36iPv0hcWek1+hoBY8GRY1DHmvE6UZOsVBZ+51zi0gnM+qI+xsHAZNkgR4aEcc0UKR92XlJh66J+2/eaVevD2DY2TMs1Bfe/7Uf1ASBDk2q4fGTQM9FHzllA0Hjw+QwYT5WwcCPI2JxmMG+PIfI33iXKpn/sRdm0eNacQWnPGeHve2jPWQ++aC+Ymgiq9TDnG3Fw1H3ialTnX/K9h3SNQNrLyLmufehln5Ut7GkXs1INM0R/u5zG0Fo29sdEfZEoNc5ABZgzmMzqMh3mgfco3z8IY1efqy2MqPaieI+SRd/BEzqW0wbrm8afQYg0xMLSjJY2JZYf+NjeRcnPXxflnHpp39VpGmkLu+2v9MICNT+g3ctz417qjhXUrisjQDX3nnca8jtCPgjlnXZvfniW3rL9R69y89S7yci4dE2Aw0Un6pD3mWX9JESM3or/I1FH1dj+dav6TM9ZO7U33HLlqXQ3JVXKRLNf/1hxd0TqwyGcOqLiHnhNdiDXZ6l/9J8Jm3Ooxjov8qCPF0XfKavUueI/7yXLPK0+fuH8I5Cs9oV5D80Td6SOyf1Tqk7L1qXnjneaCdhu3+WRMCzqe3FJvcykyb7zb5+ZAEJ4a1oD3aXf0of4k5xjhtcOVbLUu2Bh1BJ0sJ+N9Xs+LGuaAMdBGc8jc12/Kp/fpmiH9OQS2Gz1ivIbmWw3l0yfqpn3WGltDFoz21X2iz81Nc6cmIOaLdpk/Q05SsoAcMR+9Q/9Zy9qH7CBkUuvquupLc8P8GaWrzXG2R8iXsJFG2VnWh7E2dq180M6wD8m7elwD2m98vc8a9E4yNMYmnBeTiIkkUIlEIrFQELo8hDz745KuRCKRSCRWFXD4yaYQlZJWmVh+SAKVSCRWCQSBkjoxlGqQSCQSicTKDtEjUW3RMBEnkSWRHFFZqafS4OwfqvfiJxYfSaASicQqAakG9iY4sCEJVCKRSCRWRUiXs1fYfiaHEkl9E22yB8p+I/v0pM3Nl2qYWDYkgUokEqsEECibwZ1ylKfNJRKJRGJVhD1Dhx56aDm4w8EjIk4OyXAAidNj7X2OQ2sSyw9JoBKJxCoBm6OdgOXUwfkOdUgkEolEYmWEk5Wl8Dk8xmEgIlD+Ik4OXxo6sCSx+EgClUgkEolEIpFIJBJjYqUjUI40tIHO7xmMc5xkIpFIJBKJRCKRSCwWVjoC5fcD/E6CXE8b5oQyFxtImvxRv/Pid5GGLr+34Lx8ZG7obPvlBb994J1+12W+3+RIJBKJRCKx8kD6ld/f8htwy3Mfi/c4wY0d4wS3Sf69nURiErFSEig/0mfjnN97GfVjYMsC+yf88Nq97nWvbsstt7zCdfvb37786rJfa/bL5X4EbUXBD9Opl1+i9yOBiUQikUgkVg1w3B5yyCHdHe5wh/KDqMsLCNrjHve47m53u1v5EdwV6QhOJFYFrJQEyq+P3/KWt+z23nvv4j1ZbPzzn/8sR0AeeOCB3W677VaORY5r99137x784AcX8uTIZJd7VxSQpnivX0NPJBKJRCKxauBLX/pSt/766xcd/+xnP3v604VBdOmd73xn9/jHP777yEc+UmyaGqJNF198cXfzm9+8vOfVr351sa0SicT4WOkJlFS2xQbh84c//KH8lsw3vvGN7lvf+tbM5YQTP0522GGHdVe96lW7rbfeugiiFQXHMx9//PHdUUcd1V166aXTnyYSiUQikVjZ8dOf/rQ76aSTumc+85kl42Rp8Le//a1scVhzzTW7l7/85Vc4lRSBcmrpaaedVi62TqbwJRILw0pHoBwasbwJ1Hz4+Mc/XojTjW984+41r3lNnrefSCQSiURiIiA9z+/h3frWt+4+/elPT3+aSCQWExNNoBySYI/TL3/5y3IhKg5RcIjErW51q5EE6t///nfZHOmgBwc+yCl22MRinNjnfY961KO6q1/96t2+++7b/fznP5/+ZsqrI1Suzuo69D55xn/84x+7yy+/vNQz4FleIs9qo/+7T7ulKUZ+suiY+7RnKOTunXXb/SVMleHfrjacD8qK98Vz2uB9iUQikUgkhsFWYRuE7qSDW/1P39Ox//jHP8r/6WG2CZ0rYgRhB7hvSL9HGd7jOXZA2BGeVTZ9/8EPfrDbdtttC4Hyb/f7vI5EedZhFeyNIcQhE2ETuDfsAfaL570zEHULh3L83/NhT9T3D0H92Sre52/YKmEL5j6txCRhYgmURffa17627DvaYostyp6jpz/96SVtTQRq4403HiRQFrYfFzv88MNLlMizd73rXUvKnVzgZc3ztalznXXW6TbddNPuU5/61PSnU7D43/3ud3f3uc99umc84xlFOLb47Gc/W+rt+tGPfjT96VTI3Z6me9/73t25555bfiRt//33L/Xfeeedy3Nw2WWXdU960pPKfRdccEH5LKBtF154YffYxz62HDLh2Tj0woZUl0MvPvGJT0w/MQX19AOkCKF7or+f/OQnd5/85CevEP5PJBKJRCIxpZMdOrXLLrsU3bnVVlt1hx56aHfeeefNECOg0x189cIXvrA884pXvKLoY8/4EVSwdeDEE08stss73vGO8lkAgTnnnHOKnvYMvc4WoKORIPr/Qx/6UNm3jThd61rX6tZaa61iK7n//ve/f7GNADFhJ6gze6MFoiLTxmEWbAHPcxx/7GMf67785S93e+21V/ec5zxnhgwC24xdc8wxxxTipS6eceCWutqP9ZWvfGWkU1ZK4amnntrttNNO5X0Oy3rpS1/afe1rXyt7tNT1c5/73PTdicSVj4kkUPYZPfGJTywL3yZHCwmJQAoInAc96EHd9a53ve6AAw6YdQrfz372s7I/yHMWrAX3kIc8pCzGa1/72t2OO+5YBEi96BcCe6C8/zrXuU733Oc+9wqeG0LjlFNO6a52tasVQfm9731v+psl4A266U1v2q233nqz8psJR2XKWSYADzrooG7zzTcvdd5+++1nyJLfvvKZjZ8IZkBdbBp1rz5D4kKQxqETt7nNbYrwtUk1QKh7l4geUrjrrrsW0kpo3uxmNyt9LkcaMU0kEolEIjEFNsHDHvawonPZGXvuuWexEZwSTJ/S9yAac/bZZ3frrrtut8MOOxQH7zbbbNPd8573LM/ZpwTK48RkQ7z5zW8unwFHMaesn2/ZZJNNip52ep73cg7/5Cc/KTYAgoP0xCEUG220UdHn7BH3RTof561yNtxww+5973tf+SyAiHk3Imibgjre97737W53u9sVh2zYH9oQNpBom5P81Md9iJ1+YIPoE7bENa95zZJWiDy2sK88+tF7tQ+JZAMph+1yoxvd6ApO60TiysTEESiChoeG98Q+pxe96EXFa4FsvOxlLyvCB3mygA8++OBZBAoZeNrTnlZIAo+O5wgWniCn53nGAubpWCgQnCc84QkldY9AUG4L9yAbhBdPDCLYQhSMYEWieFYCyNeLX/zi7oY3vGGpJwL0+te/vpAdz4TQUXeeJALW9wGHSxA6a6+9dvEsEUjf/OY3C2F8wAMeUAik0wMJ6CCQQvpHHnlkeR8vkT7Th9/+9reLIHZQhfI22GCD4gGaL/yeSCQSicTqAHpyn3326dZYY43i4H3Pe97T/fCHP+w+//nPl9Pz6uiO9DX6/SY3uUnRxbJiOHtFj5ys6znwbzbAdtttV8oBJIUNwx7iHEa26HbRmKc+9anlwAnOWvqZo9N36iNThg5nO/ne4RR0v/tkoXCusotqOwV5eutb31qImnoce+yx5ZAsdoP93ne/+92LveB6yUteMv3UVIqduiA53hsRJ/X2bpk7nMbsOn0StoRolAMsOHF9j+ixWRzeJYKF9CFx3se+GXJKJxJXFiaOQNlTJGpEyAgRt/t1EANeDaFpi64mUHJmEY2hPFkpcIgADwdCshAQYFLzEDeLuQ2tBxCo5z//+YVAIWqiRS28e7PNNisemZZAIY48V7xCUuqGQNggUIjcG97whulPu/JbVNqmbwi7GjxMvuPxkpMcELFSD/3CO9ZC6h5vltMGRQGlFyQSiUQisTqDXSIixLCXTs9Z24JTM3SmLQkIBbuGjpep0topSIXIDyIhfZ+uB2mAp59+enf961+//G5TRH0AMVM2+yHAMYpsiDCdf/75058ugff6LU26nxM6tkF4vzQ8doJokTq26fscqwiS79kPAfuh9thjj9If7J/nPe955cd5A9L+kC/tZ7fUe6k4vdlzCGdtE4HvkSjPiWrZS5VITAomjkAhGLwXwtrhganB08ETwpODpLR7oAKEgXsJAF4XC1joWYocD8tCgJAgJte4xjW64447rgiLISwrgfIs4So0rqwhjCJQH/7whwtJImDrvGu45JJLisdLn4YHR/8QXMiRlEjpj0MgJHm+hOWVk0gkEonE6gyZIbJhIgVuvgOq2AIRvUEIkJ4W7BWRGjbAU57ylEKEgA0jO4RdgayJWrU6vgYyhwSJYg391AnbAsGRTigDJTJSRJ9OPvnkknUiZW/IJhD1Uo873/nOs073c6+UO9E4Ubl2//dnPvOZsi0ACYy0RhAdQ/QQKHvCWugTe7FFtmQgzdXuRGJFY+IIFEFhYTP420gKEFSiJaOOMUcM5PcKpxMSRx99dNnUyNOCdBFgC/nhW14UQu26171uEZhf+MIXpr+5IhaLQPn9hzhZp8UoAkWoyncWApdaUMMGV0KxjkBp16Mf/ejSLkJzlGAS8ZMDLXVASH0+RZFIJBKJxKoMOlU6mv06UuPmA2ewyBI9PCqDJVLqpc4hEwgNiNYgIAiKdyIc0vSVyd6pQT8jdNLzOH2HIjayfB7+8IeXbQAiW1EGGyT2N7GdhsB2Uj+HQ9TbGNgJ9ivZq1RHpgIia+ruHs5s8F7l6RfbDKQetpDaKCPJHm37wEcdQJFIXBmYOAJlQQsPI1BDC0r4GjkaOsYcCXCwgvxfAoSwEmFxEQpxSccbFx/4wAeKUEA0RL7alMIaCFTsgVoWAiXKNeq4zlEEyrGfIknIJ7IopU/EiOCyKdXBF1IiQ1iKoknP49mxv2nUSXtykQli5Ezucp0+kEgkEonE6gaZHmyJxzzmMbNS1UYBqaCD2Sb2GQ9BNMb3CEV7sAPbRjoeZzAC5d0culLx6mwVdoOtAHFgQ5CwGuwO+7BtSahtIfWKgyWc9tfCe+zbYqPUTlfv1D7POZ2vJZRIj/vVmY0itRGUx1nMXpIOWbcj4CdrlKu+Q/ZgInFlYuIIFIPfAQtOfxtaMAiAxX2LW9yieCZqAkWYWGgWqkMYHvnIR5aDH1w8LkgVr8soD1ALYfb99tuvlOdXvZGUuYAERQheDnNsDK0h7C0dbi4CZeOm0PUQRhEoQsuGUN4hKZCiRkL4+oNQdAR8CC4g9Hmx5BaL0o06ZY/ny1ggkUhZeoASiUQisboCcZDpQQdzmM7nVOR0dR/dzDla79uuwUFpj7VU/FHHdXN8IlcOhGKXcI46eCJAr7NZpMSdcMIJ05/OBiJmHxO9Xr9HFgs9Lwo1lK7PdpG651kn7kU2CtvBoRkIogha6/xVpyOOOKIQNvdFFgx7ymnLCJQDKVqyJwuHbaKdThce+lmYROLKxMQRKAa76BOyY19PC5sykQFeGoKiJlAiUhabYztrsgAOl0Cq7IEadUBDDcLBbxAQaIhIfeT4KBCUSA1BKYe4TUEkEM4888ziUUESa0/UshAo5fptLKQMUfS5vwiVKJMwufJrEFa8SfrLcaijTibUBwQjYTtECBOJRCKRWF3gsCpZGfb7iJwMAYkIgsERiyiwC+jTUbrdHh9lOrCJnge6fchpybksrZ7+jt+QAul5HKgyS9gELdTpda97XSEtjg2v9b4jwpUpCtY6r5EXbfA+BKr+DUrvlPXCtnIiYAvOXbYau0ekKohSECg2jzq1kP2DsCmXMzx+oDeRmBRMHIGy2BxDzoMiTC7P1oIjdCw4Agj5kJYnKlR7c8Ir4zmEQbSK8OG1Edni2fH9fHugPCM6ZNOnxeuwBeSIMONtai9CKVLj/Pic99hvhchIjVN/dYgfuSMkfV8TrIUSKJE0P7wLPDw8OJ7l6UF07IMiBB1Rqt/c0wpiqZCekZss51oIXV21Sb1tRpUmYCwIurnSFxOJRCKRWNVBN8swYUtw2tq7FHqTnndQk2iNf4M0eBErBygMkZoAh6aDqtgvcYAEG0HECQnzXnaGv476thVAan38OC7YXySKxMHM/lAvujyiQuwA+5vofe+rT+UVjfKsfUqyfLSHzkeQnvWsZ5XTetld7ol9TMAmQfo4WsOpW8Mx6Gwp5MxpyAFtFGGyPUJqov+zsdhCTvtzYAY7h73HNhplEyUSVxYmjkBZtPYaWeC8JDwPTs3zm0dOd3F4hOgUYnPggQfOikDJsyWkfC9UTlh5Vp6y3zWQF0zozZfCJ0Qv1Cy9zeKVp0tICbETLHE5zEKOLgEZixtZ8Uva3sN7YuGrh3C6tDqph1Gu5wKEhjA/wSfCNkpYEFYibARZ/A4UAoec2RcmYmZjqyieQyP8lXesDUL99V4n5BNZU1eEzjGr6qpt6i3qpJ+lSg79plUikUgkEqsTkJj4zUaRHk5LNgUbgd3hQATkJFLORHacQEe31yfX1XASnq0G7Be/fYnoAELCZkDA6PsLL7yw6OY40U7Ep/55EY5fWwTYB37mRb3sC49j1kXP1FddOE0RloDDt/xorewW2Sv2R3m/371kUyBrnvP/OhsFQUKuELo6nTCgDuwSP8LLPgogd+pmrzp7j43khD42iSga+4MNyHZjZ9V1TSQmARNHoIAnQqRp2223LYvZ4kSKpOAhAoSGfFqCqvagEAAOSrBQfS+lzaKWTieCYuHzkohGzQU5vaJbiIXL+wkx5M3fuESaXKI/EZ2xyJEZHip1IBw8JyxOqCJHPDEIVH3EqOiPuvO48MogkkNAZHh71Kv29iBjcpdFi3iQ/CaD9iJPTu/RBgLp1FNPnSVwRfxOPPHEkmNMIOuzaJ8f1/XjeEO/cZFIJBKJxOoIURn6ml2CrNDn9iOxWTh2OVvjeHA/fEtf09tslCE4cIrjFZFw0FRkizjd7oADDpjJarGfWQSIPcFhrB412C4ICH3PduJU5XgOW8MpwlL22SZ1Gh5w2trewOmqvt7p32wJtoaT99gz3hsHPiCT7ClZNTKH2q0T4GdZlMfx26bhSSE89NBDi90iEwb5Y+dx5truwAbRryJxkeWTSEwKJpJAgcVMkEifE9JmyCMmEVI+44wzymJvIzWiKlLTEBW/t4CM8GrwBhEeTqgZ+m2EGt7hGWFrv8dgMSvLoQv+tpe9Wq13RPocT1IcYnHWWWcV4iIUL9/XdxGmB+/06+C8MLw4o4SF9tnASXjHIRQiZsoXcSK8CUaRKsJJOgHPWByGgVC2e7NEpXjJEKloE7KnD4ZOxkkkEolEYnWGaA696wde6Uy2hoiK/dL1QQrS+tkv55133qwMkBpsGnuZ2DXKrcHJqVxERDaN7Bh7xcNp20J0iI2hXhzH7KQgLmwCB13Jdhk6lAHpc8hE2F3IUqTdiTSF3RH7u9gpUv/YDtLu2gMkwJaJo446qpBKUacanucU5jDXPtExWUPqpiy2joykUf2WSFyZmFgClRgfBJr0QGFyGy+HgJQJh/Mg8WolEolEIpFIJBKJhSMJ1CoAkSu//2QzJo+YiJSIGC9RbGyVN20/k5D+qN+hSCQSiUQikUgkEnMjCdQqAHnVUvfs75KiJ1zuuFCn9wiHC43LiZZDfcopp2RaXiKRSCQSiUQisZRIArUKQF6x/V1+xG6LLbYopwPFYRCIk0MsbOCUSyy/OjdjJhKJRCKRSCQSS4ckUKsIkCI/Fizq5CAKm1rj0IvTTz+9+9KXvjTyZL9EIpFIJBKJRCIxHpJAJRKJRCKRSCQSicSYSAKVSCQSiUQikUgkEmMiCVQikUgkEolEIpFIjIkkUIlEIpFIJBKJRCIxJpJAJRKJRCKRSCQSicSYSAKVSCQSiUQikUgkEmMiCVQikUgkEolEIpFIjIkkUIlEIpFIJBKJRCIxJpJAJRKJRCKRSCQSicSYSAKVSCQSiUQikUgkEmMiCVQikUgkEolEIpFIjIkkUIlEIpFIJBKJRCIxJpJAJRKJRCKRSCQSicSYSAK1SPjd737XvfzlL+8OPfTQ7otf/OL0p4mVBX/5y1+6o48+unvc4x7XXXLJJdOfrqT4wx+6fjJ23d57d90jH9l173tf1/2//zf95Tz4xS+67pRTljx7zjld97e/TX85Ifjtb7vuNa+ZqqPr/e/vun/9a/rLxKLh4x/vuoMP7rp99pmaEz//+fQXicSKx0c/+tGiX0899dR+ued6Xxnwxz/+sXvOc57TPeUpT+m+/e1vd//3f/83/c2VD3X5+te/3h155JHdiSee2F1++eXT3yw+/vu//7t7y1ve0h1yyCHdxz72se6//uu/pr9JrMyYSAL1ve99r3v1q1/dnXTSSd2xxx7bHXPMMd3Tnva0shDf9a53dd/97nen75wc/PCHP+we8pCHdGuuuWb3tre9bfrTrvvzn//cnXvuuUXof/azn50oAdLiggsu6J773Od27373u7v/+Z//mf509cBvfvOb7la3ulV3jWtco3vzm988/ekUCDz98o53vGM8wdeTsWLU92PeP6iA6S8atPf5t8+WFd/4RtftvHO/uvvl7Xr607vu97+f/nIefOUrXbf99kue7dddISyThC99qet2331JHZ/xjK7705+mv1xK9DKne/7zp8Zhvuuss8YnpAsFktLPs/KeF7yg6y69tOv+85/pL1cwenk708fbbjs1N8AaMAZnnDFVz/e8hwdp6rvEagn64gtf+EL3ile8ohc3Ty/6+uSTT+7e+c53Fn29GPrkxS9+cT8Vr9Ld9a537f76179Of7pw/OMf/yjGLJn+iU98YvrTxPLAZZdd1m2zzTbdjW984+68887r/vd//7d87u8nP/nJYhf5fFnH8z29DHp+L78/97nPjT3X2GLevcEGG3RbbbVV95Of/GT6m8WHOj7hCU/o1lhjje60005bpvYmJge9Zpw8vOY1r+nWWWedIizXW2+9bsMNN+xucpObdOuvv3636aabdg9/+MOLsf+3CfKMW3yPeMQjiqB4+9vfPv1p133/+9/vdtttt9IWRDAEyCRiv/32K/W8293u1tuHy8lAnFCIIBKi5ltLoIyrfvH9n8Yx1H/0o6574AOXGJ+PfvT0Fw1+/OPZ993vfl337W9Pf7kMEEG7z32myrz+9bvu+OPHN3BFT3fZZerZddftuuOOmzwC9alPdd2uu07V8apX7bpnP5urc/rLpURvUM2Mw3zXJptMReqWB849t+u23HLJu5DrK0vOHXvsknrsuGPXffWrU5+bD+ZUfHf3u3e9JTr1XWK1A4L0kpe8pNt55527m93sZkUH+nub29ymGM8ci75fVg//a1/72mIXbL/99stkgJL1m2++eT91r1IyDhLLDz//+c97dbJLmQsf+MAHZuyff//734VQGIM99thjmciL8bzHPe5RykLc//73v09/MzcQKFHN293udt0OO+xQnODLC//85z9L3diwiB7HemLlR6/9Jg8iTxYDYclDcfbZZ3dnnXVWd8IJJ3Tbbrttt9Zaa3V3uctduve9731lIU4CgkAheiIVgZ/97Gfd4Ycf3t361rfuXvrSl040gTquN5Ypvkc+8pHFY7I6gRC+853vXAScuVbj2b2Brl8OPPDA8Ug7QXz/+y8xMA85ZPqLBohWfV8vxLuLLybZp29YSiBBEYHqCWGJ0IxLoEQWgpwE+Zo0AvXpT3fdfe87Vcc11ui6E09cdgJ1/vldt+mmXT/Qs68NN+y6G9xgiqjFON3xjl33q19NP7jIMPe8M96l/6VkXhlAnqMe97rXEgJ12WVdb/0s+e5Od5oifonVCnTZN77xjW6fffYpuvqmN71p97CHPaw788wzS+Tpla98ZXfwwQd3N7/5zfslc8eSwrUsQKCuc53r9Hz97stEoBA5pI5MP0VqamK5AYHatdcnm2yySffBD35wFoESidloo426o446qhenSy9PjafUTu942cteVsjKOAgCtcUWW3Q77rhjr457fbycEATqBr0uOf3005NArSLotd/kQaoeAkUgy1GVPyrnmff/4x//eAnhX7U3aA466KDlGnZdCEYRKOHk3/YGqMU5VvTiSsTvf//74oX59a9/PdFEb3lgLgL1h96A1S+E/Fj9gkCJLF3talMG5qgIVESqrn71qft4+T//+SuXQH35yysngVrW/HUR1x/8YCqVL67vf7/rBdDU/p8gNfrkyU9enFTLIXzkI1NE2pwQAewNgm5Mj+qio44y1QQKoRMZ0xfqyQmA+CdWK/z0pz8thuu1rnWt7g53uEP3pje9qchIxqJUZ1kMv/zlL0uaHJlKvywLFotA/ec//yn1ItPt0UksP7QESt8D8qLv2UV077I4wpUpBf/HP/5xsbEWsk0iCVRiWdBrxsmD3GQESupeS5AYsDxb0gQYvJOSw0yZDBGoxMoByn0UgVowEKgHPWg8AuW+IFCM1Cs7AmXPzcpIoJZXTrm2779/11tuU+/bbruuu+ii5bcvCTFD2rzjM5/pekuP0Jv+cgWjJVCxB0rb1cs4qKc9d6tZym+i69773vf2IuL6vZi7WsmumGt/qO/CeF5aLBaBSqw4/OIXvxgkUJMC+5uTQCWWFr1mXDxYHCJGNpIiQTZqSmFbKIJACbE7UKKFtAG51b6v96vwKr3xjW8sGwpFrRzaIJolNW1o8dqf5H7fm9zPe97zSoRrrvQ1hrbUwWc961lls+yLXvSikgMuaiOf2obEmkCJnH3+85/vXvjCF/b2UG8QDYAyOP/888v71eP43nDRLh6yNuIhXP3hD3+4LEL3OmTjVa96VW/bfOUK99rA6b7Y1OvybyfO6OP3v//9s8LdypCr7hAJ/deCEnTC4Ate8IKZspR/4YUXjkxtMwbK/M53vjOz0VjahHorx7NzKUP1uLgnFTYQR3uddvjlL395vGhQA9FA6SXPfOYzS3lC/sgvgSY91B6olkB97WtfK/d5bqzTn5aFQF0yfQKgiEr/vn6gun6STRGr+t1zHVQxDoHyf9GOvl/L8w4scOoah8QDHjD1bEugRGjcJyLDcPb/D32o6yfu1AEMDOwLLpg6fMBnZ589HKmxDvp5U+5z4Eo1B4th3q/VmXqdfDLLqesnzpL7agKlj/WBg2XURbnRZ+q4LNEbzzrNcJ11pt7Vk+t+4U/tSUJyzZPou09+0mSdfrAHBdmv09JX7tGvtYFJxuh/3+m7j3506jPjrg+1Wfkxbr7r19LMQRdIi/5wb/SVfnBq4m9+M/VMC952fdfLi3L/0NWv1dKX0K+R0m5XTaC081vf6rozz5yqp7ZfWVGyxIJBbpJp9EboafprISBHjzjiiHJo0oMf/OClygShS0UA6AP7g5/Ry6k3vOENRb8PRRGCQNnvEvtcHNjksIpRJ9/S+fQunecwp/iM3gn9U4NeIf/pKfrq0ksvndGhthM4+GC+/cH64q1vfWtpj3bZemBftAjJ0sLJsPSoerjoI20e0kc++3S/zms9zf5Q96H9QXS3PeVIsHGl59kGdCR9q9/p77nA9nLAF7vIO82tH/T6wRjvueeeZQ9Ua4Ppa336oV5uq5fv3EPXf/Ob37yCvRZgo9lHxA6KyJXDIHzG1ho6REL6qL312sPeo8vZUg6dsLfZHqhRBCrGU3/oS1tMzNuFkPj5CJT/Gx/fmTNh133pS18a+1CMxIpHrxkXBxYtQSXn+ZrXvGavc6cIkIlgAi7E2J2PQFnMDjpAVqQNBBjrcq1tCiRYCXaRqutd73rl+MhYbCarhaqut7/97Us5Lt40xIygkrZVg0C3qAnDLbfcsghyZfOsiDwRUA/qjWHlWJwBIWXC274ti68NVX+rN0R8b0+XiJvnRbHkBj/mMY8p74y+Ixye/OQnd/e85z3LYRr6Z9111+1udKMblZxubaqFOzJL2fheuVG+vnU9oDeU63YSysZO+S0hQoS1kTdJaqV3a79ru+22K0JFW1pom5PtCAXPGxNtE+m59rWvXbyJFNYQAUMAPbP77rt3m222WXknAaQNPkNUFyLEzCX1uOUtb9ld97rXLeUQ7PqU4tanPmsJVBxqYm6MlfLREqjDD5/+ooG+78dtFoGyBwkYyP04lM/7/iuGez0nKWPv8L2r3mc1H4HqCWM5eKFfQzPPu3pF0k+6rrvznaf+HwQqnuUYiHt3263rbMDeYoslnyELhx225P/9OrxCaheCcMABS+7ZY48psgHSF486ampPTXzv6o20ch9jhzJxX02gDjqo6625qcMd6uf0Z6/4CuFZKBhwSI8xsP/Jtd9+2PTU9+rRr62Zdx144OwomHS3GAPXox41++AJ5POhD13yvXbrB228wx2mPvNOxAoQS/fE/Y4X79dGd9vbLvnM5f/9Wiz3hxHqr31LxscBITEvR10x//u1O/OZvowUPvOhJlf9mi7tSUw8OKQYng4MIn9Dz5KLDN5xQddyOJHH9jyNMnaHwEBHCMhdhqvTT8lkziv6RN0+9alPXYEc1AQqvtt3331LGx796EcP6gIGfNzjfeDZJz7xieWzxz72seWzAONdJoK9XPShuti/rF5rr7120Y0+l3bWwvtFNNgaG2+8cdG7t7jFLYquo2ekO3K+LuQwDcSWIU3v6ie2gcu+svv2MhD5iL5go7C1ECH9qs5xAJe6qLt9R8hzPV7S7PSf+YCEeJ5eVnc2ERtDfwxl+7BNOJDNH/Vja7EPHNKhTGPm0I/b9nKpJVB0uzHYe++9S6SKbWS/uM84o5G5FuwbYyJtlG0R5EL9PMf5XJNE/0aufK9e5hgdb+6yxzitjc29733vKxAoduI555xTxpN9Zo7qS/3B5kHcxyXFowiU+rPx1Ps+97lPmWsxZ1xsyiCYiclDr/0WBxbu4x//+CLgTOS4LFzG6UImQE2g2pNRCAmHSlisDFqkIuDfJiGv2NZbb13+rSxCgREMFjCPG6JlQViwolAIFwFrAltg0gRrMoJoaB9DmnDgXULeHDAQ0bAgM+oXsFAsUt8hk7VSIEjt40Ja5JBbkOrmCHfC0aJFEiL9gQfEe5zqRxAiarxMTrkhUAg9HpWASJqTb17/+tcXUiAyR/gjffqXgIuFDN6rHMKhVkaEOGGjnvrG7yaol3HlhUSIkKRH9UYiQVjjjDPO6O21qxUCRDA4qclnopT3v//9y/v0HyFXA/HUxwTynXqDGkETGVNHfUY5EMq8iuOQc+NHaZobniN89bUNrML3SLfvKL6WQGknwkWxLhWBkgLGgG0vp8kxslsCxeDl7fd/n/fvLkSmNwZmQNjXJ/j5zabAXARKREjERJm+V8deqPcTa4ow1ca1Z+v3clbEd6IyiF0/fv2k7/rFNBWtEQHq11C5R7v6+TYTOdIu8zNOmbvhDaciVb5n8PdKrqTk+U65vbLqtd7Uu0R/+jlYoij2aTmxMOrSK/5S9/r++M7x20hIpbjHAo88Uhbl9Eq2RNQCojCPeMSS7+9616kxDYgO9nN05nvjUUegRaeCwGqbvuVc4XzRlz5HoNwHvXwthHWttaa+0/fa7FljZ6yi7/SDKFOsYWtclMq9vte3/Tou9/VrunwWn/cyp0Ty4IQTlnxXEygEnFMAsfXdXnstzumRieUOhj+5aw9xracdr0w3jLt/hCxmDDLyZE8sBAxj8pzhutNOOxX9TI4zLOke+oJRzdCvUafwReYE2awOnJoyKNr6i3J4D50XOoYOJve1G6mpgayQ83QVGwNZk8XiPUE66UA6vn5X2CV0tnvYHhyxCBO9jrwgYGwHenscncW4luFC796wl5X0l8wUF91Nj3HoRvSQ7qWPgyQ45U5UCMF1P9Klbg6J4pwMiB7pD7qYE1H7kU52kfdzMnMAG5OW1LD7vCeeVR/RGuXpC+31rDL1f02gzDdjIEIlCwT0M1uCnYOktzDGytX2mtAhOcp66lOfOstuQ8TNKXYbm8qYeIdxZ7cY56v3eopNVZMh9TTHpfchXocddlixC1zIIvuRTSDiNs6BWy2B8ruTwM7RD9ojKGBdIG0+YyuxSfyt7brE5KDXfosDYXcRjRDIcVlYCMRCNmvWBEqaXQ2EShTDpCcIakNfqlccGc4o52kzUUU3YsJaJBaSRcGQp1B45Qgrk5nQQKwY7RZfQHiVELYAGP+IB0HsGQvdCW3eS5jLDQ+4T5jac7wMQaC8z32EtEVq0agjsmRBipZ85CMfKQrAMwio0LVntEGbeGzce9FFFxUCRvEEUQxom8WrXBdC5Z0WK29ZLdBCQfEY1REhAgeR0QbEEhlRlnL1H4EexBNZq6NsvFmUNcGNhPG2GDPtkYJwr94wU29Etq4LJYN0EVQEr2eUqy9Ew8wR9eGp4mWcD4QhYckjh0hGX2uLefLQhz60KCp90xIoRJlSIrgXRKDCwOz7tJCK9uoVWjH+GcruawlUb1yUzxnHPP4tgRKVCfI1XwQqnuVwqCMn7mNY9OMyi/zEs6MIlIvx3SvmksKFpCiDUvPjtnEP8uhzoNj6+VNIju9EvKQe9uNQ0sHi3QjQU54y1RcicVL9dt11STphS6AQB2mH2uF+qWz9OJfvkAztX2gUqp8vvVZb8g71qU+KMld7OTBTZ++z7nlEfdcbhTPj6uqJeb/Aph/u4TeUEB/f9cZFIUggJbmfg+VzYyvND3z/+MdPzZcoU6RKmcgL4oUsxnd+/Dai9/okopXmpCgh41T/ijgGme4NmTKvwgDRb1FeTaDUBYFCuHwnkpYEaqUAY5lcDf1cX4gCmTgOGNbkOsNemttCQGdInZM2JurF4EUo6ARGMTlN3zD8a9QEKoxkz/PS07t0U+2opSvoJk7NAw44oERagM5kaGszYlHjda97XXk/h6foFB1Fh9N1X+3nP2OfvvJ82BSAvCAY+kQ2CL2tjvS8+zh31ZNBzHgfZ2uD93GOMtTZEN6hTS7jqK/YJRHRojM5Fl2IAr1I/7sf8aGL6WjEAdmLsVaW9tB/bB/P6ittZgfQl8gRIiq1r9bTdKWx0v+Ik74KvSpystdee5V+libXEih2FOKuTxExQJrZZwiP79U/oC+NMV3snjoKKFvHe5CbmAPabU7rc3YGO8132qXN5pd6ee5+vT6JOgA7c/9ed+lLdqLDUdTFZTw5DfSj58fZh++dQwTK2LEz9ZU0Q3aOPor5xjGg/hzliclDr/0WB4gOIWVBmJBxMZyFxWuiMx+CQJlsIh0mEnLEkBXK9g4h2Nbz5R6ha54WgrBerGAB8nQRkEgCb4bFTqCGQFaGU/68I9IDCRETmKDQxqEjNykEng4KhbEeGEWgLCCClDBGBNVtCBaSdvg+nm2BWIjW6Gt/a6FTg1BAcoXl1UnZNYYUFMIQ9eRpqoVWQL0ihI7c1h6ZCNMbF+SpBqXpe/3KK0rogvZSbMZA3+hvnxkHdXYR5Ag2BYO8zwXP8iCpB6FYk0PgPUQmI1VjFIEyL5aKQI17rQgCxdAOw9d3okaBP/1piuBEWh7yURMoBo3P4xKBqdMeEGd92yvgmXuQAdEYsG6k74me+G7ffaciYryxjPDoL/1Q59x7P+Pd3hxrgDeuV6DlXiRFBASJC/TKcSa6g3AwkrRtXCAeUvL0bT/vyw8L84a2XmMOFnX1HiREmqX3aKeUPZ/Hpc1IWEDEUPlIqBTEMPz0ca+YyzP6oyZQjg53v++22WYq1S7WMPmB1MT7asKDNG+99VRf9etwVl/ZF9Ib1OUZpHTam11g7IfK4y1+4hOTQK2EEK2gO8nC9qITWp05Cu71DH033/6YFvRTq3tq0DfKPvroo6c/mUKtn0KG030yM+gnuidIEkjJeuADH1iIAfIQjj26LQgUw7sGuwF54tRsU9LpCYSMjvCuSHnUZwgJ8iGSwNE5BM7PSG9jMM8He321V13qdtVgv2gXckVnauuTnvSkQT3FWPcbmgxyutzJdYBMyCphF+jzNsUQ6UBylC1CEsTL5+5XnncPOTI5J9Vfv7QpfEGg9GVEf8wLEUk2gYyWmmiqJ6Kjnu6po3hBoJCUsD/YpOqN3Jk7bdTPu5Aj4ykSWkeg2HDIJtLITgTzxmUeGA/2gGiZcZoP3jUqha+2l1oghNpl3BKTh177LQ4QAh4QuaQG3MWg9xsRNsKF8BoHQaBEmSw+ZMdklV6F9VsUiFA78ZAfJIZXYOg3JwhdAoDQJ+x4jISqXeopNQxBU2/vlyYHFrH9UqJpdd5tDQuKsS9Htj5EYhSBQgoi3M/jsxAQJDxcIlS8OsL03k3YShMcWpDIie8ILF4hecstagUVXhxKhLcH6ZSOMErB6ivCRORO/QIEnb5Uvzb8T6ARqsbVOyL9jwBHqDwnfcDYIK7+SqMwXgiZ76XeRWrGKGg7wcs7aAyGxo/CkWZA2C4agQpyI9KCALUXg3jTTZekXi0vAuVZ5NS8qPe1IAZtagAyGuRkLgIl/QsZGwJiESQMAUEsEHKeau31eW+klD05IMocaX39Oin3zyUvlB911Hcnnzz7EAPPRvvXXnsqyjIugbI+9ZH2eb6XFd2rXz3Vdy30qX53n3Gwn43CFyHr11Ahb6JYEeExJ5Ar6yOIlyiUaFQ4R0Sg5iJQQT4R0cpjWqDffOfq5XDpb0Cg+rlbCFQvc2ZS9ICsEh3zjPlQl5kEapUD3SBNrSZRdJDoyFDK1CgwGj1Lr9nPtLSgK+ht0SikAhERwVE2p1eNWj/VDlnZG/S57AGHJwQY73S9iJtITWA+AiXi4x1DjkjlhL6yxxgQCnYBgiGTIXRnC3aETBEpbePofNkV6ii7ZZRTNODQC3YSPaU/RoEjWJlSE2N/uTGQASJSJ4o0BPaP5xj0YcOI2NDJ+hgZGmo3kqavhk7hGyJQwBktU0Q/17rdHnvjTA+3h4bUBCrq51nEDQmq50UN72JDtKfwSc1THrLGXmIbaquLs9gcZe+4B2GdD6MIVA32kbVk3loLnMT6PfooMXnotd/iwQIyaXkORDosNuSpzhUeB0GgTFCESD6xi+HMmG33RQUIYqlp0r6G0goY5jwvwsPhZXJvXIQb8kW5EKARSUI25KEidELCQ8JMDq92j0ugCFNhcYLCQhkHBJYUOYJVfQgHhFIZhLc+U78h7562uJcwQbyGMESgCCrChddsrjxcnjnkQx/W5JWwUK86hSKAVBOq6oTgRC63dvq/5wh1JMq41GOF7BhrfV4rxyEQjCJVFJf+iTGogWTZN7eoBAp56NtQDN8hiOYNHSIxRKAYxy2B2nPP8QiUZ3kVEdhDD5363GXPUXvwh/c6IML3cxGofgx6ST/1eQtEWLQl2m+vFiP+Pe/puutdb+ozBEPqA68ghd/PgfI5wuE9017OQdSn8CFQ/ZiW9gXMXQTC9wiUjeLjECj9jpwhvJ5FYPRxvbephdP++jVT7kcOnRb4rndN7QuTqtjLwJKi53vkRR+QK/2cLp/5Tj+EjByXQO2335IUvcCxx0595+rl5QyBMh+Ney8jSn8h3ur49rcv+R0yV2NMJoFaNUG2S+UW6aGnkYl2v9F8kNZFJpKXyloo6AK6TJocY54uZDBz1HFUkv2iIjVGESi61EFOohZSC+lnTjK6BxlSTugWmI9AKYfdEWlWNaRryVRwiFFkVNC3IjHKY/COAvuD3nIfPTQfOAsZz7ZARNRnFOhAetKYyKYYBSn+3s92iMwNBMr+KkRoKFIDHKAckE6wi7qwsWyZEMFBhvRrC05R9yyEQBlPn4lsIaaA+HPSIjT2ots6UWOIQEnRY3eZV/V2jAC7VLRQmlxLoNiJymNXsRPZBrWd6K85Yu7KopkPcxEoWT324CNiUg3ZWuqMLLJV1UPmTGLy0Gu/xYdFwjgeWojjIAiUcLdFbsG6CMW5yFhNoKT9tbDoCFMLk4HOK6F8FwXi4lXyf2kJIaSFgnnoGOAW9BCBohAWQqDczzNGaDnidD4w8C1AG1GRP+lr4XXzlyKTxqB+LYFCOHlReBrVYRQJGCJQIl2iigSgvVaj+t/hDpQVolMT3PkIFOXbEigCVCSQwKZgkXAkNsYoLtExZGu+9FDvJcQRYJtch5QR5bbcCBQDfggM8zqKVBMofxnBPg8SVL+776PybLxjHALlYoT73LXPPkv2JwWsm3EIlP03ozaPU5KIgne7F1lw6l8/f0tUxmfSzbTHvcqJyBTyICViIEo4g5ZAUbJ13ywtgTI/EY0gRIjU2WdPHRgxCuoucuP+Xj70i6jrramp//drprMvytgYY+mMveFWiE7sczKGIlmBcQmU9Mc2ijyKQDEEHSJhPOP7+lJv/dU6cpJArdJYFj3NU87oRDZkGQxFH0ZB9kUcSkSuSrmvdRn9RmeMS6DU33eeo6c5M8l8Oo9xX+9JhmUhUHTgEIHiLKavRCdGZWkwlOlHpEGfzYfYV63s+SJQCAK7R3/OdagH0qJMui4cneMQKAS1JVD0rxRJTs5RBGppIlDIkr3oxk6WEN2M3EizM8b2ZLcYIlAyojiX2RdDBAqMJ4LUEihzT3mIPXLqu9b+MP7sknH2YLcEKuYWe8Ix/trlUt9YCy7jqd+R6cTkodd+k4cgUCYTY3pczEegLHBeDIa+UHvsuZkPDHunyniOMBtSFhaSMi16CzcwikARLCJdSI/P54OwPM8E4W4hCvMSgPKw5ej6jHdGml5NoLxP3ZEn3o1R0TsYIlCIJC8lISltYyg9EJ7ylKeUhU5Y1t6VhRAoihUITO8kXJ1yOEohjQt1jrQQpxQNESgCnAfPOC06gWo2Ks+AwHbfEIESCQoC1Y95McrrFEjGM6O37/NyzzgpfPpRupvPXf186tr0RwZ7EIK5CBRSNFcev30RcVgFo18Kmf03SAFS8/rXL4m6UOT26LhXlMT+oAHjZeb+5UGgPNMr7X4BTz3XGxPdSSfNTeRAFEh9PePy7xi3SImTFoMwqYs+2HXXqXHp5UkhlrVTYnkQKHWUQ4/wrL/+VGQs5qYUQkTae9p1kQQqMQKMxiBBovsMynHh9FN6hkNLqpTMhtBlohpxopooQI1RBArofvqRA0xUwSWa5TCpdi/TYhMo+oTNwrlJ/42yWehpBjnCWO+THgURCXWkt9t9uy0QWmnt6i7KRLe2QIwQIP0uJS1S5hdKoMKGQQiNFbsDCRhyZHI+q792j0uggCNbZAjxkjHjd5fYgzKROHVb1AQq7B/zylxBRIZIJWcwu4r9oY41gRL1U55o0zgEaT60BCr6Sr30u3chbZz65qu1wKZ0MjQbEZFMTB567Td5CAIlyjL0O1CjMB+BCoNdeJQQHJV6YGHFj6sCMhGnv0idE6GqYXEQIMiTe+RxB0YRKAvI4qCAeM2CPNQgwC1e9UZepDbwHNVHkIIyCTYEryZQnlMXioQwmsszBbWCCm8SwS1kbjwIr/qkmgDhJ0pFgbR7xBZCoAjy+Dzyv+2FqtMvauhbRLQmjKNAQUQb2vL8HwHUdn11pRIoKWBg7gnb+9z30vmkwYHyGbf9nCrfu+YiUPUhEqKdjGjfMdD9NorIFFBM9tYgbPHs0hIohMUx2PEuhr/T9RCefo2WVLkAZeIgBZEQ94pG1Xn8lCunhKiWuvbGQj9hpu5dLAKFADiMwjMu/64U6khYzzUpRcD0H3LxqEdNEUH1DVLaz7Fu3XWnxtTvXTXe8eVCoIyTsUS2zTfGGxIq9RVhb9blDJJAJUaAkS1dn16LvcFDhAPci1SE48o+ZLLYnp1Wn9AdS0Og6I5DDz10Rgchd5x+jhBv67XYBEr7kAMEzsEDrf4AbWeUqx/n4DgHb9A7bCCp90Pp8/Q+3UX/2T/DOWgsOAuH9DRyKuUM4bEPLpyhCyVQtX2hn/Wj/mhJEAc1UkB32httvoxLoPQ9h7R3OqBCmpzxZBsOOXFrAhXf6wN2hznDEds6vo2Bd+uz9hhzdhPixR6wP28I2qLfOXzngz4bIlDSWNXb3BmyWaWG6gN9kZg89Npv8hACljBaWgIVJ6e0IHB4X5QvH5m3BiFi3FtQFo5Ji+xEiJtAsRdIubwBBLUNjbwrFhdBj5RJDbRAxjnG3OJTBg+HBW4Tp42gvCDqIyUOGVK+Z+yTEtpVDsGjbkgewU34eb+FdkJvtMY7CASCTVulFvBqeEYUSt0ptdqzRXjKuaXYagWlT5Ac5TgNRvQLiVMHnjSLWxv22GOPolTqNL8gUHJ45yNQ9ffyuPW3Z6UyIH/qr84EDUJrT5w6j5M+oh+RSN43ioZCImAdjGE89a13UY72c9WgyCidBR1jbm9JEChpYUNgoMceFPeJTtSK0m8kMbh9J1phP04vhMvfIDlxMdYDSFi9f4ohHKcn2vjcK/CZ50RGGBG9Yux22WWKkDC0kRnP+jwIVN8PM8859KGNXtXox7bs7XFfPBOX31eqvbTmC4LUz+GZexAO6W5IGOWBbDDaORoQvToCJYrTEqgdd5z6HoHSvrkIlPsdFNGvrZn39wZUISTKbi857/pRG8FJdhtuuCQa6HJEvY3ijEbRvzpKFRevYkuC9HE/F8v35kUQKMrd70AFgRI1ao0wcyPKRiCDQKlfkB2n92lXL0PKiYt+p8t8R1i1qY6G1YRMf4aCDzIXZWpHu5cuscqDc09GhtR2xi1D14FG5DT9ICpFF5K3ZHgY9XQuPUPuk9887nQSXcBxJtJAFreb80fpJ0BQvIvNICWLHKcT6dQ27bwmUOpcIw6RkB0yF4Gir2pHKrJANyqTTqejtZ9jVPqY94k8qRN9Ejp6LtB1CIAyGfj6J3S3yAn7QJ9wImojgoJw0XHq4v/KcL/DIeJIdHrTZ4GaQBmbUQRKPbyzJjAO82L8mwPGzkEkxjkOQLANw3N05ygC5VCwlkCpAz2MwBhTz/v3qP3bQaDqDCH1jN/RQkL9O7ZoSAPknEXu1MF41nUQnQsnrigme4NNqT/ZpOwudh97axwyXBMo6Zsxt4yjqKk2OuBD/diAbCyZQ+aLOhizxOSh136TB94Ck8bEGmdyBhASRjIBN8TmA8LB8qMJfUJNHi8BQVjJs0WseFZqL44FwAtCOBNCFhVPj9Cv1C9leE6qXL0Hyr4r7SHUELM6l1mZCIZTYCxkP7Yn1xUh8R7/J4g8Y0FbgASSelv8SBGhyKvEw6PP3IOYgNzdyCf3DkIVkXGSjJCwI8/rforfbCKsagVFOYiAeQdhhNh4N8Hn3/oQURvy1AQZ1qYhAkXpEdzSDyICBQQooS/iRmmK/iiDUFZ/fa1NPDhDAr8FhUVohrCnhI03b6bL+CNJ+rb9/RFk1jMU41hpn70BUdK0+naXa9TGYkSrvk/Km4hAQMQJeRC5iXtcyI3DFvq+n/lMBCdgTPu5Uz5H4hjWQaAoF2TFgQaxHykuZIPhHeQDOUFihghUv8Z6LTL1+Sh4p3oFkXRJC3zLW66YLuZekTJHamtf3B+XqIy9USKjCFQQRJfnai+gNiKj8T3yMheBMqb2W8T941zIRxgSSBASUX8vQlcfsuGwibofXIht603lvZZiF/dE1FjUB4GKz+2dap1Lvcya+V6UL9Y2TzmiLqIV39eXetmvZZ6KTAUxRJ7jHoQynFLILwIV3yHkGYFaLUGmy6Sgd+k+urc+qYxc58mXuREpUgxYTiu6zHd0Gb1k3yt5T7Yzatvo0Cj9FKCvOVDpGxedhFy04DTksHQPuV+DnuMktVdpiECxHdglMi7a1EBGtXfSIXQao1w76WfPKJMR355GOxeUicyxOehafauv6C8HQTDG46dF/BUhYo+IdBkT+pKuR1bVy7PtoUvGUNSPjkMUWsIJdK/+qiM8IPqCdLFXOJBF7jio2UXe798xztpSE6g4EdD4twQK2AOcsjGe/l3bZDVivxjSEdkzwMmrD+xNlyFkTNgt7ImwKSLi2NaBPWne6jdExrNsKDaacWZLIMatXTMEfYak6iMO9Zhb1oTsFw5cjgNrwBhJBVU/c90z2p6YPPTab/JgAyFBbJK26WpzQYiasJASN9deH/A9YSaE6zAHC8SE5VVwwpBIVStILAJCwAIMD5d3IQEWgtQBgq32khD0DHALgQJojX0LSZkETZSpHhb9W3pDs0430xeEjjQ098kPdh/PjovQ8n0AOXJvlEuI+hsXr0adGuAwC8Ka0K+FJCB7okIOdSCg4/3GiNLhdRwSvDxk+leue5tLTJjKVaeMeALbULh0DlFFQpsSinprp2iefOFxok8BbTJWhFP0CWFIKRo/Y8DTx/tTw3wwrvp6SKleAYggg7wXsIUQ9AJzEKIp9X32OdXCWH8yaKWgicCIFvVzo5AaEQOEBtnxbBwJDt7Pe6tcEYdXvWoqJTDQj2U5MEDUCgnr50U/8FMGOK+qE9oY4EgW0hLPUrw+6/uuXzhTqYJzgSFur1PfdyWahZAhNqOiFeaH9LLe+Cp1EolRPxE3m65DeSITxxwzdY+rn2OzCBnvrlMA9Yv+0jdz7SEwh/SRaJm2uRA277/FLa546dN+HpX3gP4RwXKwRjxvzKYNxoKLLppqR3wv2jfkTXWfvnWPfWGR0onk9fJjpo7mSuVwKLC5GhFy8awj8uQNJ5T6IMjI+AYbTLVD+0TORDdFz+w/k8IZ0TzzSzqlPhZFDa+170Wuor36egwjIrFqggwmx0WaGKIhp+kxp7dxcjFkw7EH9K+UNk5CshgZoHc4DGUFMBila9WYSz+BetjjzLHmPnZE/c6AZxmxCIk61LB/GQlT7yHdQh/RP+wE0Yga3iU6wdHKsRn61nsQNsRlnMhTDTpQ9gsdyIGnPMSE3YI86dealHDYsj8cAc/hGWNBr9HTbZ0BoePkNV6jjkBHFJAkZKndQ6yf9Jt3GEv6HoEWMWOzsBnoXH1X2z9SHZEQUaPazgm4Vwqm6JF5RXeP6j+RMeOOALJVamiz33tig6kf+0VqoX516UsEbIjYythhJ3K463d9qR+Qe9k3nhmye1qotznH8W4e1/MXAXOsPbKmfvaLqQ+7Q+YNOw0xTEweJpJAMVJ5A3gg6v0088Ek9cy4z/FUCLETeiJdhLoF0QqIGsqNZ2zyM/kjqkR4ERi14CUEpPFZiO3RmwFlem9dD54zi6xdnOrsnd7tUhfPu0SpahKiP9yrL4Xsle2KZ9W1XsjIns/UZSiqQ1CLwKhflKP8IUUT0HZeI6lvtaAHbfN+ZWhv+z24R78pw/u8V3u0cxzB1cJYmR/R1/4dSla79WHbHh5LQlgdh/plBlEf7UAG+r7sO2tJBCfgPuW46vv695fPapiLDFaKD3FwMabVmTJBwtp3KJ/n1eeeC9Ln86ij9aFcXjf39e2euc+cQFbaZ3n2+rEq3ynffW19o23gLzKKXDDAkaE40KK+r4YytSXa6l39GJV3B6w3feU7F3Kkz+vyrAMERvusu2g3DNVZO73P/fNdxss7o0x//b9+nld4el4VGCtGQnyvTT5rQfkb03hP3KN9iJr2+k4f1eUDr3yUb3yin57znKm9aAisY/M/+tGpsXX1Rk0ZGyTqKr06QDp9Pqo8iLpEe9u2JlY7kN1kci2n6YnYozOE0DfuJ4/JV/LZ5bk2XXo+/QRsB7qWvB6llzyrbPe1TjvvmEvWa4vv1WGInEHo6Fqf05tz6o55QAdy8ukrupyeUtchnRl62v3j6GntcL++raM3NUS3jK3+HdK7bKbQq94XdglwnHp/S37UX5mxz3sI2k3f6/NR5AmUoSz2xlD9tCvmpv4LZ64xUVfXUF+CZ7WNk1h/xlydy05soU7mmj5mT7R1bO0671O+PvSuiDImJgsTSaASiZUSDHYRnFpR2QckqlIrJtEL+04q8lqiO2efPfuz971v6tCHGiIU7gtjFjzrgIX6HX4L5APNISnKk55Y3+dZ0agaUjHtm6nh/+2PLJ533lSUoleEM1CWz+IdohZS1fbff+oobREVytKzTr2rn1Xft71tNsH5zGeu2F6HIoiS1fjgB6ciMEH4wA+D8qhOK/IC41OnSa7qkO4ofQ85cjlspFbGCJZoVexnEr1CjBKJRCKRSIxEEqhEYrEgqvC6103tj+HFZ7xLb+LhF4URvVmMzxi88RliE59JQ1vIZ8hOfKbOS/uZAwmG7hNB8Vea1w1vOJUi+N3vThE5aYj1s8hTPCttMD6TujD0mX6Jz5Cn+Exq2dBnxkMfnH76FLFaXSC6ePDBSwiUlDx94nAO0UB71KTz+c4BFfZZNV75RCKRSCQSs5EEKpFYTIis2H/ktLbDDps6MEFUxclzjtuuP7P/KT5zeMBifibCNfSZiNbSfuZwlPk+E+HyGTLkQpzCeLf/STqZ0/Tc5zALz/osnm0/E81a2s9EuOIz9bMPCMFdnQiCtBR94FALB3jEWNSX/U/219l7Zl9bpuMlEolEIjEneu2ZSCQWDXKbpe05oAGBkc5Xf4Y8xWd+C2lZP0Oe4jMHTizkMwQoPhOVic+k3833WaQCjvrMbx85nU30aeONp06pc5iDU6/0S/tspP35zOmDC/kMUYrP7OmZ67M6xW91gf1KEeFzOqPxQJhcDoJwRK5onuhgIpFIJBKJeZEEKpFYbNivI42MAR+YxM8cfBCwT2gxPxPF+MlPpk6Ci0MIGPLuq+uyPN47zmerG/SVyJt+iIMhXPY7GRtEOpFIJBKJxFhIApVIJBKJRCKRSCQSYyIJVCKRSCQSiYnAl770pfKbOX5g9DnPeU73+c9/voufCkkkJgmOH/e7ZX77y/HoKwKOc/e7a367yxrx259+1HlpftZlPjju3298nXTSSeV49cRsJIFKJBKJRGIlh9+08ePpDDqkY1l+d2h5wW/dfOhDH+ouvPDC8ptCNRiGflT+fve7X7fuuut2N77xjcuPxzJOGXLf/OY3S9s++9nPdqN+N2gS4LcNv/KVr3Tnnntu+aHbSRyHxOLgG9/4Rrfjjjt266+/fiE1yxt+h+zMM88sP3q89tprlzVy5zvfufzo7qjfsVoWcGb4AeKrX/3qnR+5TsxGEqhEIpFIJFZy+BHRvfbaq7vKVa7S7bvvvgv6oc/FAELkx1v9CO4ognP66acXYwwxQi4CvOdf+MIXum233ba77nWv2x144IHdm970pu5tb3tbd8EFFxTidfDBB5e2aWP9A/CTBp76+9znPqWuJ5xwwnIxbBOTgXPOOae7xS1u0W266abLPULjR3WRGO/iYHjiE59Y1sjLX/7yQnSWxzw777zzupve9KbdFltsUZwyidlIApVIJBKJxEqOX/ziF929733v7qpXvWr3jGc8Y4VHaRhziNHRRx/d/cbBJANg9CEWO+20U6lv4G9/+1t3yimndNe//vW7Rz3qUYVciUi5kCX33ve+9y3PPu1pT1vh5HAh+OIXv9jd6la3KnVl3C6P1KrEZED6HIfA3e9+95FzfrHw05/+tNt99927NdZYo3vqU59aorLWhzRC62F5zLPXvva13bWvfe3uIQ95SPcDB0IlZiEJVCKRSCQSKzkQDV7iD3/4w91ll122wg13Rh3S8LjHPa773e9+N/3pbHzta18rXu0vf/nLs/Y1Mc4e+tCHduutt173Fj/X0IChePHFF5do1E9+8pOJJiV/+tOfuo9+9KPd+eef3/3Sj6snVlkcfvjhZc4j/W1K6mLjk5/8ZLfBBht0G2+8cfexj31s+tPlBxGtk08+ubve9a7XHXfccSPX9OqMJFCJRCKRSCSWCY9//OPLnoy3+xHuBULUZssttywGon0licSk4+9//3sh/aKmIo1I/vLEBz7wge6GN7xhd8ABB3S///3vpz9dfvjDH/5QnCHWpH1Xkxz1vbKQBCqRSCQSiQkCY+zSSy8tm8PPOuusEtGQsiNqI71NNIaBE+At/uEPf1gOWXCQRA2pRaIhNrm3aX0OOPjZz35WvndIQ7uPwvt8bq+HyJBDHpw2FtEjdXBYwqte9aruHve4R4kg8cq/8Y1vLPW2NyNw+eWXl8MjPve5z5XnvcvpYe9973u7Jz/5yWVTvHQhJ3559jOf+Uy5Tx1//OMfl/eIXA1B1OfTn/502TPlWe2R8hT1rKFv9dG73/3ucu9HPvKR0kfeYx+Wcuo9VqJ5ombujesd73hHqbf+QPjCuNS/9sI4KEOkbAj2qhk/p5spyxjrk3o8a9j/FfvAQFRLfYyHOhif+YxbfaGu3qePzAV71RYC79FXxhHMg7PPPrt761vfOtPeuQ7M0DfGO+a09ouYGrsWf/3rX0uUJQ7hULY5qO6imHO9JyC17ZJLLinv0Vcis+b6qL1C6mEcjK36aZvDQIzXELRfKqr9QfqzrVPMBWOkPPuXjKHoKYeBeWZNzwX7ntTJ8495zGPK/sAddtihHKzyrne9q6wH9wTMW2VzYnhGX5vrc+0ZdDBFyJropzi0Zbfddit7vD7xiU9M3z0bUmutNe/yrPkR83R1QBKoRCKRSCQmBAw5Bon9DhtuuGF3gxvcoLvjHe/YPf/5zy+G0f77718834z9AIPzmGOO6a55zWuWPUg1Xv3qV5cynG7HWKrhuRe96EXdjW50o7JvqjbE3Yu07L333t0tb3nLctLYbW5zm+IBZ/wBgrTNNtt066yzTkllutrVrlbu4yl3OWoZGI2MbM8/6EEPKu9FZBiCt7vd7Uq9PX+ta12rPK++DEb3Mf7UzXdPetKTSnk1EBx942Qyz2mLjfZPeMITuosuumhWZCD6lmEoWqaOd7rTnbqnP/3pxUDffvvty16rX/3qV9NPTB0U4KQ1Zbvfczbxq6/Pnvvc586QAERMHdWB175NNUQgHKShPJvzo0x1twdMKmNtiPu3fSg3u9nNytHuDFl9oc/1E9LpUA2fD6U12lvGwBUd1CfqheTe9ra3LWlZ3/nOd0YSihr68IgjjijjhxAYS2UaO32hLv5fHwxSQ/oX8rPffvuVOa0ennFoyEte8pLS33X9ER9lP/rRjy5tO/LII0vqmnn2rGc9axZpGIJxQOoRHBEU79pss826Y4899gqHPQTR0f93u9vdSt3iute97tW9+MUvLkShrp9/I7X60Zxp223e6idrVXuN8UYbbVTawcmh3Pvf//6FoM0FZJVDQhqdvVbmHBKlbptsskl34oknlkgYIJmvfOUri9zwPvf4u8suu5S+l2LYzhHz9s1vfnP3gAc8oNRTP93+9rcvfWFtap/LvK1BNnCGcHwgkN4jEqdOjlZHyFpnzaqIJFCJRCKRSEwAeM2RAcYMgwsJEJFh4DAoGdKMqYc//OGzDEFRCREgJINBWoPRyvBy+EJreIpMHHTQQeXgCfsdwsBCpHikGfY3v/nNu0c84hHFcN1nn32KAc74Bh596UsIgXeos5PnGPvPe97zShQJGFz+v+aaaxajktHuXYww9zPaRJ8e+MAHdscff3wxDBEX9zG+nWq31lprdWeccUYpL8CwRVgYbw6wOOqoo7rTTjutkEUGt+8i0sKAfOlLX1r6UJsY5wxFBAQpuslNblL6AWGsow48+C972ctKnbTBMzvvvHNpr7JEsiLShVDe85737K5zneuUlKsaIifGkZGKtNkzpkwnJno3IiJl6re//e30E1MGtH43rvoYcXIhUfoJKbjGNa5RTihs07rMJSTi1re+dTnUAvHVNwxcc8k8QrbHiUSZJ8Ze3R/72MeWeYGc6A8HgyCCyFxt0AeUj6DqY2PkeeN4yCGHFHKDSDL8kT3Ql/rU54x3hADRshbMexGilgjUQPae+cxnFgKx+eablzb6v8iNchCGGo7Fd0iCea1fEEX1My8QNuRAv9XRIuTAvDfvEO6679Uf6dXn1rGxMWf0n2iOsXYQhHF3auVcQHBEDrVb/ayfRz7ykaV+CI71pS6iz+5RVwdaIDbkCEcLwiU9ljOkdpCYW35nzZpFjDks9JO+8H/9Z05aS/UcsZZFHY2N9mmX9pEvW221VXnfYYcdVhwbqzqSQCUSiUQicSWDYfKa17ymGPeiBYwwBIWhw/gW6WCwi9aI7NQpXzy+jB6GkjSagHt4uxlf0uraNCPkwO+8KFMKToARv+uuuxbSwuCWQqcsEQvGpPQmQMgQE8aX6JPjxxlbCAjjL4iFfz/sYQ8r70EIAoxt3u0HP/jBxRhTR89rMwIAvmcIu0Q+AgxaxjGyIgqAsHhWfXj23/CGNxRDz7u1G5nQtwxbxi9SoJ5SlZBH5SBFjM86KmNclOF9jHz3MyoRBlG/2nhmpDKSeeXr6IIIBfKEoDHMI4VOmVLBkCHlIZLGMiAipW9FHxAl5FMfiNgglgghg9xzooI1sXAqoogA0vCKV7yivEf9jaPvzAlEUHvmA5KBKDDgETJE1fuUhcQy6Bnb5kxdnr5D9pAhRMi8YVgbW88h4uaE6FVE/YyJKF0QDeRZuprnRFlqIjME82Xrrbcu46Dd+lk9kQ3rS1QyYD7rU8TQX2uHM0IEiYMCydX3yFedjoqIIOfGE3Gpoy3mMFKCzGgHkqRNynNqHyJpniGe3jMXrC8RWM4M81YkWPqmOa5M32ufQyyQUXWJuaWPjTnizDlh3XoOfCcSayzJGg4C60E/GT/ky3eIu/UQz4ExJGc4AYy7PtQO4xLE15wTRVzVsdoSKIJbrifGbSGY6HWYkiBy6glF5XsCVq7zOOHuxLKDwOTNkv+7rH1O+b3+9a8vSpNBkli1Ye1SWowL4z6fkkokJgHf+973iveYcYVktCkwZBePMs/w6173uln7exh+DEYGbL0His5izDB46LvWcy8NSfSAcSYaFGBMeY+61MQKGI8RLQDkhDed55lXfAjqLnIi6oEY1mDkMc55tIeMLgav+jmiPYxYOoGOUHfG6qhTyax99zIKRegQALq+9sQD40+aJJIipXEU9LloCuNe5K492pkhinQah4guMIAZ8ogComf/Uwvt3m677QpBtmcn6oe4qLdx8Cx9WMP36s2YrQkUYx3xYMTXhAEYyQx5xrGI33xREJA6yqBmiDPSWz1qziG4jHEkMiD9ztiJTJhTNZBykQpjgggHMUJgEAJjISKEBC8En/rUp8pa8AOz7Z450amYu0HujAuCNEQkPY9ciUQhnQE2hTRQTgN2SkDqoBRVnyOZ9ToBbbSGjad51Do0RgGBCsJrvQTICOsT+eeEaN+HjCOuyDn7J/ZCIffmGwLIxm33SHFg7LnnnmV9cTzEfDSG3mOtixDXQLIQVGt8VH+uaphIAmVxYtmxQRFTjk1qNuLxxrUTpYZJZXEqw0SxUGoEoxdqN9g8AhSMnGXwvHcT2CYmRcKjoQ5zvTexeNhjjz2KkBFibpXdQkFB8LLy3vDOtEbE6gLt5gml4KyLVmiuKtBOxqLxpkTrzdzazAiLTc+tkZpIXBkwD+2ZoIsYNvX+pgCCFelmiE+AUU838vxKtePZB8aZwycQE8b00P4U6UyMK/K2/p4hKEWLDGaA0ZejUnK8T3qZlDn7O4bkKwPb94xsa7OGPToMb0SA3q7Bwy5lC7EQ3QrDnYEXhigH53zgKafLReNaQx60TRRHPeooVw3vRDwYssqpIxKgv0WSECjRhUjF+/rXvz4TsbIfrSa+AX2PzBhDkbPYt6XfpYm5jHH9rL6xt0XkjmFdkxokkJGrPIaz+0RGfG6O6E+ESOpcm3I3BHpYX0vBqwl6wMEFESWM1EVtsH9HFIn+VQf2HPIvwqG9+lI6IFstZLF5jnB5H4IzTv1q6G/vQxARMfOrTouE0IXuMy72OQ2BUx2BQjSQ4ACbQh1FNI1RQLqdSDBCW0cgA9aK9YSI1uXNB6TfMyJ19dH45rJ+1FeIG6eCeWKeGTNExjwQ/aznq7kgssauNXYtHAShnlJEa5vJ3GQPGzd1MqaIpbRhkVI6V5/U0a5VGRNJoLBY4WALj+AwYDwpJjLPAuZvwDDcocUlPGlB8BpIG2i9JSYS5YA8WeCUiBxOCw3cz1tmAfIymWzIFQ8dz0Ni+SPy9uXHLyuBYihT8NIZGB7jen1WNVBQ8pT1q3WxquYoE/Y80ryX22+//SwvsbkgZ5sxxbBYqHJOJJYHpIExFuk9G92H5iXHBwNFxKUmOyIK5CRdyZscRjYDVrSH7kQ22tQn99F79KpMjPp7TkeGGLnpezrY3hXkp3UiMqgZYojf0Cl55C3Dku5GANuojagV41DUJtL2AvStPWDapl+ibdKGkB2GXLunpQWiof3sCSl3QwRGBE+kBJGs95YF6CDRJf2gnYhpC3W1r0p0SuQ7SBAjky2BtMSesBZsEn2N1DBYA/qG8c4QbvuNM0iUw/faF3PGe6WjkfPIgfGPS5qXOSSqhciMY8+I4NnHI6qCkLRzk7wVaUKQ2WaRyUO/mBfqx4gPO85fxM48ZvQjXNFXIKpmXN3b7iMbB+axqBD5773GFbEV+Yv3mBPIvr5o0/NqiAyqL5JqDoP2Gkfkgh3JoQ/6SVRJP9lHN2S3WB/GABFtI4OjYE2I0OkPdm29/kQd1c87a1uZkyVIsrFz2mHYPZ6Xmuh+/dTKBYgDMhyqEU4N7UPgzCvr1XviinnFbpb50RLWVRUTSaAITIOEIfMu8foQ9IS8sKIBI9SlO2DEbYqOCUfYuYe3pT1WkVKxsCxuQslEV0Z45BlfJh8hIxxs0VEoLpMosfwhb5fCWywCJZoY3s/VmUBRJNaVddE6FlYVUHCMEB5la7g2PHjseLIjNSEJVGISwOvOkyx6YV4OAcEiE0UzIsoEnmWIts/aI2H/EuOKHm3lno3nHFX0aZsSCPQdY9iBELE5nEGGWIVHmkyRFeJzXu7aOx6gWxEB7xGZUa8a1qM60u8M2xo8/UiXNK86tY4zk8GGdNV7hoZAzpH/jEr2QqvD1UeKPqPdQQUiTTW0VZSBPPFOmSgRLakhXRKBEIGoCZa2s2ekPg1Fv0Cfqp93IIeg/x1owNHL0G37zf+lPirbPpUYE2OgHuFAZk857EFUALHTd/pE+eMgykMitL3tPwa5Nuo/BCv6D/mgc9lSDG91cLHnlMOoF+msx1wbfMd2c5iBub1QKEP0Q2RFv3g/xwQyEPsDtZ0dqM8dZjEqWiJ1UV3qecYe5FRHGszdIAvKjKgtItVCO0VrlIfwDhH1IUjZ0xfmnuhojHPMS/0ugwrJYifrY0RLKqgoGAdLvfbpQ05E9TfvWvvKvWEnkDXh1EC0PCfl0V9z0vvIB31pzrO1VtXMliFMJIGKcLEBtggJYMLCROB5M+hSEtxjUYgc1YvQAicgCApRqtq7ARSRZx3v2CoVgtGi8W6T3IRIrHgEgeJRTQK1OCBwCU9KZGhdrCrQzlEEipKT4sH7x7GSDpHEJABRYXwhCkN7PhhbjGWRDN7j2sjnsUdgGFLITIDhK1qiTF7hFow5jgQGXXjXh+BddCljvHW+WE8Ot2BUib60BAjUw+lyvNaMrnrNMcq0m76VqtfKZkawzAHkTXoS0AeMbFEMOrpe30PwvSgDjzrPehigAemSUn2ROGSjlQnSy+gOdURARqXxx30OkIioBEh1Ym84Pc3m/hZsDulP7kFAwiFMPtlbhrhoe6sHEWCRDMQUMQwgafSdNDIOYOPHfkISlkbmi5pIs+NwHtqjFulebf+JjogSIo7sNnUQ8dK+oXkCjHUEQJsY8S2ZXSgcTKHv7APUv8r0bvNWmpuIDdI8ZGM4pIPjQbaCPYkxLuokGiq6xyEQbVF37zHPZTe0QIwREt8jWOP+GC5dxYEhwlenT5rHbGERT8eji/hFH6vLKN1mLERapdoNpatar3HKpKhzrJfY3yXyZh3FvHLpz9URE0mgCGSDR3CM8thYyISE+3i+2tzpuUCYx3NDoFh4JqTvIW2JFY8kUIllwSgClUhMIhAoTkEEhVFUg+ErkoQg8UIzlmuDhRdatKE1cMk99zPYgnwEHJCEVISejdQ7BjbjqyUZ4IQthi2DONYUIyr2q0qPG4K22TOEyEnPr8GYQ/IQGAcktO+VwiUCY39UpL+JlCFQDEeRgUgZq8Go1W/KQzTsd2bMRwQiIMKFtKi/SySuhqiSdyCZIjhzAUllVG+//faziFIQKHUYSps2fgx5Bm29P0zEg5NXRGvod570l++QG2QlYNyNrflQp3ouDRjhUkeR2CECZR7aR4WIq0edloa8qZ9oxTipgoCYM9rNdds0RhGtIYh8jIokWT/GAMnXJvW2B0m/szWG0tg4MoyJttdpleoYc17kMoBYS2ETCZYBVUP5IqwOxkA0EayhVNIhiHapp3USjgswH6wDtipCN4owtbBeECEptW0qqmiaqKeInTkvWhgwp/12FUfE0L6p1RGLTqB4I7BTQiG8HwtFECih17lCuCJFJhbl4dCHerEZbJEpisFE9R1hIqxJEChf2JNHSQ41j7w8WIuKV0uZvAnCk/Y/EWwRygRGOK8g4eJ7ZWj3kIB0L1bPQ8UL4f8EkQWqDW0bEQZecm1StkVC4Q0tcotIiFdbeTT83zsoO3XyTuW3gshi0zfu8Y641MnYUVytt0y6E4WiXkgmRU+wtCmS44LnjZJQV+9WbhBh3ro4IaYlUKEULX71jWe1e0jgLpRAKZ9i5Z0JL5GUGV5a/aW+6j1fqFr/SQf1jMupNcZ1qI4Ev/VCUaofYezf2iaHnrLk6RkFc5Mn1Zh4xjwn5FqFon/VY+hwFYh5LT9cOeqtz8zfIRgHc4xgN048ZOarDfH6rO5r31uD5leU7Vll6POlAQ+jeeCdymNkmaf6i1EmzbcmUOa9te695sW4SieRWJ6wLqXTkXmiEdaEuU3uIyb2c4g+cQqY7/W8lbbHS84Q9FyALhKZoutEBsgycg2Z4jy0BwI54WQIuUtmiQRJAaIPPcOoYqBzKMa+ifDG+47R6B2HHnpoeZ4+IC8i2iFVC0mjq627ANlAf2gbj/eQE5TxqI6M8NCTZIV+UaaokLqSNeqqjJBdZK171VH5jFdpTvpFPUXVOFMRMUavsuoInjJ9L7rGJvB+Mjj6xL9r3SQKoB/sP6p1A/nNGFWOlCfyyLPKEwURsUJAZN7UNoa+8R2Pf2sj0J3ayQhuM2XUTbRSe9VJNMxnbDFymoxkLwzZEy20T3qe+okCOjUvUu84t809JInBXf+WE9AxSKt+dYiHdus77zVO5jHCVfch+yIO3KDDFgK6Beky9v6NtJmL8UPI7El1BDqYjjIn7ZFCaPSN+nmWk8IBE4iccakd6fSjOcsxQecEjHkc6GAtW4vmmf4WNUY8jAnH8ELaJmPKc04/rImouW0O6HtyQbuNif5VX/Vkw7QH0minaLI5L8XR3NJua8qeOnvTOHLoz/qkPbaEiKj6I6LsC/NAnawV88L69tnqgkUjUBY0w4SwJ5BMIuFlE1oodCEG0rgEyiI0qSgPgtFkDcSmVUKf8GBUWeyEkYmjfB4xgg2DJ4SFaSkIgo4i8z3hzetm71Wwf5OTElK2RWEReo6wIHAZb7V3IRYrb6ANfYxqQoJQskAjt1sfWQCUBoWhru5RB5OZEiRg6r7U7wScvuIBM+GlWPCaKNtYyNO1OGqlS2jpZ+33Dpd+8C59o08tTvCcvla+zZGUsnu1WR1DSKvLuKAoEJHw7ulj/cP7gUjw8BinlkBZ6BQ8goXgUqLqbgzUjWBqSftCCZTvCVp9av4yHnh4eNjUleCkkJE3c7sFw8EzhCbjQl95Tl0ZLurYEpvIn0fqzQ9EnsdSvxgTHljj3BIZc0H7KAAe7OhLdTdnzYeasGmXfrVuWrJPELrfd+aycmJeE7TIUbuO1dN99qpRJsaAQKf4EaUYO8YgAU/Zq5vxMj8pX+sIAR5HoQe0iQNAKoQ16J3mgXQgbaQA1UEf1gTK2HjG+9W9NlgSiSsLCAljmvFivTPCyQ8GGRlLNpCPnH+xRwYYbQwsMskarA0sspIMoM/IFTLMoUkMQ5ENkRJlSlOiI4F8CR3O2+wZ60WKFkOY3qq9z95H3zDwrEPyW30QkZDDdB+DjBFb71ciGzgwyQ97PFqZyMFDR2mb3wuqjVgGG1lCT9FH9ti4R1v0EQM20p3oJe3Qr2QEHe1eUTHkkW7wnT6OwwT0q30d5Ap9SE/pX23TH8aGsyraSN+H8SxSVet/Dk6pXmSOy9hqF8JLFkpFpOeMVw2kgw0imtQ6z7wXkdXv2lw7w8hG3xlDMtaYqa930NV0kGsocteC3WSPkDEwTuS1ecHQDjuDfhvSJ+YUe0ef032Mb+MgEiNtTv8j3fWcFSG0BvRTRBzHBX0gOooQmRvaa77b5mGOeHddR/9mZ9CZ2sVxYWw9a12IPlkLsTYC7BMOdjq5jvyZZ2wk79dm4+vQJvOKLlKPIJTjHiDB9tKH+p8zv92zy+am88xTZYummqPmN5Jjjde/uwbWHd2n3XFQmr4yx9nsxlX9rYt6vQIbxHy1XthAInue9ZesUcbQMf2rKhaNQBFoJqjFRIjEJW+TwbiQ3NtxCZSJQFiZBBQCj1OAALcIDSrjn1DBxIUkCXrlWzQmlyM1efsZrgQNgUXpBCGSk8tY5l0hGE1kk4hBboEK0Vt4FASDkyFbs37vZkyGYFBXgtukM8l5qAABJFj0IWPdIhAippT8nzAkfGshYNEy8vUBkqVtjHZCyvPq6DvCi0ciwBBG9Ex+HhbvsTj0l76xYOP3HAg4/UyoyKtWH4LCXwKUt0g75hqrGoSCyBuh6lnKUx8L3YsYuCxufUkR1AQKcSWgzCsLH6lUf4JQWcYl+jOwNARKqonytJdQQdb0KSVKKCEhvFAEUV0//cq7x0gxjoSxvtMOY0B4EuZSRWoygoAyUpRLsXivfvEs5WQ+6g9ku36O4WXOUm4EujllflKqxtJ7a5IgtcD4Uva1t5pCtg4Ya4Q9g0Q5FEAc968+9RwCTgkpCXK0tUs/q4P36muKXdnmYihSQt6akY9OuStbX2nbUFRsCIwjY25NMJgodGOjzdYZg9H4US51O8khzhYKUPvmiuolEisK1jQ5RZYFiaJ/GLycgeQzI8n6qtczDzu5STZzQtSyjW5g7JE7ZIc1Ru9YJwwva9s7OKRCP3uGJ5lhS16SKwxJRiCDnqPHPQH/FinhOLEWrXH6zXvJee3i0CCXvbcmQdpBdvFo07O1XANOF8TD+9kQddv8W13oX3aCd9OtdIfPeMIjSgacKN5F/rqXTNdvDGBEKE5qCxLj3fpev5HJ9BFC4h36RDvJyDBoEU/GIznIWVm3RT8gvWQ5I1oZxoKDl3NT/w854hj05gF7qNYxwJkbhjW53YI9xomkTuFc8l46y9jSvy1hHQKnFn3neTIdqTQX9IW+MR/pMpHNdvyMkXarH32oLfpOPdgz9AQdUTv4OI+Vq19Gbd8YBfPJuNOX+jb6mE6QMYMI1XVUPwSBHmAzmRfqx6bxfrZGG03xvM/pMTrWPKnBNlMe/aPf2ZhsNs5o4+xAFPqv1aOjYF5Euh0bsu4rYI+yNdnedLe+078uY8O+bSNQYL6aV+SGerIb2XDqidzRqZzU9RoCfcgWZj9YE+aFfiZHzEf93DoCVmUsGoEikMMDU188JIzj8NSMg3EJFMGEPHgHxRB53GAhmXSMPmWY+JQEg8mEVL4JhrQQJDxOjDeCAIM3Ed2HTXvG4lSGcglfBrzJQlARogSNewk9C5GyiMlHyZiYFpX3IlgEh3cThBaJ9xNqJjQCJ4XORFSGSUvQMwZNWEIslKg+4Lkk5EXNCA+pCZ7xPCJJETIYKcB6AVp8xsWljeqBwBHK2hECTFm8iMgCkhltVn911lcEz7hhaYoPWdAXhJDx8X7CRz9R+Ixf5bYEyuImLBgVnlN3BI9XVNROmYzp2lOzNARKtEQdlMebGeNlnHkpYw4hzbWBzqunHoQLQ52gRLzNMfdFtFD7zbWAPjFXlUnJIRPWlOe0UwQIieI5rIUvBUXBMboIdmPlGQISyZCOUI85wsNgoVTq90s/1T9IGK+wMVZvBo/28uwZDx652oCzBpSHRClTOZSOuWRszE8GlHlrjmiX8TCvlS3Ng6GibZQY42M+WE8IvGci0uWdxoZCZIRSgvqSAVG3kwwwf9SHQZMEKjFJCFlPbnPEcP6BdSeKw/itCQw5x/li3QxFcK0/ERDrkmxFbMIoJN+HnlO+78haEWm6iAwYtVasKTIp3iFyUBvn2sBBSdfVstf6p7fpJjKiBZ3IKerZmnjVQCDpO++N9ql7SziAsatNHIMiHSG3ySL9QC5F/bxbv9J3ZL8+0BdxeRfZFfcbB4aq1PxaPtbQz2wUNgR9qr/UoTWKA8r3frK8JSfqpyx1qx2qNdxDr9CV6qve2k2f1PpxLugDhjmHnj7ynLlgfupHOsZ75gL9rF88E/1nHNS7HSdjp1/UsY7ijQvP6FNleI++NofmqiM9pX7a4xl9jnCPGhe60ZykV6yvFuwuTgjtlULHJnCfvlMX9RvXUaivOW8RGrqtnQcBa5rciDYYb4fLsFlqeVHDmopnyBpyQj2NCVuW7TAE69132hbzSn/7rE7hXB2waASKIYddM1rqi2HPA7EQQ2VcAmWCiygxpBiyBE4gCBTPWFsGg1j58oRbmNiMXAbWULQHsaDI/B0SlCYU70z9excmpUmGpTPs2ggJEBxxytGQRwmQMiQJ0w8lqGzpW4x9xMuCa8GLp70I7lyCJOpIWIpOxWL1TK0QW6i38hmm44CBLvVC3m6kWdSweAkN4ypCVgtZ9Rg1lyiTIM2UYWBpCJQ6yvlWD4KohXFGWnhWzbUQpOFBQwbq+RggdHlJzQNCJ/qYokOOkG/e5nacKDL1906e5gCh5128tO2G0CEEgUKIwjjTp+YW4oz0DY018sxRQZBTIAHtNfb6gUBtwSAUKTKvkcDWowXGxwZZ5YtUzYfI4TaH7CloFa13iBbqS86KMJSgJlALlUuJxJUBRol0GQ4Icmk++bWygOwnt0RtEJ/EZIG9gziKzrEd5rLFEssHtpbQc6J+q1NkZ2XBohEobJaRxYPNoHIxmqQj8RCNYvNDGJdAUSQiUAxtBnJtjM9FoKRVKZ93uvWARLqaCEK9cRV41aUneNb7GHtCpAwy4X+XspEcRi0vBagnjxNBxEs/tBCQBuFeZTM4Re2Ur2x/GdUiDb6ncGpyxqtPuapLnU8c4K03FozUUR6CiGQgYto/ykPCuPZu3hD9jVzImVUvpHI+EMrSHd3PiK+N8RrIK0O/JVABhjDvCu8OTxyyIu3OnJEWhnAEloZAIRrC4NI+hryfCK9IGbLMqFEfZAgR0TZeO6kkImgxhuaHz5SLZFkv4R1CoMxHBLY96QjMPeRFGkR9UhQSzzuN7EkPQf71xygv6BCB0ocR9ZPfHnM55rV5Fb83on/rvGjRUPOdgK8jPQHz2lqQIsCzN+RBM4d51pVvfQyNdw0pQ9JVkUn/HkJsTufhjrUCSaASkwjREZ5g60XEgVfcmuexlhFBZlgbHCYrMzg3OP+0S7YDp4mDCcjyxGSBrcA5y7Ygn83JxPIFZ6A1Qh5wYtOdHJvsiIXY0IkVg0UjUIAY8Ejz+jJeRHp42ecziFqMS6AYQ4iGFAAGYK1clgeBUr62eVbeqPKRIml39eUzEahRBIpibMG4FK1TNoFlP0lbbpRdG6uMT14KBqGc9qGyEQteDARpiEAhRdLeYq/UEKlxD6OUx9+4IiQiXiI06qveIl3zgXCgOBnx9jCNIlBykIcIlMgMg1+b1JnBjzhom6gOomh8pb8FloZASYvULvu8hpQ7w5vidw8lo17GwhjoC31p/jLyh8ZQnb2jJlDGFYke8saal/LGzTtrrIZn7SEwHxEzBBKpltbYEqkhAoUEG0tpeOZ9W9+os7884YyfgHHwnPJaAoUsSRmRZofIjMr7phisYxumEbX5PG3SRhFXfSsVZAg+l2qbBCqxMoBs5TzhcCRzRFA5msJJIytg3BTpSYboOblNPyKFZDLimJg80Hv2edEX5mIa8MsfnAtS0skAOpmesi2DzZOYPCwqgQKRC5NAbjLP/dIsunEJFMOIMc+oZIDV0ZflQaD8W6qgZ6UQCW8zEL0rLmlMyBDjNQxBfRAESnQp0u9qeIagUraIgtzUulx5zMgoRavsSPGqCdTQiTEQBErqWEugkAV1RtgY73V6WAB5EsWSbqFfREGQVpeoBcNXvS36+eD9ojDaqg8XQqAY5PKKCRb1kKIl8qIOLpFI0RBzYrEIlP05Q+Nlnoi4MQLk7weBkgKnL0T7bOJlyNfjqK/NGfsE1KtO4QsCNbQPiPcPgUKQWgKlvuooj5miE6E0H5BbJ+MhDYFRBEp9ebqQYHNNWe3c03fy/GPuQU2g6lQ5qAmUuTcqp9r6sOaRX+Rv1H6HgM24UgbnIlCcF0mgEisLGEhknsiqDeo2ZtN/1rBT0Kyjeh2vrKCjyFWHOdDNdGgtTxKTA9sXbBeILIvE8oc+Z0PQT9YIW4nDcj6bJXHlYNEJ1GJgXAJl0zxhjEARxPUkY/gtNoFi7DPEEYZR+5SGMA6BEq4lqNRLu8aFCMZ8BAoZGEWgLE6nrHmvVJGhPSr6Vl+6h0D1mzuxQdJeIP3kO96q+aC+0sLcry/iaPgWdQpf7HHR/6I+SJJUUYcFRD0Y/MaEYS1fGyEJLC2BQo4Is6GICDIg+mWOMui1C2FgnGvbqEjeKCwLgaohAok8IJH6CeGvicsQgZLu6FAL6wjpWwiCQImstgQKRNMYhfoeCRvqe+vDvNJvopLzOV30D8PSemJYDoFDQtpgEqjEygDz0jzlzKC7RGU4LsLRsqoYUPQNmU0W0K0RgU9MHhBbuoE+GbJZEosPAYhYI/Y0j7KPEpOBiSZQPHH2mgzBnhcGp/scGtDetzwIlMkdZMERj+2zAQYgIhLfj0OgpDepD2PU0dyjFIuyGH3xvb9LS6DUwx4feegM/lF9LW1Pm0U2hqIIcUiFNLJxIJrlfkZ1vVcp4Peh7CESVapzf+3tkUKJ2CBxEb0JMKxFJaSBLSuBikMk7DsaIjT2ISHvonL171VE2xC8oQMyAuZH7XldLAIVQMj1IVJepwQOESipGiJt0g4dZVpHcmuIsCFo/gbmI1DmlLQ/6alOXBwiR1JjzS39bQ/XfJAqaA2LhLYnS4J5jWj7fugY8yRQiUQikUgklgUTSaBEFhihjD+GIONRWo/NtYzot7zlLcXYZJT5K92tNuogCNTQb9cgVcp3IMQQgXKOPwLFSGufZbiLcjD21BMBQFrUkUHKcyiNyol2YSC3BGrUnhqHCjD6GL4Ox5CGxmDVdt5J7UZmpC1FOkedwocMjSJQ0u3sE4o9MZ5zGqB9LdJF4sddvU8Z/gbZYnTra6fmiTgZB9878Q/ZREz0p3DzODCmfhfCM6JW+lAbtde77A/yHbIgAhUGMkNbpAQZNEYMaeOF5Kq/cZWGxpgfIlD6dVQUpIbvpb4hFOqBkBlPaanGTv+LgPjO/Kp/C0KfRERPSg4ypL8cYetZbTdvjG/9XE2gYu9cjSBQbZRI2bzWDp5QnmiZNABphcYWManzp4NA6aPYsyTCp33Wi3ltHmmHMXGZ17zhxtpvQNQHjASBMq+HCJSx015jZo76HSoHlmgP75oIEmeEea8v69TLUTAvpeyak/aGiAAqy/iIPNljh2QbA306ikBpTxKoRCKRSCQSC8VER6CkIMn/ZkRL++Il9/s7jEz5oVKoGMRDQGQYSQy7NgLFeFQ+o3qIQDHOGM/ua59FQESIpG4x+tzD4BQpEYlxagrDlWEZhrookbQ8Rh1jfFQ4nAEo9cp9ET1DxrSdUSiqIYrE6AxSgQj5UVLEwebcIQLFaLW/RN3i9x8YkiIC+oFxK/KgDQ5B0B7pfNLivMeeq/jhNAa5SJN6IZh+28r+KeX4YcJxwGB3EIBokXRIkTdtRDjsW3Gct/61p8kJcJHCp+6IE2Ktj6T5mRsMcKTFwSXqYY7UhjgCYI8PAjsugfL7RsbXexBmfY8g+vE/5A8hZZwbi5q8i4ohG9LHkBFksN4Urm0Iq/1TyEkAiZRup91DBAoB09fmZZ2P7v2iojafWx/IgegLUmuN6L/6Nz8iQmY8a2Jh3qifPtLuGBOXeaIdSCMyHuQdHKChPGtxiECBqKU5oy/tWzNvnFboM3NSf6i/+TYuzElrCaHUVnNPPfWhw0SsbfOa06AlUNaJ9cIZkQQqkUgkEonEQjGRBEqKEiOZkYMEMbAYX4xLRhxjX4SAYRREogVjjCGFgCEmNRhbjHMGeEugECReegTG0Z1DOaiMWSelSHsT1ZDKpb4Ma2VLQROhCagjQude7xyVIgXqKnrAIHUqk3Zrv70cyI28WAZxpK8hZwiS+rYHaQSkmyF1yF5ExcITz4uPDMR7/NUehjQPPSM/SBSCyFg1JsZCefqKUc0Qtl9oXKiHAysYzoxg7xZh0QbRGAQDwRJdCwIFyCdyijCpp+eQLsTKXi0RCSS0PhFOGhlCoHwRoDb1rwUC5R36Qj3MR0e1a7N3IowiZ6I+Q/PPnJLWh2zZ/4PIqKe+E2UxXiKbNfFC+JArUb6hY8yNK/LsB5zrgz48hxBwKqibOksrRO5Equp5CI4dR5CsoXZuewdia46qa8wH5AmB9179X/cfMqc862xUvrb+9B2yheAo16VfHAjiiH7pjqPW8hDMe8+Yc+Y+cq/dxl6UFFHWX8a9rpd5j8x6xhjX5DKRSCQSiURiHEwkgZLqJPWJd51RjHzEplrpSlKyai/4EKQySe3j/W5JkhQiRISh3kYjGLU2/9s34tlR72HsSavzG1dRP6ldDPfYnxRgcDJk1ccGwfb7FlKUGMZO3IuyPStdqzX+/Z+BqL/0y1DZ0R5RjjDatVv99YN9QXU/u6RAir7V7fce9bDB0f0MWHt5XFIr22jdfECMjIFDIKKNcWCDfvR/72zHSP94d2y21u/6V9sQPe2s08z8W0qa31iRpjgfvA8xRB7sK9N/+sr7tF2EqDbKRyF+y8G8VU/9rG5Dv9HkM/v63D90kIf55gQ8xKwmRcZHX+kDdfMezgPvGSIH2mJejZrbPuOY0EZlucwtUbx2HcF85dXQLvVSP+XqT+PFIbG00Mfqqu3mkXRF88DcMieNe12vmPfWg/VUk9hEIpFIJBKJcTCRBCqRuDLByBZVE9GRFtZGcRKJRCKRSCQSqy+SQCUSDWoCJW2xPuwhkUgkEolEIrF6IwlUItEAgbJPyR48e52SQCUSiUQikUgkAkmgEokGCJTDERy84bS4Zdmjk0gkEolEIpFYtZAEKpFo4GAOBww4xMLhCQs5HS6RSCQSiUQisWojCVQikUgkEolEIpFIjIkkUIlEIpFIJFYM/LD1298+dV10kR9WnP5iAvCd73TdO985dV18sR8snP5i1YWMCz9dcc4555SfWal/dzGx9Lj88svLbxL6qZj6R/OXFlGen/epy/PTNR/72MfKd5dddtn0p4kVgYkkUPac+H0gizoXc+LKhN9S8rtB5mL+6GoikVhp4DfOfvObrvv2t7teoV7x+ta3/OCeH02cundF4aUv7S2P3vRw7bBD133+81Of+w3Dur6//OXUZysSxx/fdWus0XVXu1rX7b+/Hz+c+lw9/JxF9J26rWS2CVvK7xf6EXc/mh6/KRmnzvqB/Kc+9akzv8WYWDb4DUI/GO/H9P1+47LC70Te5CY36e50pzuV3zEM+A1JPxq/3nrrdW9+85unP02sCEwkgXrta1/b3fSmN+3uc5/7dD/96U+nP118ECCEih9ane/HbROrH8yPz/fK/d73vneZi37INpROIpFITDT8IPcJJ3Td5pt3vULteuur6254wyXXrW7V9cKt6445pusuvJC3aPrB5YzTTltCoLbaquutwanPnXZ63HFdd5vbTNX3yCOniMqKxMEHL6nbAx/YdT/5ydTniN0pp3TdzW42VbcjjpiKpK1E8EP7j3zkI7vb3/723bve9a6ZH0ZHoPxw/HWve91y6qz9v+PA3mC2U+4RHoYfib/+9a/fT+fblCjUssIPw6+//vrdrW996xKFCnDsbrfddt1aa63VveIVr5j+NLEiMJEE6tnPfnYvv65SJgtvyfKC46lPOumk7r73ve+iTPDEqgVkybxA5m/WK84LeyMjCVQikVgpcPnlswnBqGu99bpum226jvf6b3+bfng54vTTl7z7rnftuk9/eupzkadddlny3U47dd2ll059t6Jw0EFT77761btuzz27Lhy46nbAAUvqdq97dd0iRBVWJNhS9+rrvcYaaxTChPwAAsVp7XcPDz/88LEJFGP9gT3JfN3rXtf961//mv40EUB4RIw233zzRbEvv/rVrxZbZNNNN70Cgdphhx26tddeu3vlK185/WliRaCXBJMHpAaB2mCDDbrvfe97058uPr7zne+U6IJ3EQKJRAvK5K1vfWu58vegEonESgME6pBDuu7a154y+jfbrOue//yue+ELu+7UU6cIwY1vvIQU7LZb133uc9MPL0ecccaSdyJuQaC+//2pqE9dH8RlRSIIJwL14AcvIVA/+EHXPeIRS+qG6F1yydR3Kwn+/Oc/dx/84AcLWWL7RNZNTaD8cPy4BOphD3tY3xVX6Y444ohMbx9AEKjb3va2ZY/SsiII1Gb9Oq4JWRCoddZZpxDjxIpDLwkmD8997nPLwuT1X54E6te//nX3gAc8oIQ+bcBLJBKJRGKVAAJ16KFLCNTuu09/MQ3ZHUcdNbXnx/cbbTQVhVreQOC8z1UTqL/8pesV8VRK4ZOe1HVve1vX/elPU9+tKIwiUCJz558/lboXdbMnahXA0hKoww47rO+qqxSHd+KKiD1LSaBWXfSSYvKwEAJlA923v/3t7pvf/Gb3VznfDf7zn/+UjZM8LvG9fU8/+tGPSh7w3e52t27NNdcsaYP2uFxyySWdAyyGQtJOPnFKjftsEHS4wNA7wb3e4eQUdbCXS06setrAWYMniNC69NJLy/td2sRjNARpZNr9/e9/v/vWt75V3rXQ1DIbRaMt3qcsZQ5B/UVfvva1r41VPznRxs2JMOqlvx3CoP36zW8rjXpXwDP6jBfH+wgj4zgqVSDq6D5t8pyc7380pyi15cbl/9pnTP9CkU9DW5Sj/m1ZAQLMWCsj3q2NkSLRQhvcr0yI/oln1S/y00dBXZShPz1HuJpD+iGRSKwCQICQnF4u9QJ1ikz0xu7YaAnUrrsSNtNfTsPep7XWmvr+5jfvuje8YfqLCuQ8IuHQCXVxOa3u178mzKZvGgDdSMa5v9c1ZT8RGVqn8NUEKg5q0GbvGnWYgXb1sq+Uqexep3Y//3nXC9zpGyq413vdE/XQl0hC2xfQEijPArnq5DMRMXX77W8p4iUHX0T5Q1evC0o/ub8e06HLd/RPrc/93+lqdRvcpw1z9X8DRInTmG6mu8NmWAiBog9/8YtfFD0rfe+qV71q94hHPKIcakAPsW/YPC28jw0W+paNNepkOvrUvb/Rr9P/Z294jp7Thtre+VtPbuN7Ns2ocgNsD7qTPaLO7C5tmk/njgJdzG5Qnjr4N5tOGxGeuQgUW0NqZd0vow7xWFoCZXx/289XfRp1HDVOiYWhlxSTh4UQKKebyDFtN9YFTFB5vXe5y126Cy64oBiYFqawM+/ANa95zSIE7Le6xS1u0euQm3e77bZbMYADDN7Pfe5z3TOf+cxu6623Lvfd8pa37HbaaafuRS960aDAkRK45557dmeccUYRLgceeGC34YYblpTB97znPTMCQP3U69GPfnTZ3On97kPsTjvttF5efm0m1B7QBmXuuOOOJR/Wu8Y9BMOzBMbTnva07g53uMNMm9VLTnObpoYg6tfHPvax5f6on02Lz3ve80pZ7SZSi1V52myxnnvuud1ee+3V3epWtypjqn/f+MY3ltMWh6BP3vve93b77LNP2YDpndq53377lbJaIhN1JPwJK23aeOONuwc96EHdmWeeOYvoEb7HH398d7vb3a6UW19SRnfeeefuvPPOm76bXv55t/feew8eIuHfyNXrX//6bo899ijvVM5GG21U3u1EnN/1BkH9DBD2++67b3kXAvyBD3yg19UPLs+qu6jou9/97tIPQ1DmWWedVfrUvPec/nnUox7VXXTRRYWQJRKJlRj0z8knd92d7zx1+MO223a9wJ0iLuOCgdQSqNbB8o53dN2aa0593+u0XmBOf9HDvYx1aX/3v/9UhKrXk90NbtB1W2whBNF155xzxX1TSB4D/yUv6XolNXVghWekvfVyv3vc46be56oJFEL2rGd1vXCeOuBCql8NcpQ9oF96/VL6RX3Uu9cNvWJlTU7di1j0uqcTHbnf/abuca9n7LvqZWWJKLWka1QECmFC/Hp5W+qmXHoIqXW4hIMvlO/SXu+Jq9cfhXSRy45H73XnzL36RRpl3Os7+odO1f/a6729PukV79QzN7pR1yvjqfRMbR7zGHh687jjjiunuLWHSIxLoOjs0/v63PGOdyx7bthp17nOdYpNQA/ZT17rT2VzDr7gBS8oOtQ9Ls8fe+yxhTC0+pHN4OS6o48+upAGuo6uDP3IFvE5m4f+dYKgvV3qgFyw09iN3l2D7eNzdg7dyYZTHt0pHVF640JJFGc4W4a9w7ZRx/v3awVhciE8bI2WQIXt8OIXv7i0LewwNqB2s6vaflkaAoVcfvzjHy9lslfDXjAHTjjhhEH7LTE+ekkxeVgIgfrQhz5U7nW9k3BqgGU/5CEPKSfMMGgtEAa3RclQdXSnZ5ERRMspNd4fXgDk6W1ve1tZ8CYfQ/nII48sZTKUGd1Pf/rTS9SgBiGDcGy11VbdPe5xj0I4PGPxezfwhAh/WxAWBqP7kF4o7r///uVZpM7COL8X9DVBIgi02zPqfuqpp45FoLSFsU6QOR1m++23L20+6KCDihAhQJGiAAP+5F5ZRf30V9RPf6ifthGY9SJEwpAJAg1ZIkAImIc//OHl/mv3Cl37CB4LvAbvESGur5WBRB3aGwH6zpGghI2T8QLq+Pxewas/8oSYIMe77757r49u0m2yySZFSMV4uh+B9Y6De2X5mMc8pnjQHAOqL9X57X6fZBqI9La98eJz41ALZaT6oQ99aBF+W/QGBaIlreF+vcL2metxvbFASNUgCLUDeVdf5VMA5oZ+QugRx5gnNXjYvMP36mzstME8MZcRfIqgVR6JRGIlAZnY66BiUPcyaebyfwRjTGfZFQhUb9zOAHH45CeXHJrg6vVB9+EPT31Pfvi+l7vFYI976qs3nMspetLZajkuWoIk9TLzCs/4LPZd9XJuFoFCDu17int73TQLX/hC1yuR2fu24nLs+F3uMrWPCi64oOsF5BThaO919cZ/eTcCUmMUgVK33sieeR4BQ1z0cU8EZj4fuhC2L395ikC96U1TBGvoPhdCxY5BnpxO2OuXkf2vDVtuORU1HJHtUIO9QZde61rX6rntS4rhDQshUMpgezDI6Wc6k94NPXTiiSeWrIgA4sCuYSvt0hNoTj56l55ad911SxSLk7gGpzhStmXfNnYZ28lz7Ad2gfqzQbQBWaF72WU+Q4rYCd5BV9bgrFRP37N96P0nPOEJ/TTYppTpsyEH7SiwI2Uu0fPKVAdl3vOe9yw2Fh3P1kEGWwLF0YnE6Rf3eY7tedd+rugXNoRslBpLQ6CMK1shbFf2m37Ut2xApAphTSwd+lU4eVgIgRK9ca+L174FD4FFY+KJRkirwuwZ0h/ulQUj9Oq9sGRki0xJO+PhR1KAsDCpEaVnPOMZxRhGyqS8MXAtFsY1D0s8A7wcjHoLU/QLeROq1R7hY1EChrxnnd8vKhJpakLAjGDeHO1COmphoP7uc7CBBaNO4xjM7guiwNj/xCc+UdqMJKiLxcWbA9qiPwkkC5q3yIKO+iFNhJeyCB51D4hA8XBIjSRkHY2qr73n4osvLoLOc6JsQskBBO/9739/IT6EEhIq7CwK5D7RPl6Tz372s9NP0B1vKMKBUHnpS19a+tf46C/3I2oilDxuoO8oAUqCByhSE3mgrnGNa5S6RWodIMaEjLFEoMIrhOgdc8wx5Zn/396dwOtajvsDR2QWUpnK2CASCk1KSTI1KRoJJdI8ICo0mhINVISiooFDHQ3GDJXpmIeOokQ4OIZznOMczv/5v997rWvte937edd692rtevfu+n0+z2ft/T7DPT73ff2u6dFWViiWJc+10CnbnEGSzJvanU/d9L8+UPf99tuv9I97tS3OIVfaHlBvZN1GhyAiw9pgDFnHbGrmknnTLr6JRGIJweCdLsRlsAYsdCAYo2rJWwI1WFNL/M6BB078zjpEYHduIAR3p58+YWkBwj7BHGlbbrlusBhNkDfxSwcdNJEaPeo0WDMHC+/EfYM1qpCEwd5dzg32v2K9YsVStjrEfS2BshfIvBfnpTEP8CJQ72gLUoFMqY9vNw3W52JJQ7Ig4qxYnl74wglC6re99pqwIEUZA6F1WizTMAJl/9XOuI/1DdHQT9Za+6bnn3JKN2Ah3WDTnLhOG/fcc8L9zx5tb/nwhyeuZaEbEI5u1VUXPNeYRF8aD4QT4RoIv8Xy5j79YLzinl12mbD4zQKCNoK04qDv7JX2E1gUAuVaz+HJQXlI2UfxR7bhBmcvCgJi73KN55It7G2e7XcZbSlFlxvMLfJB7fnCzYxyVmw6iwwls/3fXnfhhRcWwoaY2PMpH5E2+x+5hDxEXiF3aVPAvo3YsU751hX5yvO0gxyEsNhzyYpknNmgHzyDnGLP5S2EoJEXyKT2dLKPjIfkx5pAaevOO+9cFJ6I3pcG81/fORArMoh+4ZVU7/9zIVDkEp47fqd4Jt+Swz48mINko2WWWaacG9WDKTEdg7dv/DBXAoUEtKgJFBJTC7ImEhLgRe2zXrFWsWYgAhaWPpczRMnLzAWrjm2STtKLhSCZrC3B8bLQvqg3i0JriYEvfvGL5QV1zemDxXQUkjQMXhCufhY8hM4i1YKrW1hqLIQ0Fsq2+PW5k1kQaVBcc/LJJ0/VDwH1cupXC0kbJ2bxtAhwAaDxCVgsLCgILTLQpwnyrPBxVl911P8WsHYRsLAgHJ538MEHDzVVqw8tFqsawlwjCJT6mmsBi6eF3CKIyAaxCqgL7ZRFDWlFBAMIFK2ccwcONsPWZ5tli+UM8avdIRBgmjuki1m+BWLOkpXfg0gklmCI7xlGoLjhzZVA9R0sN0iM5BGTAnWBtZJm2jebBkLYNJIBg3V16hnrr78gex/r02C/mIqr4noY33myx7Gq+y3urQkUNzftQzqcQxTA2uoalhy/D9bNQnxCNrDvsIL5hlQQnoFQXIjVRRctIIWgT5Cf6BNuhbWHwDAChdzVFigWNm3tAyFWanjXITrcHIdBDBorkmvdo78DFIUIkz6ry7LP6X9j5z5t0N5ZUBMo+/VcCFQNAj554sgBsa6Vx2CvlZgr3OL75DhKQwpacl79oVmyCesIKxTFdLtvHzQg8GQOe+95XFArkNEoHhEXCs641/5MthkWNqAu+oW1ZhSLjL5jMVIPMksb74yYcZe0x5MrgkDpJ3s6uZDyHelqgdCpB6tWvc/PhUCRM8ljfTAH9CHZaFi/JGbG4O0bP9xaBIrWhLaewEkIboGtexlNTC8LAsK9y3O49XFBY7ZmhbBIsEoFECj3sR71TU7aADFBFq12EQhYyDyfNgUR8KLMFawyrEhIHcG+Jnt9sIgR1GmC+lzJwCLBRU39vISxILNA0RxZkPraRvNj0fHyfvCDH5wiH6wmiIPn6d+Z4B6EQv8qx6JqXIyjv8q1mLDmWOS5AKhXC8SGm6B2vnOwWbVEdhiBsjiac8iRfuiDPuQeYDFEFKOdCBTXRr/3faGchorZnybNHAP3GgdzBnFj4ULMHdpr7ttsEEH1ommL8hKJxBIEyqrDD+8GUuSEgByH/8tQN0QRtBBaAoV4iF0SYzRYe0v2PW54SIO9a9h64TmIBCsHIuE45JAF9UJsYh3jjiWOx+8E/IFAXqw0NXzcN+4dhUAhDIgEa5LfkRLxS43CbCEgVpRTyAcFlnojGoM9tbTbs5CPyuVskQhUn6Xik5/sBhLzxDVc7Ixjz75T4Jnis5Q1kCGKpaxStBUYE3s1S4QEFu5BVvVNxK5ttlk3kLQnbxiO+SZQ9lR7K++ZlkCQecgZ4SZGdrJX2cMcLElkGvIIsiPmOcBLRV24mYn1bsFbiOUEMWkTLmiT8/bzYYpp0BfutXdTFlOIklnIbH3KyRbkAspMdSc39IGCGQmqY6AogIVJaDfSQzHe9ou92xjZx+twgrkQqADipm/IQOQLByWrcsi2ZLLEomPw9o0fbi0CRXgOAmUSt6CJYKHykpjwnqFO9V8vOksKS4gJHggCJaaFa1oL9RbM5/wwdytWH25ssRgM0ySMAtYdZMwL7UWdTbi2iNAOeTH7rFVgMbB4IEJ8q4OgBIFSVp9lj1YE8fLyIghRF5oXpIFLXO2m1wcLApc61jQWQnUwJu346DsWKv3XLhLGxeJv/C3yCHWLYQSKz7I5p0/bzSOgzxEl7bRBhZYuCBSyyNrUwpwNX+ggUO61IZlv3AJp9ur20mj5jenfeW4NwyxuiURijGE9JEiLreGahvggPf7PWjLL2j2FlkD5+CtB3DrIpc4z/T5YIwshCrIQUM5AmC0kANGQRIKVxPXIgXuRHSQoCJS4qTjn2oGgvhAInM47RiFQPBH23nuiH/w+2JMGm8/EuWEgOEsqxd1Q7Be3PfVBQvVHlKG8ev+9JQRK/V0Tz2ZFrGSCaRgI7cUlcrBWl2tZ8ZCvSS+OAu3Wn67zUd+BvDDVBn0c5Qz2p2LJmgWLi0BRJrbeItzgxNrYe1mS6r0q9ivyARnJHl3LbkGgyBDc21pQkrqHnNB6b2ijtng218KWQJFZKK/FT2kr2ZAyd4vBPLBvkuXIIbOBOyBlpT0aOewDBW+bxpxsRFbSbsdM/WIvrxX7cyFQxhZJpMClYCWvcBHkQkh2CtmIN1Zi0TF4+8YP80mguHnNlUARbgnPFgBWCskaLDxIg4MVwP/FDalHTXCCQHGp6hOwuYpxz0PQZKLpg5edNsViwlw+zNIxCljTuOJ5oYdZvGp4QVk79A+Bvw8WJ+0PLUb4MQeB8nufJQmxCAJVW6CQNn0tNmoYaQsgFOKlohyLkgXCwtiOjwWVJqt1Q6T1Qjosxv7d5wc8jECZU+YcF89hBEp/8K1G7syHlkCxQPVp2IJA0d7pH3AvC6IFT124TZgbjmivfytHe0eNi0skEmMIa6L1njsRgc56SOieXENGQkugWDsC9qpXv3rid8dgr+0uvHDy5ADcBP0fcUKY4rr2IMTXBIogH4K9eKfBnrsQBuvy1P2jEKiBgFjcAoNssLjM1A+IgfghrnHit6KsvmO+CJQ94IgjFsQ+aTvrwTAlFsFYn7vW+IiFaq0lrtE/+j/6pO8YQwJl3yQzcZ8nA5Gd7E/25NivxGER+MWmk08CtQWqj8yQX7SBBYr1qEZNoFoLFMWt7MOe6/k8h9TfETIkma1vT26hjp5DdhBn1AeEpyVQZDjx1pS+vFeOP/74hfqFDKNfKE9rYjMXAiVOWjZo8VjqajyirQ6WPGEWaYGaGwZv3/hhUQiU9NUxKT7e42ssjolwTVDuI1AEWQSqT9BHbJxXD+fjXsJsfQRqq05NoPpiebwALFCsELVgXoN2xQvvObWL3FwQVh/CvBd0mNAfEMyI4HHjY97uA7dAFhykx0sY9RuFQFncWgJF2yRbosVtWJkB96ijRdRCJo7JWPh9lPGhIWM1nM09chiBQmjNOQS4TpNew9yVRUgfImhR/mwESr+2BMq9sg2aC0iZhdhvNr+6rUmaEolEQUugkKHaGwJBYuFyzuGjuiGQulcGuDg3EMAGizb/KZvb9HM1gZIhlaXE78hL30dWjzpq+r2zEShkjvWN26HfpXav45ZaUEjWMWTrrDNBFtVdjJGkFtEn80WgLrus657whIlzgzW6O/TQCQLcB654nh3PUte2Pe6tk1awFiKRAwG7HNttN1FH524jAsULA/mgzGvliQg/QFIkbeDtoZx2v6r35MBsBIpM4fwwAsUtriVQvDFkFOZJRMZQdwmpxE47KELFc5NlyBWzgbeK8rWPrNcH+zy5syZQ3AZlPiZz+ks27OsX/2+xqAQKKQ1FLznTeCCy5AieTSyErFx+TwI1NwzevvFDECjmzNkGlqsXVzMvcp+wzlwrTgZZ4brWEijCqMmMXLVAYMRAEbJp/4d9X4flohXAZyNQMr95EbSzTh1ewzViaFxjwbslYM2SzYbGAXGoM80FvLjhbiijHN9dZXMd64MASNYi19CcBOZKoGTaYVb2PC96H/R19KesO8r3nJmSJmhT7UapL/gZIyi0ZDNtGMMIlEXX+CJBtetmDRkCLfTapD8DcyFQgISxCnIdqFO5tzDHZyPIiURiKcdsBAo5QIqccyAakUSHAD9Y88rvYm0QizqWl8Uk7qsJFNdDLnPiq5zz73qvsd75rb53NgJFmPR9qsF6WX4frKnF2lO7bynDs3kZEFY33HDiWrFFXOBC+UjZJRtguBneEgJ1000T5xAp36HSz9zrZAdsBPspqJ/6aIO6DWSTYmVswXWSW5+yBkL9gNkseCarlj35NiZQoUSURa8V+Hl7ENSRFfIGBe4wqEftbr44CJQyZOyL+rb7I2W5xFf2dMrY2SDGC2nxPASxBS8S1iXt99wgUGQXFieuf2SAmeRbda5lzkUlUPrOZ3TCANC69Iu3YiFDJpNAzQ2Dt2/8QNA3MbF3rkiEX5OkPuKDZzKPSdMoTskL7f/OIz+sUz7mylxKu8CftH5xMHRmaARKNjQueF58WgKCukWBIE8r4YVFwGj+vQQOLxFNBOG9tSIhUPxpWSD6CBSrhfoiNLKx0Hp4nmsJ+AiOF1M/eAksKjVcJ2mFF19b+zQ5LWR/0afqhbRxMdO3XlQvEGE9PkbsNwsQ6x6SYlFRP31rUVK/SKRgIauTIVjUECh91pecYxiB8nz10t9iwywSxkOZSIVUpSxT4fKoDyyGtEDKs0jpC2PsnPHkq2zBisw6FhGxU0g3gmLj0Aeuj7bVi1ZNoNwXUBfkGLmWwAIpMqbKNn/0o+9XWNRotzw7MCqBqmOgwHjbjCgL+DBbUJXpXTBe+tU80ueUA4lE4nYMBIrVIgjU5ptPJ1D/+MdEynECuvMEcvFO9lYufoM1aOp3MTiENkkiuMeFtcVREyj3DfaFwcI3cW6wxpfEF1wQuY4jcYM1szwTUVJGTaCcbwkUKLcmXoP1vliUKK9YDLQT4UB0XDvYP8p1yhnss8UN0u/HHjthTYvntAQK+Yn7tDkIlD1HuvC4D4H6zW8m4pRYILTT7xJdIEg+68Gq5BBbi7hxEUdQWdBcOxCuS73FOamba9Xfc/1b3VyHaEkjL7mB6ygr1113QV3mQKCGpTFnFRmVQFFCkrsQE3KQ59mP/CU/2duQB27nFNDc0Zyz39rX43MtPjFC6RoIAkVROBOB8uxFIVD2a/KKDL9kA3s1Wcu+qi32ckdfmS3suTxXyB6SSWhrtJ0MSqHM80R5FKhBoMg6QkPcI+ZKXVyvnvpFffxfiAdXxTpsIwiUT6r0EShyXW0NY1wgm5EzuPJ5NtlG29WXBYqslRaouWPw9o0fgkCZzMysrEPijBzIir8E4rCYEBhZmLyovjvg/FFHHVW+T+Tl9rI5L86pJlAmLcaOhWPp3OTCN5cgDtywItOca/zbYiNwkEmYBYuljEm0Bg2Plws5Ipy38CKJ8yGcE7ItFgiJl18duIYR8KWy5ppYx+fEvT7W5iVVn/r8MFik9KfFhSsfAqdvTznllBJYqJ8sCgHJLQRXRv0sgvqWv66P6qqfl1nsWa3d8NKrN3N5H4HiPqds97PSBIHyFzmy0FkMEBBaHGXqa30p9XudJQeRkULe2DOVc3nkk2x8fH+J9dECEvFx6oZ0Ia5IEfcD1yrDXODeWAeuWliQYD7E9Yd0tdc4MYHTMpkH6ogQSp+q/fpNO20UNVgWjTsSJ1V9CwRKgKz7awJlvvMX107nzG/WWsTeGGqX7H3IVf0xw0QicTsEAiXdd52trSZQQFAPshHXICUET1aOgcBWfkcouOSxsPgrHimIDkIQayZSRrgj4A/W2Gn3ig9i+REfJKmDc4hYKJEQKCTP747995/4HexvtOtcDqNcdfDMqI/nIiD2IuQr2r3ssgvqjrRELJVDe2sCtVv1YeGttppugRqsq1PnBkJnsSaJUdl66wW/O7RRsgd1c8hK6HMdSBQyWZfv3+oV16666gRBMnaDtX3q2rr/tQEJjWf4dtQImeMI2vYI+25LoOx/FHY+LDsqgeIRwUrkPopoe6e91J4MZC3yBvnKPklmUK49jQzBu4dymNxVW6h4V3imPbTPnY4c57yy+wiUfZzsYe8NAoU4SKxExrHvaidZktwWH/qlSCdHjOLCB7xKfAyXbIgQ2Ys90/et7MPaRs6wl9eER7+4ljyJwPimIyUv2UEfUvq7l+KVAjfgW5vqTxYJRTdoM1mgdSc0jlz4yFJIHLlaGfqbjEWZThmLaCaBmhsGb9/4AfmIuCYvu4GmNXGYQP6aaGGFYrkwAbFt1iYEgeubLCzMlARs98gIF/eAhYPmhNbFC+5F8CKZuKERcQ1rixcNy/cczzf5TUoBeoT8NoOb+pi4vr7dR6CAQMxyw9IUQnE83//Vn9COJNZwnxcIKdRHrGSjECgExUulvrQ3FiF9qzwWD4tgbb5WDm0JUoJA1fWzuFmgaEra+rFsIS2u60vsgUApy+LRuk5qhzpY6C106qhMZAcZsvDUL7vraWZokCxiAiWVy9UNAWOdtKjEAs3qKIjTwmGuxHxy+Lf7EaCAsixO2mNhDbIHFm8E0AKsH80hm4XyLVDc/OrU9gFWVaQM8e7Lwmc+2xzM/dYFkmsArZ2FUZ+ot7IRaaSMhpGlsU2YkUgkbmcYrBXlw7GEb4I2C05LoAZrTXHHC0F9sKYMFu0JImTtio/UOhfHYC/odt+96572tIn/c/2r17E//3kigQK3NkQi7mOdkRXvhBMWWFfcGxlXKZrq2CUxWTXUlULOvYO9aOo6BysYwhdprVmAxD0hVe11yJW6+D/yOOnRUDCQBaauVZeIc7ruugnSFOdYoOzrXAcl54jf+47BGj2Q+ifGQ/tjPIYdg/12ipxxD0Oq6vMDOadYyrTF/41DjydDC4I2a4N9iqI2lMlkHIK//fiAAw6YZg2aCZSR3PTIKpEJlzuY/S3gGnskhbA92TWRWMFv9m2EqZYhWE7UhTzXl42XEhFBIn+1ddXGaAsZg9UF7NvIiD0ZudEH9nuxQRSOlJ/c+e3Jo6QxB8+kyA5ZxjNZiCh6yRzISsiJrVWL7EDxSSFM5ox+IVdRxootJxvWCn9KUTKBvqufhwiT38ib+jpAflM/8i1ZkaJXGbx19DtZSp3NiVFJc2I6Bm/f+AEZoclAkpADk5trV30w85ogAYKliY+4IAgmJ+uRSe4FNZmZkMOCECCAu44g7+Vyv4nbkgKTlLDr5VQf9fIie3YfQeKmZTIjQLORGy8ToVf52mZRQvzqzDQ1tIm7lm8E6Cdlte2aCaxrNCK0QdEWVi4LTN2nAYsUoqReUT/EqNaO1LCIqZsx6LtGX1oAWIpa60zAfQivsVQmrRIzuBe9r47a5DyrkDa94x3vKHWwmNf9H2WHpU/bY07F4aN6AQuwvmnN6QF1YVEyF9RV2frVwh8avhbqKq0oTVqduTFg7mm7Zw5LL2rO+lChdiqTRg+x0m81yUskErdTUBZyreNyN1iTBpvRBDGq4f+IEku3ayhsamUgAvGpT/li/MT5006biDFyDyGOxvui5mO1QPAb7EuFSLnvlFMm3NdkakWECKntvawFFHh+d8+kJWMatEn8J0IiLth16s6SzxpR74PWTokylB11RzQo05TrN21DbAJc5f2uDtoZa7i/hPkoU7/qO3VmDYg69x36FNHiGs6VfLBn917nkNHNNSF/DPb5kt48yjWW+sgYqR+rHOtWY4npA68JHg8sQPaP2EftF+KP7cfkqlb2mQmUpdzDKJjtneSdIC0B1h9KTsrA2CPJURSSffsfeUhdWLj6yJy62xvtfzXBAG0Um+1++3ztjg+Uk/Z3cp768txATLjfkRXsuzPFa/WBDEO+JEuQ4fSBetn/uSeSH/pkB3IJ2YFsEf2iPuTYvnYLDTB2559/fumjgDaTF8mbfQpbMoF6hCxN1jVu2kxGMyfafkyMhrEkUIlEIpFIJBKJRCIxjkgClUgkEolEIpFIJBIjIglUIpFIJBKJRCKRSIyIJFCJRCKRSCQSiUQiMSKSQCUSiUQikUgkEonEiEgClUgkEolEIpFIJBIjYokjUFJuSlkudbdv9PSltF5USNspdbqjTknu2crwcVcpH+v00FJUqoP0nM4lEolEIpG4/cAnO8gHUmH/6Ec/SlkgkbgdYYkjUPL6+4aOrzv7AFj7zYG5QB7/Zz3rWd2WW2457SNwFkNfrFaWbx3U3xTwTSgfYfPhNN9wSowXkF0fTTY/HL6VkEgkEonEfOFb3/pW+Si9D6H6kLnvJY4b2r3Qv2tl8DjDvv2Xv/yl1Nu3ihble5eJxOLGEkmgPvKRj5QvUT/vec8rHxe7pfjhD3/YPe5xj+tWX3318lGxwB/+8IfydWpfmfYBs/pjY5dffnl3hzvcoRw+iJoYL/jgro/MbrTRRt3GG29cPjSXSCQSicR84corr+yWWWaZIgc8/OEPLx8mHTeQW3w03j7o8O8l5cOpPkL7nOc8p9tggw26Aw44YOjH+xOJ2wJLJIHyVeWHPexh3fbbb9/7xeZFBde99dZbr1t77bXL16sDXAVf8pKXdA960IPKl6brRcdXsO985zt3j3rUo7rP+TJ44lbDjTfe2B1xxBHFOujL31wpW1x11VXdJptsMkVy3/CGNxTNWyKRSCQS84Evf/nL3T3vec+yx6yxxhq3ujKVdeZ973tf2QuPPPLIYhFrvS3IMRSJsRf6t9+WBCBNUe/73e9+ZV9PJMYFSzyB+u1vfzt5Zu4IAsVVr7ZA1QTqQx/60BSB8vfoo4/u7na3u3UHH3xw9+tf/7r8nrh1wH3yLne5S1lUzYNzzjln8swCuIa2LRZfBEqsWyKRSCQS8wEE6l73ulfZYx7zmMcU75hbEzfddFO3+eabl/J5yiBT4rJqkGM23HDDqb3Qv5cUArX//vtP1fu+971v2dcTiXHBEkegJHa4rQhUCOC0IFtssUXxfa6vT9w6EKd2j3vcoyyqtH597nlc+E488cRus802KxsMV4BEIpFIJOYLBPrbkkD97ne/67bbbrtS/kMf+tDurLPOWii+icL33e9+d/fMZz6z7IX2xSXFhU+8+zbbbNM9/elP7w466KB04UuMFcaaQDFFCx78/e9/Xw4vvd8IzPyNZyJQiBbzdtwrIUSdBKLGqATK/Z57+OGHd4985CPLQqR+w+Ba2qA//elP5XDtMCuIa513nQx/f//73yfPTEDwpAyB8Zz2fKAtUx8Ma7fflRXXeq4+7gvU9Ny4NlzhYnzq32qoY/38meoS8Mz6Hm2O+kQfiD8LtwmJPM4444xyrbqE+4L6imG7/vrry6HsFjYa4+FcXcclKcg2kUgklnRYh2MNj7XXXhFrs9+H7Z1998Ze6X57QQ37iH0u9i6H62db86Mchz3Kc0YlUPbCqJNjpvYE2r1cmdGWaMP3v//9EiOkfAmt3vWudxWrlOvj+doVeyECUmcUrvfo2MOdq8udrW+cU1bdn7GPtnBtvb+3R9svrr3hhhtK3cl6w+SeVtbwHPVuxx6i71znmkA7vsPKCvTNI/+fqa8SSxfGlkCJbaJNoV1ZZ511CsF505veVBI+IFBij4YRKISJxeHlL395uc/9tC8nn3xySUveYhQCJTjUgiD+5vnPf373lKc8pfvpT386eeXCcO8nP/nJkinwqU99ajlk+uP6x0+5JRLieCTFWH/99bs99thjIVO1hU/cj/OsX1/5ylcmzyyAhBpis1760pdOlbntttuWdluEAhYV/XjKKad0O++889S1z372s4tL4qc//emFFvdrr72223XXXUv5iKPUrRJrqIt7xYhZUAIsQPpsxx13XKgu+q1vkVFHLgg77LBDuf5pT3tat++++3af+cxnCjHiKmkOrLnmmlOBu3e/+93LXHC9LEgRw2b+KEufa1drKdQ+vyHDW2+99bQ6iqv65je/OXllIpFIJBYX7AWnn3562Vus11/72te6X/3qV92pp57aPfe5zy3rMk+Co446qnfPtWfU+6L7X/WqV5X7JIEifAes+5deemn3mte8plhjXMPVm6vY5z//+V6h376GqChfOe7ZZZddyr5kj5+NQJFHzj333FIne5r7lf3mN7+5eFP07YXukfmXDON6h/2XXEOwZ3mSJIk7ntgg5S+77LLdIx7xiG7dddct19v/wPX6UpZh+/1FF100tVd//etfL/LGpptu2p1wwgmlr+yhUS65SHzVl770pV5CgTDYR8kmxsg9+ugFL3hBeR7Zqm4fYqK8aFOU4XCfOr73ve+dko8uvvji8ix7tPb0JQ0jN5A1dtttt6lnas/ee+9d5CF9VcP1+p5Vy7gbgx/84Afd61//+pKsQl1e9KIXFU8npKgP5gk5iVVMnaMd5Cf90bpRJpZOjCWBklb80EMPLe5ZyIuJKfAREbLwIE4WjZ122mmhF8rLsNdee3VrrbVWuY9QbdFiseL2R6D3zYYaoxAoZM7iS5NjYfPy9Gk3QP0PO+yw7klPelJZ2OpD9kAC/Xve856ymASuuOKKqWssgh/96Ecnz0xAnZHAuMb5emFCDJENfRTXxPGQhzykO/bYY8tLb8FTtmetuOKKC11rM7CInHTSSdMWD9mGxHy5BoFBNNQz7rMQWZTVCfmwSMpqGOfjWGWVVQpBat3u9LvNbrXVVlvoHhvc1VdfXb6zYZNsz9eHcQL9ZUGP323QgZtvvrkslhY9m059v4MrhLrYNPo21EQikUjMD1gBCOmx/tq/KQFXWGGFaevyAx/4wCKw2l8D9jP7XlyDcJER6vtiv6eEPP7448tef6kWTZQAAD+VSURBVNe73nXaNRJCISOE9zYxFTcyAny7X0o6ZW+KeNw+AkVZeuCBB5Ysv/W9DjIMpSlSxGITIOBr55Of/OSF7nnsYx/bnXfeeWUPI8u05+uD7AL6NxIqaSfZJDw1EDv7nXPqz13uiU984rTnUFK637U1yE0UwpTJbX867PXkhDrJFutX3x5fH6985Sun9l2EJH6nTL/uuuvK76ANnq2dfbKGtpKH2ux9SGP0hzlmDJCpO93pTtPuN77a15Ioilzyg3nUyg/6gbz5tre9bSj5Siw9GDsChZQQ3gnyBH8LHuH5mmuuKZOS0LvccsuVyerFqQkUwoN4OY8gWGhojr7zne+URAMsRya4Ba3WSozqwmexng00Rxa/qCMi9+IXv7jbc889y+K00korld8thNoUJIg2K15G51oCRaum/s4Lpjz//POn7kXqZOCJhdyCSNOkTIvO8ssvX+61eOkvBMl1FheaFtfZsGiu6s2gJpq0cxZS52KhsaFYxGl+or42N+Tjjne8Y3kWrRIypQxjEq533A64GoDFUpIHvzssQK530CSxMNEw/eIXvyjjsNVWW03VU1+4xrX77bdf+bAx0KIpO55JSxlA8Cyc+tu90VfGKUghC5d2KTORSCQSiwf2pci2Zt+wd9qzEBr7kr1LggTnfW/JXhHKR+5T9ttY5x32KYrTl73sZWVdJzwTtrl6Bynj+k0B6zwLhz0mfj/zzDPLs4HHCYVfPNvebF9QLwre+N3REiikiDwSikcKVfKEMilREUK/kz2CZLC82Eu13zmhAq7nyWIvR7r8m4WDhUQ9KIZda2+1d+6+++7lngsuuKA8kyAfylzt53URBIrnSLQ99nUKUs9lZUP8jInfyS88SwIsWWQmezAC4h7l6q9HP/rR5R7HIYccMkUmKKFZklwXh764z33uU661/77//e+fUk4jU363V5M1gkCRfez17nVeH5svMeZkhJDByHwsTuYZRIZe7Q1PFnKZerO8eU7IKdohUUhY3/S7TIsRg00xbz4okyy18sorl9/JrpS50c+JpRNjR6C8oCaiF8JCWWtmwGQm9BKgTdyaQImNscB56Wl+WiAhJjxS89nPfnby1/kjUCwwLDWh0UH2uAsEtCU0bdqHECoD1Ce0OOpvcaxBa2JRcN6CZXEMAsVSYqF1zkJUbzD6Bwn17QflI1vcF2h2ENMaNGGx0NqwmL8D+iVcFRy0S0z0nokA+Wvxt2jEgkv7VI+DzYi52zmLvo3CAuNe7g1+t1Cqa5jwETJaQa4Z8RtiV7tNtH0FCFSdutWiHPBMpA7prN07gCtCEEXj2DePEolEIjE/IFxTasZabe8hCMfaa70O5afzLCRc0ME+V1sprN0UYRSnQGgm/Nrjea64BjlBHAIsNIT6sDARpNXJfm6fDesRwmMvCusITxQeEUE8agJlb6Z0pJR0jjWjli24KCIWzjne+MY3lr1QuVzIg0AheSF3qCe3vXovY4myz7qW8M6tPvbJgD2flcg1CJQ9LgR7+3VYhLQDIYmPAStXTFUQPQpJbQq5gyzmWVz6a9dK/XPMMcdMKTkRMd4jfbD3uxaBUb6+r5WWIS+RC/RF7NcU4KxDrEzOszzWYQ1kDXMo5ATEOMIiKK55p4ScQh7koRLxUNof1j9trzMbmpMRc2a+UPYHkD6yVvQXhXFNOBNLH8aOQLHEWGwsRl7QFl5q/rwmKUtHHQPFR9lLYYFFSEx2L5VDjBGrjfuQl3oRmi8C5XqLCYLjBbJwsLJ4+byctGVieJxzIIqx0NNALQqBChc4i7yXPxZxWiJEsQatj7pb+Bz+beFSJ+f8VUekIzQ6NjF1iMVSv4RWRlk0hrHgBCxa9UaIoFi8XeewmYXbAaJn47MQagNNXdxHI3jZZZdNBZTaEFwT0Bc1gWqtdTATgfIs7dUH+sIRfWAjRbLdQ4OlrEQikUgsHtQEyv7NXa5edwmmtP4sI67hrkVZGntZTaAoVykUWxCCY12nJCREI1/WffuAWJtQQnqGGF/nKSODzJAR7HEB9aJ0DIVbTaCQCG5eIQvY0xCDkAXICvaa8Dph+UCqtIelLDxVkBZ141ZoH3S+tmr0EaggeIFRCZQ9VVlh/QGkI/odqUAu4ry/6qNNIWNom/E87bTTpqw0iKvQij6IIWOtcZ1xrYktDCNQrEjGyTlzBnEJWSVAhmAZi/vDBdHcYqH0uwN5rUmncQirY5AksgiYhzVpQyhjTF3DKhd9jbSZZ4mlF2NHoGh4xAl5WQX2tfDSIg99acy5Ypm4BH0vo4MJ1sHcXsfsiAkKzBeBooUR6BkLqvuYgz2bNcpiGIu4g692kJ1FJVBeVGBhYlGKZ1ocbQgzwULD+kTTpb5RP8SVi0SUUbsJ6pdol36MWKMaCG+9MHENQGI828F1MFwoQlMYGhouevrLOeNnzDzrLW95y7QEGFBnPjKufYG7MxEosODbhF/3uteVDUgfOCx6sfDrgyRQiUQisfhQEyh7IOLRBv7boyMG2P5DkEUUHEGgWDxYdfq+y8gVLNy1KMZYhup92SdJwtXOPkXwtbeyVLjPOV4L9o0arquVebEXEaa5iYWVg+JWObEX+ncdC0SxyEpDuUcmiDgk/RFJkvQLYlfD3ohwupbHBPLV7v+jEihKzdbjgrdHWOA8A4GqlZlCFsSDUwxHUg796pnR3+S0cK2vwZW+jmk2dp5XYxiBIgNG8gzeMCEP1WClDJlQXUIGaAmUZFo1yJTKcg6RRXT1KVmI3Bj3GVNkPOaRv6xZ4TpI1kOwEksvxo5AcWuzaCBQYZ2pQVPArG5ytgQqYoS8UPyExcRwDXNYQL2Mr33ta8tCRMAOzBeBQvhYcMJ0PdtBOxJxRjWB8hIiLzVcFwtlTaAsoLLNxDPf/va3T1vgWthcWOpsEkGW+g6L0zAC1Vc/oPGxoMSmMdvBBTPioBApWkKEDoGOa/Q932+Wydi8bimB4kfNgqau0aa+Qz2SQCUSicTiQ02grMfHHXfcQoK0fS5cp+zv9gr7cU2gkBx7W19mXt4esa7PdpADCPf2yiAPiAdXs9r6AywhfQSK7BCWm1EOe1y4JbJo8KqQTCOsYg77PkJHyRx7IYvYfBKo1nuFolVYhPOegSyFTMDSJ+5Jf0Uf9B2sOa0FSv+ISwqZh9xUx1wHWgIVWZTFqcXzKamFTrRASMlvriGTRRx0S6B8I6sGC1TMFwQKwWKN1G59F/fNdpCvajkzsfRh7AgUEy5mT0PUR6BMYmZzFihm8Xqx5DJn4tJqWIQsEiZ+HH6z6LYuYfNFoAjmFpSaaCBvFsIImPRvxI7VSFu9rCALXxAPlrPWLY0LIvc852sCZaNBCP3uQBAtmH3Qd4hIWMGQJAuyNiKcFo0I/pzJAmVjaDPygM0kYpwcMhTts88+5dnRfkQWeRHIahzDNB6QLp3JnP8yi1g8y/8jgBSBCitRX8INGEagmNptQBG0aq6xQMXY0KIFgdM/SaASiURi8aEmUGFFajPhEewlSHCNPYoS1f6OSASBIowTcPssUATxcHP3vSTKO3tRvS9TRCqbS7xnsIIRtO3LrAqub93jhAcMs0DVWWDtmcpoZQH7I/d1Hid1PDdwz0NwyBB1tj+WLTILUEAGgUIsyRRknRqLQqBal7OWQEVMNxmqjuFiFeQho13qSwaL+vYRKAm+WP2c58JHnmnJKQwjUGSTUADzGqnjtQMU2jVxDvfAlkCJ86oxE4FC7uM+461O7Ziqs/nMrbDO/pdY+jB2BIpWA3mySBL2W1gMxNbwS2b2rgkUoZx/qgWmFcxrIE/1Nw3mi0C5XgKEyBjEmhKZX2p4DosLQhdQbiwIFrlaK8Jt0cIcgY0E/IiB0g6EIMgXqxbXtBr6zOKMbLk2gmV9c6M2rduk/OacxXRRCRQf78im5KBhqv2pAzZMi1T4HesPG0G7aeqD0FAZn4iJq7V+iLSxaTGMQNHYcR2M51ooa40dLZWNyLl04UskEonFi5pA2cfs33WSJ4K12OJwwSe4hrXCHjoKgRKTE7E29vk+5SwQeEOpSWiW4S+UbRR6dViBfcMeFUShJlCIHSVp7FO8ZfpkEm2jGCQ7gPvsUS2ZIgtFtjxyQBAZbQ3PG8pAyseWiMwngeJlAmSJiL1CLpEphC+ArISSsyVQSJD4IefIIqyGw2SrlkCFCx8LYTzDQYkcVjkgt5BRIokHmSmSY5BzFpVAhYygXeHqSVlMFukD8m1sZvIGSiz5GDsC5QWx2JikhHGCNZLghUeWmKgFS9ImSddZLzQCEgn3NEwEYS85Ad7L5K8FzItsUagX2fkiUMrhilenRLXwWyAt9MiUspAsiwGiEwTjJz/5SbGohZbMC6wvtEG2Hz62cQ7Rqr+jxHoVViUb0B577FGeZ+EUl8Vv10LPRUACjiBq8dFCGwVCZxGK4NU+C1QsHMMIlHESxBrJJrgJ8lXX19pvUUHYfIdC0GxsYuqqbJY59bFYGStZ/sKfOL4FBfy0w7VBn7hP/WVrCkKtvkz7rnEEgeIKQvsYgaAWdwu/+qlH+Ew70gKVSCQSixc1gXJY063D9gJ7mLVczFCclzwg9m97xSgEyp4RAr/rJA5Ahqz7nmGPlkCB1UhcLNj7eDcEgSCEez4CYC+zpzqnvvbdmkABd7cQ4Cn6yC7uVSbZgouZfcnejsiA87xI7JH2dfu//ZmsEHIFIhME03PIDX63P+s33iqUmUE2XBPK15ZAkWvIKc4tCoEid0V/us8YKE9dKTopj51z1AQKyaFYVQ/n1Mv4Gmf19NfeH3JHhCe0BMoYU6SHTELWYNWy/3uG/gmShOC6NzxYtCkSUDhmI1BioIL8mpMRi6dOvn9JpjOmDuPHmkYmMcfM7cTSi7EjUKwShHwCvJfMC8Rcb2Ei+NJCsRB4KbyktQXKJI9vQiBZtBdeKqSGu5hFybePmMzrbDpeAIsYk3Lts+qFZq3wEtE8zEagwIJH8xSZe2hYPNdCYTHlU+2cxVjdQkNh4eE6EPdZlBA69yBHrD9BoNxbkxt9YFEKTZm/tGXK9Ncz9R2SwVc4yBZyom4WRmVFUGacq7Pw6RcLhnPijnxXqw9ICFdKm5TATVo/AbHqIubIvSx0SJjFCPS/jIqIl/OuVSebjo1Ju2m41B9sDlz6QsOFEHq2RfSSSy4p17Bk+n+0J/yfufDVWY70pT5Wpo0inulIC1QikUgsXrQEyt5u/4m9gEt7KLys0fbiUDzWe777eKH0ESiudywJlKGutSd6ludb/7nb22+c44YfICcgAH532GvsZ+QIe7v9AgGx3yE4FIYBgry6hRVK2SELuF/5rEbOEdKBgi+UtrxwXGcvtF+GpcuHX8M1TD/YG0M20G/aoo4EeCBbBJHT7vo7UAhUuO2rZygpAywsiKHznoEUgvvJOVGu+tqDtc3zQonqoBCP5BdIK1krzpFVtNFv7nWQuZAR4A7oOuOP1AQJoqwlk8Sz9I3xi73cmMSc0XfqHW3WpsjO56DkrkHOII84RwZl1QsiRAY0/0J+0N9kuqi78SV7mhtk1yRQSzfGjkABq5MMcRYBL4EJ6YXgA03TYQHwsjPhIiw1COOIkpfZfciCBdhLROvA7Y+/rEUl4KW2WCujTp1uARTcaTGgIapNxDPBS+6lFPQaGpL64FqG8MRiELB42kjqwFGHdrMi1fFFCFQNfSZjXa2pi8OigjRYQGjbbCS1e1sctDQRqOuoY4v4elss/K5Pkb8+WNh8uJh2qK8MRNC4qUNkWmKZsyj1XW+BNJ60ap4NNkNEUExYuC46bGJhmUN8ai1TECiwQMoaZE7EeQcyhZhxIfF/dQ2Sl0gkEon5R02grOEEZfEkQWjisC7bJ2q3eArX2m2cbNC6vwUo3rjyIURBXOqDnEDpWnuhUHCyZvDqCNfuOFhgxMQQlBEJQnNtgQLEQSwMb49aOedwD3LE4hTfSaLgo+zllhfkJA5ygX6pyQDY6yiT2+fbN8EzeXD4Tf/WBIpyOixQZJXWAsVyF+1G+FigQqnKm4QFJlwr41BPY0gG838JIqJ9nt/X9/WBpFJeQ1gXHUhNWKCADMc7B8kK61x9kFOQYf0ZhAzUu5alWgJF7ot4c/1Vu/ABucU8YvkLS1p9IFTmJCVuPU6JpQ9jSaDAhOeSZ3Fi0RDAyTTqpfESEYCRgj5SY8GwyMia4wVi1hbcZ/GtP/gWoLFCPpC22jLlOe6xEHnpQus1CtSLNocbmrIjYFSWQcJ//ULXUD9mfSZgbVYvSRO8iEz6nuPlbNOZQiwoFmTXxf0WvZpoIiD6hwYp6qbtCJ2yogykJWDzQeKcsyH0lV/DAqi+/JujDM+0GFmU24XFpijlpzFTb9frd+1pSTK4nwbKdzri+TIQxvgaU+6EfrfAthl+uO3Z7GzccY3MPogodwm/cSv0/0QikUgsHtQEirLSHkngpiREaKzFhH7rcp8XCNc719hf7Tn27WGghONORqEWaz8Zw95GsdrG4QbIHDxEXO/wQVvKWgTOPm8vJZNQHrawL1PMchVTR/cjHmQD5KyVBbQR0bCf2Zdc7/lkES5ifbBX2zujfhS0sefZK93rd7KBeKrwfOExEjKKvdQ+X0N/xHO1mYwQBApcT16JeupTSkzP9deer69DWco9rq5n34GUxjgbT8/ed999i9cLctOC4tlnUJCteIa9W5u59bfQJteHnFF/gBeMKYW5c/rL+Ea8doAsSI5BpHg0RbnaxgumzwqaWPowtgQqkUgkEonE0o2aQLGCICIhcCcSicS4IglUIpFIJBKJ2wQIFEtFECixO3VscyKRSIwjkkAlEolEIpG4TYBAcWlDoCQqEj87zJUukUgkxgVJoBKJRCKRSNwmEC8sjgSBckizPSwRRCKRSIwLkkAlEolEIpG4TSApQSQLYImS5GCmRBCJRCIxDkgClUgkEolEIpFIJBIjIglUIpFIJBKJRCKRSIyIJFCJRCKRSCQSiUQiMSKSQCUSiUQikUgkEonEiEgClUgkEolEIpFIJBIjIglUIpFIJBKJRCKRSIyIJFCJRCKRSCQSiUQiMSKSQCUSiUQikUgkEonEiEgClUgkEolEIpFIJBIjIglUIpFIJBKJRCKRSIyIJFCJRCKRSCQSiUQiMSKSQCUSiUQikUgkEonEiEgClUgkEolEIpFIJBIjIglUIpFIJBKJRCKRSIyIsSRQP/7xj7v3ve993bvf/e7uLW95S3fsscd2xx133LTjiiuu6P785z9P3pEYJ/zf//1fd/3113fnnXded9JJJ3Wf+tSnxm6s/ud//qf7whe+UOp35plndt/73vfKb4lEIpFIJBKJxEwYSwJ18sknd3e+8527O9zhDt397ne/7kEPelC34oorlmOFFVYofw877LDul7/85eQdixf/+Mc/uptvvrm7+uqru5///OeFICyN+Ld/+7fum9/8ZnfllVeWv3/9618nzywa/va3v3WnnHJK95CHPKSM4VOf+tTuBz/4weTZW4a//OUv5Vnq+OUvf7nUucV//dd/dT/5yU/KNV/5yle63//+95NnFsB9L3rRi0r97n73u3evf/3re5+VSCQSiUQikUjUGEsCdfTRR08Jtm984xu7s846qzvttNPK8Z73vKf8JRzfWlaN//iP/yhlPupRj+re/OY3F4KwNOL888/vnvKUp3T3vve9uyc84QnFEjgX/Od//mchJPe85z3LOK6xxhrd17/+9cmztwyes91225U6Itfq3OJf//Vfuz333LNcs9JKK3Wf/OQnJ88swI033thtueWWpX6OF7/4xeW3RCKRSCQSiURiJow1gWJ5+va3v93993//dxHK6wOJubUsQYgaN0KE7tBDD+3+93//d/LM0oUzzjije/CDH1z6/j73uU/33e9+d/LMosHYeBbC6Vkbb7xx96Mf/Wjy7C3DF7/4xULygvhw9Wyh3ltttdXUNeecc87kmQX43e9+1+22227lPCL2pje9qfyWSCQSiUQikUjMhLEkUMccc0wRbB/60Id2P/vZzyZ/vW3xrne9q7gPqtvSio985CPdox/96NL32spdcS74f//v/3W//vWvuy996UvdxRdf3H3ta18rpHc+8K1vfavbZJNNpsiROKsW5szOO+9czt/rXvcqMVgt/v73v3ff//73S/3E02mr3xKJRCKRSCQSiZkwrwSKRYil4YMf/GAhHBdddFH3q1/9avLs6AgCJYZGLMuoILhLBvCBD3ygPIMlSzyVZAF/+tOfJq9aAJYSLmGsJQRolibWCtYmLnsEcTE0b3jDG7pnPetZxSXt6U9/erFWeP6JJ57YXXfddZNPWwB1Pvvss8s1jve+973dV7/61UVKUnDttdcWd0X3/vCHPyy/qaP66VvHxz/+8e43v/lNOdcH11922WWlLa7XFx/96Ee7a665psQJBcR3cZMUE7T88stPEY/XvOY1U+X89re/LdeKJ7rwwgvL75deeml5zr/8y7+UMt7//vcXUoKIeOanP/3pUl+xSn3WQv3xne98p9RJ3Twzkk5IQlEDAUN29tlnn+6Rj3zkFIHacccdy33KMfYXXHBBsRJyQXR+2WWXLe55xsq8YNE0TxzG3n1c/G666aaF6njDDTeUc1E3BFN9WUQDf/jDH0r9nedWyjopluqSSy6Zuk9/1YoAz40+lCjFGP37v//75NmFoT9Z1bxP5oT7Tj311O6f/umfyvsmRq+Fthhn1xqXmeZJIpFIJBKJRGJ0zBuBQkYIbK94xSuK8E14ffjDH17IhtiSRXG3CwLFAtUK0sNAaP3Yxz7WbbvttuU+iSYe+MAHdg94wAO6DTbYoJAiiRFqEkP4Peqoo0p9Dz/88EJWVl999eLSteqqqxbB9vTTT+/uf//7d3e72926O97xjsWNzzNZaB772Md2n/3sZyef1hUhmDDNNexxj3tccUF0rXpsuummJdtbX0KDPihXHygTIdA2cT0Igd8dj3jEI0r9WxKH7IgN2muvvbrVVltt6noHgvSc5zyn1CWSJrAULbfcctOuq48nPvGJJYGGMfT3SU96Uvl9nXXWKcTp+c9/fvn/ne50p+5tb3tbIaJI9Morr1x+f8YznlHiyGqwUCGuO+yww0Jl6/tXv/rV3T//8z9P3YeQcQWsr6sProfveMc7usc85jG95x3G0DxASBAy5Mvv5goCGaRSogrjesABB5Q+jvv1vfmFkMc8QsjMc+e32GKLQlZe+9rXTrXd4fyBBx5YnolU7r333mWOxXn9+9a3vrV3riM+iB9yK54r7nGo2+67716IXauo0MZDDjmkXGdcrrrqqskziUQikUgkEolbgnkjULTq++2330LCMBLxoQ99aJEyugWBIhSzvtCwEwgdNPz+siAECOwEUIKq8l/4whcW4Zzg+cpXvrJYLFiPJB+os8EhPO67733v262yyirdhhtuWARVgrgkCLT+2iWVOgvUPe5xj/KXlYQlgJUpEg+ol/LUwbNYSrRbNjrEx28OxKjPYtDi7W9/+1QfErAf9rCHlbgkhMzfOEcQP/jgg6e5yLGqsN4hhs4jgA7/X2aZZYpA7Xnih/QjC9KTn/zk0kfOeS7iphz3IQ36Qr+zOj3+8Y8v18iUiEgqw4Gs6RskEXGOuYDAIiUBBM8YO+8Z+jXqGHVQT3VCHBE3Y7XrrruWxBCRodHhevchV/ofOVTvIJra4Rr1U2+ETzvU4bnPfW65BjExX6IPP//5zxc3Qc9AmM0PZfirvSySkQGSe6I6eY7+NT7a5a/rle+ca5BqczGyScZ9DvewmNZzg9UU4VO2Pom2OmIs9QWFwQknnDBNSaGNyKxr11xzzUL0EolEIpFIJBK3HPNGoLhuPe95z5sSCOOg9ffdplEtLxAEitCLgLAEfeITnygH1yd/a407FzHC6V3vetdCJriuIWwsCiwXrAISGhBaEZiwahDKCZ6ETILu/vvvP+XKxzrDVQvB4N4lGyDrDWsQyxVh2/ND4OXqx8pEmEUiWA5YKVyjrgR351hrRonrqgnUXe5yl9IXLBcEdv1B+CdAO88ixEUwwJKGICEcrBMIkvFhlWINiufuscceRUhXRxn3jjzyyFJH55Tnei5rLCOuIZRzo0Po4hkEeJYO1kcucTLg/fGPf+xe97rXlX51zUYbbTTNAsX9DMFwDqlEEpTjQEqlPXfOmCCsSKp+NjbGsi7fuLiPy6M5xhqHdD3zmc8s5xEgBBiB4O4mUYQx9cyYr9qMQAXJN35BJPUzNz79xy3viCOOKMREeaDdQRQd+o0VFglj9dl+++2nzjlce9BBB3Xf+MY3imskwhfj+IIXvKDM1wCCG6ng3ee9MJbaa1y1MeqpLXXWRG00B11LCTHXlPSJRCKRSCQSiemYNwIl7of1JjTucSBQ73znO3tjkIYhCBTBkhVKYgOEwME1yl+uUIAE0dyzYmy99dZFgG9BeER81IXbVlxD0GeBIuhLac3K0gf3s0ohYAT2PiA8no+ghJWLWyPLFMsAAV5cDrc/wvVsUF70IYuKeCTWsIB4GKTReX2EaIYFRfsuv/zy7he/+EX5fw3PDWLDUseVLnDuuecW9znnWGXq8iAIVLjweQ43wdaFkLUJgYp4qqc97WlTdVOnyH6H8HJ3q+ugv7jTsZq4hkVPW8K6IokEouqcg8tkC0SrTiKhzi1cE66HCBSyEiTDnIjnP/vZzy5kJ2DOaG/MZwSKpSnKYvGsCfKHP/zh4hbqPLKDBMd5bULoI/OhsqIvPT/6yXO56tXjYSwoEiLph3HjNqn/EolEIpFIJBKLD/NGoAiWrAfc4Ah0DoQCqRE3Q+AbFUGguCyJkXn5y19erCX1IZ4JkAVafpYGAfPDwHLFJYswK+YH1Pn4448v1hDfd6pdoGogaXEd9y3EqIb/s16FIEt4Z4Ug9L70pS8tB/dBdeS+RVgfVlagJlDrrrvuNAsTsJJ5pvMEePE6baIAfcPljvULiUUMkNxwAdxpp52mWfJYYSJBA7LIelGjJVDijfrIIGtTS6BYsEDGO4k4/M6qIs6pBXIT7nXIMmIQiRvEH7FoOedgkWqBrIblxxxCDNv+RkaGEShtDGKCvEiJzorl90imEUCgoj/VFfmrgXx5B5w3/upSg/U04rYQQ9erK4WEmCq/s9Ihii05YnFbf/31yzXGi3UsLU2JRCKRSCQSixfzRqCAUM8yQkgnJEsEwLVtlJifGkGgCLazfdyUtYcrEzc3MTDDQHBn0UKCWDSgJlDc14ZlyZuNQDn/qle9qtRZXAvhm6XJB2TjICSvvfbaRWgnDM/WJzWBYpngutWCi57zBHOZ5oIM6TOWDeMQFqW+A4GqXcYWlUCxqPXVayYCJS4sCIPzCEgLVqogNyyOdXzS4iRQUQYiyo3PeNXuefqSuyLyHkSlJlDIOSVCDZkBI1kFhYLzdfye+80V58V8mZuIEmIV7TR//L+Ffg6FBWsga14SqEQikUgkEonFi3klUEBQJSwTRhGNWlgcFTWBmi0LHwJFU8+6RNAeBi5/4nXElETmvJpA0d63xChQEyjZ+lqixd2KxUmduQIqi+BMOI5D7BLBWzwKK8Zs/VITKG6BtRsZsMiwzjnPSqJ8z0XMWEsQOYSRayMLFbKi/oT9iJuZjUC1Lo0tgUIwwhJYo49AhQUJyQ2XNvXpu78mUKwvMgYGMWgJlHMtWgLlW1Ftf/cRqDpOy1z4zGc+U2LqEBz9qN+4HYo3Mp7gbxAoSTRaC5Q+RGSdR6Ccr8kc62wQKB8IRvQRKB8MlnzD7/prNgKlLyU+SQKVSCQSiUQisXgx7wRqPhAEapTvQAnmF3xPOJXSOywdLQjaLDWbbbZZEbChJkazESiJMIJAta5U/i/rnjpz15Oo4JaiJlAsEBIY1BArEy5eMh2KwSJQyw4XlinxaDIAcpOTBAGRO+yww6ZioFoCxWoVabsRKCSwRh+Baokd9BGoEOwRASTT74hHZNmrodzNN9+8XCP5h1ifcAHlMli7ifZZHVnFzAnnEai+OKnZCBQgXcZS8gnzJNKVs3aypIHEGfNJoCLeq3ZjFCMlMUhYyAKu4d7pGnVjNau/UZVIJBKJRCKRmH8s8QQKuXE9iwu3wdbtDJAKblQIFBe8+P7RqASKhUm2PqRCrFEraEMkHpAhblgyCs9nJWoF4T7UBIrgLe4rsqwRsNUnvjXEZRDBYn1CDiO7HMuUJAYBFjdED6lwviVQyEh8Nwr54X4JiIS6I4pzJVC1exxS53cWMoks6jHTP+LJxIq5xremWBnDgiR+rU4igTQEkGd9w8oXpIXFyAdtA0HkuDnWBIoroDoqxwdq9X+d3EIduVJGufHM+SZQYtZAX3PL9DvrKuJf97W6cTs1d12z3nrrlWfVz04kEolEIpFIzD/GkkDJqkcoZFmZjUAReOs4Em5tyAQBWfpx7nQsMtJL+1ZQHZM1KoHisieOhivcWmutVawmP/3pT4tQHWSM1cO3g9Rhm222KUTDNcibZA5SViMOiFbcMxNqAsWShCAS+KXQ5qoVWeockhxExj1tRoz8zuVMf7iHhWqXXXaZ9u0h19VJJLiNITvOIR6uZ3lj/UDe9IO+jTTiCBQC0QKBkjUwLF1c7uI7UCxJrIGRnptrHHc77XXUH2J2vxTntVuavnzZy15Wzju4N7I8uhe5MobSzAdJcyDWyAbSKSW5OhiXOo05CxQCZj75nhmyLQuefnOfeL4gl4i0pCTAhS8IqRipsEwFzBEk0XkEyvma5Eh1HnNXDFRtaZSqvI5hM5bqE/0U5MmYUgzUxNwc5x554oknFstiTQYTiUQikUgkEnPHWBIoH2ElGLJg1N+2GQaCI0Hbh1IJk8gFIZsQTdhHfAjaF1xwwTSSRNBWFg2/APxhSSSAW1lkj5M+XKY9z69jeFgPWEwkHlAuAiLNtyyCyJt4HuSn/qjsMNQEinsWskJwj98c2soy0WZ2Q1DEzdQfnHUQ9LkDxu+IXi1Yc1fTH2E5ikObCPqIhxidSALBva6PQBkProJIiOt816luM3JrvPRjXFMfiIYykLD4YG2Ai5qYpsiSF4cxrrP1saaFO2Icnis+jHVHW+NbUcZL/Fe4f8paKKNefa8DqURotA05hppAIWLqUIMFSj/HMxCosKaBfo2yzF8ufHFeUhaWLqRd++IZcaiP8UT4wi01YC4jVa5j6QtrYiKRSCQSiUTilmEsCRRhVtwHciDOYxRws/vc5z7X7bvvvkUQRVYchHfWB4Js697kHgIqQZ6mfib3J8SL9YIVSN24z4mz4S4WQDBYonwrCmFCfNQBAWExkKFwlAQSUBMogj7yJ007YoFIIS++KcTq0sZ9ITDihqTPVlfXSw6BJCJALFZ+587Hra8Gi5/r9Ak3OvcqJ7Ih6sdtt9223O8jt30EV18hEtzKXPeSl7xkoeQGrFSsg4iuuinHgfwinCx4bd0C0ndz3WPZ8r0q9/kgLZIQY+gaJMocimvUN9Kuqw9yq35c57jtBblmIZQtL/rJvYgTlzoukZ4dYxjpxl0nbqtNy+6bTwceeGA5b8zCRS8gNk0dnWepauPO9JM6S2ahDtFP5pa+U2+KgHZOmYvmkGsRsJZgJRKJRCKRSCTmhrEkUARUgiQt/0xWoRbclsTYiJlhGXFIAEDA7IPrCcuRGW82sG5IPoAkiUfhTtYXtK88gjXrlDpw4+JityhtqQmUpAs+IMuKg7DoG3VmPQp3xBbKUlcCuuv1A6uL6/3uN3Vq70dA9EmU42AFIpCD9sqM6HfjU1v0AoR57pESfLgO+eojpyxBXAi1JcpSrt+cmwmsM8qP+xCVPiIp2UbfNeqo/X43Vsh0TUJc1/affmiJoPbX/aFeNYyD+5w3L1vro/40j5ynLOibT/rO/FQH1zn0mX4aNqe0xbvgWve1fZNIJBKJRCKRmBvGkkAlFrZA9aX7TiQSiUQikUgkErcukkCNKSKrn4NrWHx3KJFIJBKJRCKRSNx2SAI1phDvFARKZrwkUIlEIpFIJBKJxG2PJFBjCskIfCRVsgrJAsSxJBKJRCKRSCQSidsWSaDGFLKvSS4g8YBkB33JGhKJRCKRSCQSicStiyRQiUQikUgkEolEIjEikkBNQmryU089tXzrKVJ2314gFfYXvvCF8k0s35VKLAxpwaWjN0e+/OUv96YbTyQSiUQikUgs/Rg7AuW7ROJ9PvvZzxYXttm+BzRfeOc739nd9a53LSnD62/m+J6RBA5f/OIXy/eRlkb4dpEPEEtY4W9iYfgWE4J5j3vco9t///1H+m7YXICo+Q7aV7/61e6yyy4rHxT2sVzHpz71qTIXl9Z5mEgkEolEIrEkYOwIlI+fvuIVr+judre7dYceemgRJm8NnHTSSYVAbbzxxtMI1JVXXtk95SlP6VZaaaVinVoa4eOuBx54YCFQr3zlKyd/TdRAoN7znvd097vf/bpXv/rV5SO2iwOsgZdcckn32Mc+trvnPe/Z3f/+9+9WXHHFciy//PLdk5/85O5Nb3pT95WvfGXoR3QTiUQikUgkEosPY0egJE948YtfXIT5/fbbr/vd7343eWbx4pRTTikC69Of/vRpBOrzn/9897jHPa6cu+iiiyZ/XbqAQB1yyCGlz1/1qldN/pqogUCddtpp3QorrNDts88+i41AUSCcccYZhTjd97737XbaaafuDW94Q/f617++23PPPbvVV1+9nEP0zc3bm7tpIpFIJBKJxG2NsSNQBMJvfOMb3QUXXFBiTm4tLXsQqE033XQageIudcUVVxQXql/+8peTvy5dqAnU3nvvPflrokZNoLg5Li4CZSxYulg8ff/rM5/5TFEimIc33HBDmYfPeMYzyljtuOOO3c9//vPJOxOJRCKRSCQStwYyicQkhhGo2wP++te/JoEaAbcGgWKBfe9731sI1HOf+9zuxz/+8eSZBTBXjRV3wmuuuWby10QikUgkEonErYGxJFDXXXdd97nPfa776U9/Oi2JxG9+85sSk3TjjTeW/9PKyx4nNomV6Ic//GEhAzPhpptuKq5PNPmXXnppd+2115bEFe973/u6e9/73gsRKP/2XNnp6uB99aL9v+qqq0oSBlAvz1YflgP1n83FyjPFs3ziE58o92mf57J4tHDtt771rVJn5//0pz+Ve7XFh3fVcyby5x51kpzAPeqoPwjtXMTueMc7DiVQkhuwgETfqatsdH1EwrXqqs/UFYydRBzuNVZ+b/vGOPjm1eWXX16e71qH5Al+c5/614hxUFbUy5zwnLnCOMa80q8/+clPSl3PPvvsEovU58Knb1ko63po789+9rNFcrOrCdSWW25ZrLAtPvzhDxcCtcwyy5QxaNGOlcO/r7/++qF1ibrHHNen+jv68+abby6/B7TLmBibq6++esZYRWXqU3WNcVUfdUwkEolEIpFY0jCWBEqQPDLzmte8ZppghmSsvPLK3ete97pCsI4++uhu7bXX7h7wgAcUgfN5z3ted+GFF5Y4khZcAZENwu8jHvGIIgg/7GEP63bfffciBB511FHdve51r26zzTabRkIIkmJP3EPwC8jO9453vKME+3/wgx8sH7w96KCDSpC/+ng+FytCaJ/Qqj7I1xvf+MapJBWsG2JcXv7ylxdhtr3v05/+dGmj88ifxBfudR9rxPOf//zuIx/5SG/cGMFcRjd1euADH1jqt8Yaa3Svfe1rS9ICySMI5H0ECkFUnnOPf/zjS121UWyY5BNcLuu6+reyHvOYx3S77bZb973vfa+080lPelIp1/3bb7996feWrHLdfMITnlDaFNf6yzp45zvfuTvssMMmr+66X//61+X6vfbaq3vqU59arnOfsZLogWDf1/fD4FoWHc97+MMfXp710Ic+tMTk6XuZGpUhNi8IFLKifxAt2fnWWWedqbF85CMfWeYXAjJqNsnZLFAUBPoSgXr0ox9d0u/XcD9ivMcee3SrrrrqVP896lGPKu3wDuk39Q7494c+9KFSX21E/A4++OBurbXWKokr9IGELrJicjFEnPSv8TXv/H3rW99aSFhN/INIK9P1G2ywwdQYefe8V+Z5JsNIJBKJRCKxJGEsCRShnoD40pe+dFq6aEkcll122SJgI07ICwH9gAMO6NZbb73u7ne/ewmuJ8y2YNkhwCNmBDllSJggzuSJT3xit9pqq3V3utOdShrz+hs/tPYC+ZdbbrnunHPOmfx1gkAdd9xx5XdCs/vWX3/9QqLUB7mQSVBSCmSvFuQJ0wRydSbgbrvttoXAEVo32mij8sxnP/vZRfCugZQ4T2CN9ruXcKt8962yyirdmWeeOXnHArCeOKf9z3nOc0pigpe85CWlDvoTYWCBQg5qEG4J9ARwh3uOPPLI4samvRIabLHFFtNcybT14x//eBHIgwggXgR45W644YYl4+Gaa65ZBOiA+7773e92xx9/fOkLRPnwww8vhFH6cHNC/wJrFZc6Qj6iYK4gV87HOD/rWc8qzxsFBH8WEgQVWVt33XXLs5BGfWSMteE+97lP6e8gUH/7298KEUTgEI0ddtihKAC4RLpHvfU38l6Ti2GYyQL1hz/8oZzTr4jNm9/85mlkmUUSqVZPCSjMCWNlrrOsBrk0BmFpAkTnAx/4QGm3vjPHxFnFO6I8c2vnnXfu3vKWt5S5Z+yR51122aXMAaT82GOPLeQsYDwRM+9XzB3P1H+Iv/I22WSTQsATiUQikUgklhSMJYE64ogjirBMi14TKKSDFcLBUvT+97+/aOi5FyEbyIr7COo05QGCp2eysBAqubARILkQ+TchkXDpXmSAUBzgqsSK8KAHPag799xzJ3/tuj/+8Y/dCSecUARZpI4gyZLjmerjO1ZRHySndvn65je/2W2++ealTFYLQr76Eoa//vWvFwuIc4gb17cAzT9hnqWMoMsC9u1vf7v0ke8DbbPNNqU8dakFa+5TnoUg6RtlOM+N7mMf+1gR+hEa9xKKa2gHcvCQhzykO/HEE4sVgqBOUGap0DesEPo3XBmRG6QCMfNMY4XU+b4XiyILiXEwHshGXVeEzTWeb4z0pZgfQrr+ZLWL6xBaQvv5559f5oHnuA+BJqAT+pU7k1tjQJnmmz5CsBFuz9J32qLfPA8pRgJiPFk7tQexUBZrG3Jt3MxJZOMud7lLIcij1AOBkoVPf7PWIPgIKOsiIoYwGg/lcVOsSRm3OORaeaw75pm5rx+RFKSXkgFxrS2jCJS5jXQaL/NIH2ojF0/vGcuotruXtRKZVz53WyTXfdqq3wIUBcaGpfijH/1ocTFVF/NV+ciTuWx8tTuRSCQSiURiScBYEyhCYE2gCHWE7gc/+MFF8G8R6Z8J7gS7gI+SIh5ICUGuBdLzwhe+sJRJsK8tUDWBOu+88yZ/nSBQb3vb2wqBQhDEJrUQV0VAVC4LBBB41ZP2nbWDUNmCIMw9i2WldtEidLJssYJ4Rm3VAi6GLEkE7Fqrz82N6yPhGnlqwXqkf7S/tkAhQggegsh6gDi1QBqNx1ZbbVXIFRDIkQ7lsXj0jRWhPCxtfXE+AaQLgeDyxVUyoG7I1TDXOFYspJDLZk1Ch8H4cWlkSWE1afH973+/zBF9j2QGgVI+8jXMDQ3J1X/aiVjNBkTCvGHNch/rD4uSehkfB3c4xKgG8iiOzT3bbbfdQrFiYJ4j86xirHVhhTJe4qpYrZSFqNdQVrwf5nr7bO6rxlp/q3vAXEdCa4VEDdkGEToWRkQ1kUgkEolEYknAEkWgBKAT/rgjEWhbIClikGjCa0JDWHcfQZ/Fpg8EXeSsjYGaiUAR0sUCcaUihLZA3CJGSWwWsDSJYQn3JW1lyWJRQMjEktDwI2ZIj9ijsDIgUARV1glCawvJDrjHce1jFQlwhdOfzvUJ8eJquKq5po6Bci3y4nfEUnvbur7sZS8rQjuXN8QvYKwI/ywntYUpwPKHjLCkBblsYewROhYV5QwTspEYJIkVCiFF5FiJWJNY12ZLVuB+JBNp0c5hhI77nLEcloXPc5A65auLQx8hitzY+vqhBQLFNdF8Y23yb1YdBAdJ1Wfc68ytGog2lz8kCAHsm4/w9re/vfSLZ6gfuBY55TaobUhPDQSIq6z7uP/VCgZgiVI388Tc6AOybzzN0RgjlinvHEVCJBtJJBKJRCKRGHcskQQK8egTcllSuF8hULXlhpuX5xFKCXB9oA1HatosfKMQKPXts4QQCl/0ohcVwTTc/7hEEVK5IXKZ8lxECSmqDxYHhIfVLSxNQaAQwb72swxw+WKlqgkU9z3t1299WQq5oUnY4ZqaQIn/Ekfkd4K7evXVNeJ1asuFsRL3wu0MqWjBvQ2xECfUkgFAGo0JiyJCyJWwBcEekebKp/7K4hqJtLHgsYiI25nNuoHUih1CjgjzfeQUWP36CBRrGDKC5Ih/YwFicdInxkv/Ifat1agPw2KgkBztkAQEYWURqp8nfktfIlB9MYABbobqwxUvlAlBoLgMGv++75294hWvKPexXLVJWlyvn51vCRTLHCsiy697EXLkzRix+GnLC17wginrZSKRSCQSicS4Y4kkUBJFtNnHQNY1we0tgTrmmGPK85CVYZpuwjp3u7kQKDEgfS5cfQSKtl6Mk7II64Rl1inPjoPLm4QZkk8QTsOaUBOovvYTQiUAQKBqwkHo1v5FJVAIGULid6QAQWjrSjCWMEI8VBAl5CcIFCLRJ5AHgWK56iNQ2iceTf+++93vnhbTBvpbP7EY6g/EgTDOWoU4sWyYKywnsxEosVvKCALVZ92EPgKFPLG8IQXmSMRJqYtDPfQft8pFJVAIYUvmzAuunQhiHW+EQLHm6QexgsMQBMo86iNQrJ99KeDNWfex7LXxSpQC4u6cZ3ELmAcy8CGCxkisnLGpx0hfIYNJoBKJRCKRSCwpuF0QKHEZ4cI3zD1LgoRITrGoBEqCgD4gCciMa9QduHHJ7saywpWvTtM+G+ZKoIIcDXPhY8lBClxTEygkAYHSLzIOIgujgMVsNgKFdAwjUMiS2CtjxnrWZ8FCThEsdfYM9WOJQlQdkj6ot/tnI1BBxljXPHPYHDGPEKj6O1CsdNoY9UAgkBR1MV9cy3rn3ChjPcwCFUBWtAkB5zoacWnmPuurPkV0g3S3CFdVlqCIZRqFQIUFahiBCgtUTaC4ToZrn3fSe1KPEVKGTInLSgKVSCQSiURiScHtgkCJt5GmnIAo6UELMRksLMpclCQShEWxSoTRPrcvbmFSoxPMZckDwro4FGWxWswU+8FiUQvCcyVQLCfcBSUI6EtawdIlVkud6iQSiGRYr6QJb2NfAurIihVWuFtCoJQpZo0Lo3Hss06B+/WD5BKsMi1kdlNv1o3ZCBSw4IiBcrCatBBTh9AgLghwECjxW0iA/kVcWvjNPdzrRo2BmolAcRX1rSYkiMVJpj1AVsSJseh4b/rKUmfz3DXij4JMLy4C5X2URMQ4IU4t9I24qjoBSSKRSCQSicS4Y6wJVJvGPAiUOJ/ZCFSdREJGPgSASxXtPaGc8EhQ5O5E+EOElIlALUoac9Yl93EV800jyQxkN6vTqiu7zgQnPkmCBeekUOdKxTrhmQL4CcVIFreyui5BoNRlJgLVJpGQeY9rooxnvq+E7CmLBcKHd8U5Oac+Ynhq+D4QMsM1TOIIsT6IHbc3AjkiwxJnbEKwZqkalUAhFpFEwn3GTUZAxNO3lKJflOnfrFNcw4yhjIOIMUFcnxtT44UAIaeIzSgWKPDBZC5z+kAab32mPG1EwCWjcM4cqtOYuw5B0BaEWVvVVz1kRYwkHItigeJOikAZl76kJ+YWFz51YRVDXBEr89M8dnBbRZaNk74zp4yt+coSqf8iOUlNoFiF+vorCBRr5qgESt2lP0dykWLvgDFC9igy9I0xQuqSQCUSiUQikVhSMJYEKrLG0ajXBEqsDcF6gw02mEaQAoRCWnnB6fV5AqK02oQ5RIGbHpcvbmKC+wXUs84oU5xQ+yFdwqH4jVqLHgSKSxfhmaYdeSNci4mK7zUR5FmfaksStyvZ1dSH5QJp8z0kRMRfGnnJGVgS6rrIyId4KbOv/axZ2oNU1ASKRejkk08uwrPytt9++xLsr39lemOxQsy0H6GrQQDnauheJEpMF9cxbZcUAJlV13e9611TLn7+Giu/a38fgWIhEweD7AaBYn0iyHNvRA6URSA3Viwm+oarHRKF/Eo+YFyMHbKFNEjxjawgEYjmrrvuWsjRbEBAEB7kQr38VZ42Inn6SCY95+o05sgD0qF/jCcLjqQlXPdY9cwL1iL3jkqgTj311DKn9F2fO6G2GyfkQ3p5cxS0M5QB+lCiBi57XOeQea6E5sdZZ501jZibm4iY85QWfRYoSgTzQz+3BMr15pTz2h7w7qqPunjH9Jsx4i4qJkyfIefI6bDkLolEIpFIJBLjhrEkUAgI4ZCrVC10EnAj+UKfy1xYoAi8raua5AlIFKEbASG8sWD4Bo3fEQL/33rrrXtd+FgZkIIAAoWEeBZhVtwLCwZh0cFtjzBP898XO4QEsH4hSawJhF7PQiho5Am+khmElQBYQpAFwqgPtragxSf4a398cDagH5ETlihESFmegyCoB8sCC8Shhx46eccCEITPPvvs0jesSurKQqKuLG+E79pqUbvwEeLje0M1uA0iP+oTZBCBkoIb8RK/5HyMlUO5rHmsdMpALpA75EabXIMgsJQ5WHAI66NYoMC4I6ksIzIyKg+xRCr8zsJE4Efww0VOPQj/6qE/kBB1Rp6k/OY+qR7aOYoLnz7Q1/qAJazPxdN84k6qf5QTBNRcYSFkwULKjadDv1AqiG+TeKJNJIJAsTQaU+9crbQImKfIIwLU3j/MAqU+PhKNVPk2W4wRMokUc0VkoUQ60wKVSCQSiURiScFYEijkB1lCkiKuBiQTIJgjSm1WNuCqJBsc97C+8wQ6KZW5eBFSZZQLAZXQyGojFXpNeMT2IEFIRp3MgCtSJJEgVCrPdVziuJRJJT2b4E5wZTXwbPeok3b7CC7LTwsuUIiHo+88y4D2c/GK+JYaCAKywoqjLG5UYUlBFJGEPmIKxsG4IJtRV/92fW3NAO3SV9KaI3L1GAaQqosvvrgI/5EIQb+zZqiHseGSppw4lIsAIBkB42a89btrkExkEcHlXodo9mUeHAaEyD3KV565EsK9Ohurdl6CsdH3rJTuUw+WN/OHu6V2tv3UB3MUIVGOudimDA9E/ymndg8F84D7HMIffcf9s8+yFOBWZ84i7X3jZd6Ym96XViFgPPS1WLQ+woc4GrcYI+UYN3PYXEeEW6tWIpFIJBKJxLhiLAnUkoCaQLE01JaiRCKRSCQSiUQisXQiCdQc0RKoUawLiUQikUgkEolEYslGEqg5grugxAZiZSSO6HN7SiQSiUQikUgkEksXkkDNESxQkURCVrq+RBGJRCKRSCQSiURi6UISqDlC2msB8xIxyHyWSCQSiUQikUgkln4kgUokEolEIpFIJBKJEZEEKpFIJBKJRCKRSCRGRBKoRCKRSCQSiUQikRgRSaASiUQikUgkEolEYkQkgUokEolEIpFIJBKJEZEEKpFIJBKJRCKRSCRGRBKoRCKRSCQSiUQikRgRSaASiUQikUgkEolEYkQkgUokEolEIpFIJBKJEZEEKpFIJBKJRCKRSCRGRBKoRCKRSCQSiUQikRgRSaASiUQikUgkEolEYkQkgUokEolEIpFIJBKJkdB1/x9f9rQFU+m5CwAAAABJRU5ErkJggg==;" vertex="1" parent="1">
          <mxGeometry x="-79.00425519670739" y="2680.9957142857147" width="848" height="337" as="geometry" />
        </mxCell>
        <mxCell id="Fnz1tmBVVwKyuUZF2mA5-22" value="" style="endArrow=classic;html=1;rounded=0;fontSize=12;startSize=8;endSize=8;curved=1;" edge="1" parent="1" source="Fnz1tmBVVwKyuUZF2mA5-18">
          <mxGeometry width="50" height="50" relative="1" as="geometry">
            <mxPoint x="181" y="2540" as="sourcePoint" />
            <mxPoint x="296" y="2675" as="targetPoint" />
          </mxGeometry>
        </mxCell>
        <mxCell id="Fnz1tmBVVwKyuUZF2mA5-24" style="edgeStyle=none;curved=1;rounded=0;orthogonalLoop=1;jettySize=auto;html=1;fontSize=12;startSize=8;endSize=8;" edge="1" parent="1">
          <mxGeometry relative="1" as="geometry">
            <mxPoint x="252.1429050990514" y="3184.7144077845983" as="targetPoint" />
            <mxPoint x="315" y="3019" as="sourcePoint" />
          </mxGeometry>
        </mxCell>
        <mxCell id="Fnz1tmBVVwKyuUZF2mA5-26" value="Chiesa Anglicana: Divorzio per Enrico VII" style="text;html=1;strokeColor=none;fillColor=none;align=center;verticalAlign=middle;whiteSpace=wrap;rounded=0;fontSize=16;" vertex="1" parent="1">
          <mxGeometry x="226" y="3197" width="295" height="30" as="geometry" />
        </mxCell>
      </root>
    </mxGraphModel>
  </diagram>
</mxfile>
